<svg width="27" height="27" viewBox="0 0 27 27" fill="none" xmlns="http://www.w3.org/2000/svg">
<path d="M20.6135 10.7363C20.5688 10.7361 20.5245 10.7456 20.4832 10.7641C20.4418 10.7826 20.4043 10.8099 20.3727 10.8443C20.341 10.8786 20.316 10.9195 20.299 10.9644C20.282 11.0094 20.2733 11.0576 20.2734 11.1062V12.5802C20.2736 12.6286 20.2825 12.6765 20.2997 12.7211C20.3169 12.7657 20.342 12.8063 20.3735 12.8404C20.4051 12.8745 20.4426 12.9014 20.4837 12.9198C20.5249 12.9381 20.569 12.9475 20.6135 12.9473H21.6287C21.8198 12.9473 21.9688 13.1094 21.9688 13.3172V14.7912C21.9688 14.999 21.8198 15.1583 21.6287 15.1583H20.6135C20.5688 15.1581 20.5245 15.1676 20.4832 15.1861C20.4418 15.2046 20.4043 15.2319 20.3727 15.2663C20.341 15.3006 20.316 15.3415 20.299 15.3864C20.282 15.4314 20.2733 15.4796 20.2734 15.5282V16.9995C20.2733 17.0481 20.282 17.0963 20.299 17.1412C20.316 17.1862 20.3411 17.227 20.3727 17.2614C20.4043 17.2958 20.4418 17.323 20.4832 17.3415C20.5245 17.3601 20.5688 17.3695 20.6135 17.3693H22.3063C23.2387 17.3693 23.9991 16.5396 23.9991 15.5255V12.5802C23.9991 11.5661 23.2387 10.7363 22.3063 10.7363H20.6135Z" fill="#DFB28B"/>
<path d="M4.69358 21.7881C4.64887 21.7879 4.60458 21.7974 4.56324 21.8159C4.52191 21.8344 4.48435 21.8616 4.45274 21.896C4.42112 21.9304 4.39609 21.9712 4.37906 22.0162C4.36203 22.0611 4.35335 22.1093 4.35352 22.1579V22.8949C4.35352 23.5009 4.81409 23.9991 5.3712 23.9991H21.2916C21.8487 23.9991 22.3068 23.5009 22.3068 22.8949V22.1579C22.3069 22.1096 22.2983 22.0616 22.2815 22.0168C22.2646 21.972 22.2398 21.9313 22.2084 21.897C22.1771 21.8626 22.1398 21.8353 22.0988 21.8166C22.0577 21.798 22.0137 21.7883 21.9692 21.7881H4.69358Z" fill="#D9D9C4"/>
<path d="M4.69357 21.7881C4.64887 21.7879 4.60457 21.7974 4.56323 21.8159C4.5219 21.8344 4.48435 21.8616 4.45274 21.896C4.42112 21.9304 4.39609 21.9712 4.37906 22.0162C4.36203 22.0611 4.35335 22.1093 4.35352 22.1579V22.8947C4.35352 23.0231 4.37455 23.1468 4.4124 23.2617H22.2485C22.2862 23.1468 22.3067 23.023 22.3067 22.8947V22.1579C22.3071 22.0602 22.2717 21.9664 22.2085 21.897C22.1452 21.8277 22.0592 21.7885 21.9693 21.7881H4.69357Z" fill="#E6E9ED"/>
<path d="M4.35273 18.1064C3.98036 18.1064 3.59585 18.2976 3.35505 18.6803C3.11426 19.0629 3 19.598 3 20.3174C3 21.0369 3.11425 21.5692 3.35505 21.9519C3.59585 22.3345 3.98036 22.5257 4.35273 22.5257H22.646C23.0184 22.5257 23.4029 22.3345 23.6437 21.9519C23.8845 21.5692 23.9988 21.0369 23.9988 20.3174C23.9988 19.598 23.8845 19.0629 23.6437 18.6803C23.4029 18.2976 23.0184 18.1064 22.646 18.1064H20.6132H4.72531H4.35273Z" fill="#DFB28B"/>
<path d="M13.8373 20.3173H19.2583C20.1907 20.3173 20.9511 19.4875 20.9511 18.4734V9.63215C20.9511 8.61803 20.1907 7.79102 19.2583 7.79102H13.8373C12.9049 7.79102 12.1445 8.61803 12.1445 9.63215V11.1062L12.8715 19.6638L13.8373 20.3173Z" fill="#E6E9ED"/>
<path d="M8.41825 10.7364C8.33094 10.7367 8.24708 10.7736 8.18418 10.8395C8.12129 10.9053 8.08422 10.9951 8.08069 11.09L7.74063 19.9312C7.73841 19.9812 7.74557 20.0311 7.76169 20.078C7.7778 20.1249 7.80252 20.1677 7.83434 20.2038C7.86615 20.2399 7.90442 20.2686 7.94677 20.2882C7.98912 20.3077 8.03469 20.3176 8.08069 20.3174H13.8367C14.9568 20.3174 15.8696 19.3246 15.8696 18.1064V15.531V15.5282C16.2291 15.1291 16.5472 14.6558 16.5472 14.0542V12.9473C16.5472 11.7291 15.6344 10.7363 14.5143 10.7363L8.41825 10.7364Z" fill="#FCD770"/>
<path d="M16.5487 12.9475C16.5487 11.6451 15.6668 10.7364 14.5157 10.7364H13.8383L8.41992 10.7363V11.4732H14.5157C15.4216 11.4871 15.8626 12.0631 15.8713 12.9475V14.0542C15.8713 14.6558 15.5533 15.1294 15.1938 15.5285V15.5313V18.1073C15.1938 19.3255 14.2809 20.3177 13.1608 20.3177H13.8382C14.9583 20.3177 15.8713 19.3255 15.8713 18.1073V15.5313V15.5285C16.2308 15.1294 16.5487 14.6558 16.5487 14.0542V12.9475Z" fill="#F57C00"/>
<path d="M5.70865 10.7363C4.58857 10.7363 3.67578 11.7291 3.67578 12.9473V14.0542C3.67578 14.6555 3.99428 15.1291 4.3534 15.5282V18.1063C4.3534 19.3245 5.26621 20.3173 6.38628 20.3173H9.09676C10.2168 20.3173 11.1296 19.3245 11.1296 18.1063V15.5282C11.4887 15.1291 11.8073 14.6555 11.8073 14.0542V12.9473C11.8073 11.7291 10.8945 10.7363 9.77438 10.7363H5.70865Z" fill="#FFEAA7"/>
<path d="M14.9196 3.00005C14.8549 3.00108 14.7917 3.02232 14.7377 3.0612C14.7007 3.08815 14.669 3.12274 14.6443 3.16305C14.6196 3.20336 14.6025 3.24858 14.5939 3.2961C14.5853 3.34361 14.5854 3.3925 14.5941 3.43998C14.6029 3.48746 14.6202 3.53257 14.6451 3.57277C14.7711 3.77833 14.7966 3.95303 14.78 4.16856C14.7635 4.38411 14.6894 4.6341 14.6047 4.91041C14.52 5.1867 14.4235 5.48714 14.3977 5.82422C14.3718 6.16129 14.4324 6.54069 14.6451 6.88773C14.6697 6.9281 14.7013 6.96279 14.7382 6.98984C14.7751 7.0169 14.8166 7.0358 14.8602 7.04543C14.9038 7.05505 14.9488 7.05522 14.9925 7.04594C15.0361 7.03665 15.0777 7.0181 15.1148 6.99133C15.1518 6.96438 15.1836 6.92974 15.2082 6.88943C15.2329 6.84912 15.2501 6.80391 15.2587 6.75639C15.2673 6.70887 15.2672 6.65999 15.2584 6.61251C15.2496 6.56503 15.2323 6.51991 15.2074 6.47972C15.0814 6.27417 15.056 6.10234 15.0725 5.88681C15.089 5.67127 15.1631 5.42054 15.2478 5.14425C15.3325 4.86794 15.429 4.56534 15.4549 4.22827C15.4807 3.89119 15.4202 3.5118 15.2074 3.16475C15.176 3.11323 15.1332 3.07112 15.0829 3.04233C15.0326 3.01353 14.9765 2.99905 14.9196 3.00005ZM18.1481 3.00077C18.0891 3.00486 18.0321 3.02573 17.9827 3.06124C17.9456 3.08802 17.9137 3.12248 17.8888 3.16271C17.8639 3.20294 17.8466 3.24814 17.8378 3.29567C17.829 3.3432 17.8289 3.39212 17.8376 3.43968C17.8462 3.48724 17.8634 3.53249 17.8881 3.57281C18.0141 3.77837 18.0396 3.95307 18.0231 4.16861C18.0066 4.38415 17.9325 4.63486 17.8478 4.91117C17.7631 5.18747 17.6685 5.48719 17.6427 5.82426C17.6169 6.16135 17.6754 6.54073 17.8881 6.88778C17.9127 6.92814 17.9444 6.96283 17.9813 6.98989C18.0182 7.01694 18.0596 7.03585 18.1033 7.04547C18.1469 7.05509 18.1918 7.05526 18.2355 7.04598C18.2792 7.0367 18.3208 7.01814 18.3579 6.99137C18.3951 6.96465 18.4271 6.93019 18.452 6.88999C18.4769 6.84978 18.4943 6.8046 18.5032 6.75707C18.512 6.70954 18.5122 6.6606 18.5036 6.61302C18.495 6.56543 18.4778 6.52012 18.4531 6.47976C18.3271 6.2742 18.3016 6.10238 18.3182 5.88685C18.3347 5.67131 18.4062 5.42131 18.4908 5.14501C18.5755 4.8687 18.6721 4.56538 18.6979 4.22831C18.7237 3.89123 18.6658 3.51184 18.4531 3.16479C18.4283 3.12415 18.3962 3.08931 18.3588 3.06226C18.3215 3.03521 18.2795 3.0165 18.2355 3.00723C18.2068 3.00081 18.1774 2.99897 18.1481 3.00077ZM16.5346 4.65864C16.466 4.66182 16.3999 4.6876 16.345 4.73257C16.2902 4.77755 16.2493 4.83958 16.2276 4.91045C16.1429 5.18675 16.0457 5.48723 16.0198 5.8243C15.994 6.16136 16.0552 6.54073 16.2679 6.88778C16.3175 6.9685 16.3944 7.02467 16.4819 7.04407C16.5694 7.06346 16.6603 7.04453 16.735 6.99137C16.7722 6.96465 16.8042 6.93019 16.8292 6.88999C16.8541 6.84978 16.8715 6.80464 16.8803 6.75711C16.8892 6.70958 16.8893 6.66061 16.8807 6.61302C16.8721 6.56543 16.855 6.52017 16.8303 6.4798C16.7043 6.27423 16.6788 6.10238 16.6953 5.88685C16.7118 5.67131 16.786 5.42058 16.8706 5.14429C16.8849 5.09819 16.8907 5.04949 16.8875 5.00096C16.8844 4.95243 16.8725 4.90507 16.8524 4.86158C16.8324 4.8181 16.8046 4.77932 16.7707 4.74757C16.7368 4.71582 16.6975 4.6917 16.655 4.67657C16.6162 4.66273 16.5754 4.65668 16.5346 4.65864ZM13.8373 7.79084C12.9049 7.79084 12.1443 8.61802 12.1443 9.63214V10.7359H9.77389H5.7085C4.58842 10.7359 3.67547 11.7289 3.67547 12.9471V14.0538C3.67547 14.7066 3.93759 15.2969 4.35293 15.7015V18.1063C3.98055 18.1063 3.59607 18.2971 3.35527 18.6798C3.11447 19.0624 3 19.5973 3 20.3167C3 21.0361 3.11446 21.5689 3.35527 21.9515C3.59606 22.3342 3.98055 22.525 4.35293 22.525V22.8949C4.35293 23.5008 4.81333 23.9994 5.37043 23.9994H21.2913C21.8484 23.9994 22.3062 23.5008 22.3062 22.8949V22.525H22.6462C23.0186 22.525 23.4031 22.3342 23.6439 21.9515C23.8847 21.5689 23.9991 21.0361 23.9991 20.3167C23.9991 19.5973 23.8847 19.0624 23.6439 18.6798C23.4031 18.2971 23.0186 18.1063 22.6462 18.1063H20.9512V17.3687H22.3062C23.2386 17.3687 23.9991 16.5394 23.9991 15.5252V12.5801C23.9991 11.566 23.2386 10.7359 22.3062 10.7359H20.9512V9.63214C20.9512 8.61802 20.1907 7.79084 19.2583 7.79084H13.8373ZM13.8373 8.52762H19.2583C19.8271 8.52762 20.2731 9.01348 20.2731 9.63214V18.4732C20.2731 19.0919 19.8271 19.5799 19.2583 19.5799H15.3503C15.6732 19.1883 15.8703 18.6718 15.8703 18.1063V15.7044C16.2869 15.2997 16.5478 14.7081 16.5478 14.0538V12.9471C16.5478 11.7289 15.6348 10.7359 14.5148 10.7359H12.8218V9.63214C12.8218 9.01348 13.2685 8.52762 13.8373 8.52762ZM11.2869 11.4727H14.5148C15.2713 11.4727 15.8703 12.1243 15.8703 12.9471V14.0538C15.8703 14.5301 15.669 14.9454 15.353 15.2144C15.3311 15.2294 15.3109 15.247 15.2928 15.2669C15.2928 15.2669 14.7029 15.8951 13.8373 15.8951C13.7479 15.8954 13.6623 15.9342 13.5991 16.003C13.5359 16.0717 13.5002 16.1648 13.4999 16.262C13.4997 16.3104 13.5083 16.3584 13.5252 16.4032C13.542 16.4479 13.5668 16.4886 13.5982 16.523C13.6295 16.5573 13.6667 16.5846 13.7078 16.6033C13.7488 16.622 13.7928 16.6317 13.8373 16.6319C14.3925 16.6319 14.8572 16.4405 15.1922 16.2397V18.1062C15.1922 18.929 14.5938 19.5799 13.8373 19.5799H10.6095C10.9323 19.1883 11.1295 18.6718 11.1295 18.1062V15.7015C11.5448 15.2968 11.8069 14.7066 11.8069 14.0538V12.9471C11.8069 12.3815 11.6098 11.8643 11.2869 11.4727ZM20.9512 11.4727H22.3062C22.875 11.4727 23.3237 11.9615 23.3237 12.5801V15.5252C23.3237 16.1439 22.875 16.6319 22.3062 16.6319H20.9512V15.8951H21.6287C22.1859 15.8951 22.6462 15.3966 22.6462 14.7906V13.317C22.6462 12.7109 22.1859 12.2103 21.6287 12.2103H20.9512V11.4727ZM5.7085 11.4735H9.77389C10.5304 11.4735 11.1295 12.1243 11.1295 12.9471V14.0538C11.1295 14.5418 10.9164 14.9663 10.587 15.2346C10.5365 15.2756 10.4976 15.3312 10.4745 15.395C10.4515 15.4588 10.4453 15.5283 10.4566 15.5958H10.4514V18.1063C10.4514 18.929 9.85291 19.5799 9.09644 19.5799H6.38596C5.62949 19.5799 5.03039 18.929 5.03039 18.1063V15.5634H5.02971C5.03504 15.5007 5.0255 15.4375 5.00198 15.3799C4.97847 15.3223 4.94178 15.2723 4.89541 15.2346C4.56598 14.9663 4.35292 14.5418 4.35292 14.0538V12.9471C4.35292 12.1243 4.952 11.4735 5.7085 11.4735ZM5.7085 12.2103C5.66396 12.2104 5.61988 12.2201 5.57877 12.2387C5.53766 12.2574 5.50034 12.2846 5.46894 12.319C5.43754 12.3533 5.41267 12.3941 5.39577 12.4389C5.37887 12.4837 5.37026 12.5317 5.37043 12.5801C5.37078 12.6775 5.40653 12.7707 5.46987 12.8395C5.53322 12.9082 5.61901 12.9469 5.7085 12.9471H6.04855C6.13793 12.9467 6.22355 12.908 6.28675 12.8392C6.34995 12.7705 6.38561 12.6774 6.38595 12.5801C6.38613 12.5318 6.37754 12.4838 6.36068 12.4391C6.34382 12.3943 6.31901 12.3536 6.28768 12.3192C6.25635 12.2849 6.21911 12.2576 6.17808 12.2389C6.13705 12.2202 6.09303 12.2105 6.04855 12.2103H5.7085ZM20.9512 12.9471H21.6287C21.8198 12.9471 21.9688 13.1092 21.9688 13.317V14.7906C21.9688 14.9985 21.8198 15.1583 21.6287 15.1583H20.9512V12.9471ZM6.38595 13.317C6.29658 13.3173 6.21096 13.3561 6.14776 13.4249C6.08456 13.4936 6.0489 13.5867 6.04855 13.6839C6.04838 13.7323 6.05696 13.7802 6.07383 13.825C6.09069 13.8698 6.11549 13.9105 6.14682 13.9448C6.17815 13.9792 6.2154 14.0065 6.25643 14.0252C6.29746 14.0439 6.34147 14.0536 6.38595 14.0538H6.72601C6.77049 14.0536 6.8145 14.0439 6.85553 14.0252C6.89656 14.0065 6.93381 13.9792 6.96514 13.9448C6.99647 13.9105 7.02127 13.8698 7.03813 13.825C7.05499 13.7802 7.06358 13.7323 7.06341 13.6839C7.06306 13.5867 7.0274 13.4936 6.9642 13.4249C6.901 13.3561 6.81538 13.3173 6.72601 13.317H6.38595ZM19.2583 14.7906C19.2137 14.7904 19.1696 14.7998 19.1284 14.8182C19.0872 14.8365 19.0497 14.8636 19.0181 14.8978C18.9865 14.9319 18.9615 14.9725 18.9443 15.0172C18.9272 15.0619 18.9183 15.1099 18.9182 15.1583V18.1063C18.9184 18.1547 18.9273 18.2026 18.9445 18.2472C18.9617 18.2918 18.9868 18.3323 19.0184 18.3664C19.0499 18.4004 19.0874 18.4274 19.1285 18.4457C19.1697 18.4641 19.2138 18.4734 19.2583 18.4732C19.3476 18.4729 19.4333 18.4341 19.4965 18.3654C19.5597 18.2966 19.5953 18.2035 19.5957 18.1063V15.1583C19.5955 15.061 19.5599 14.9677 19.4967 14.8988C19.4335 14.8299 19.3478 14.791 19.2583 14.7906ZM12.8218 16.9989C12.7773 16.9991 12.7333 17.0088 12.6923 17.0275C12.6512 17.0462 12.614 17.0735 12.5827 17.1078C12.5513 17.1422 12.5265 17.1829 12.5097 17.2276C12.4928 17.2724 12.4842 17.3204 12.4844 17.3688C12.4846 17.4661 12.5201 17.5594 12.5834 17.6283C12.6466 17.6972 12.7323 17.7361 12.8218 17.7365H13.1618C13.2514 17.7363 13.3373 17.6974 13.4007 17.6285C13.464 17.5596 13.4997 17.4662 13.4999 17.3688C13.5001 17.3203 13.4915 17.2723 13.4746 17.2275C13.4577 17.1827 13.4328 17.1419 13.4014 17.1076C13.37 17.0732 13.3327 17.0459 13.2916 17.0273C13.2505 17.0086 13.2064 16.999 13.1618 16.9989H12.8218ZM13.6699 18.1063C13.6254 18.1061 13.5814 18.1154 13.5402 18.1338C13.499 18.1521 13.4616 18.1791 13.43 18.2132C13.3984 18.2473 13.3733 18.2878 13.3562 18.3324C13.339 18.377 13.33 18.4249 13.3299 18.4732C13.3297 18.5219 13.3384 18.57 13.3554 18.615C13.3724 18.66 13.3975 18.7008 13.4291 18.7352C13.4607 18.7696 13.4983 18.7968 13.5396 18.8154C13.5809 18.8339 13.6252 18.8433 13.6699 18.8431H14.0073C14.052 18.8433 14.0963 18.8339 14.1377 18.8154C14.179 18.7968 14.2166 18.7696 14.2482 18.7352C14.2798 18.7008 14.3048 18.66 14.3218 18.615C14.3389 18.57 14.3476 18.5219 14.3474 18.4732C14.3472 18.4249 14.3383 18.377 14.3211 18.3324C14.3039 18.2878 14.2788 18.2473 14.2472 18.2132C14.2157 18.1791 14.1782 18.1521 14.1371 18.1338C14.0959 18.1154 14.0518 18.1061 14.0073 18.1063H13.6699ZM4.35293 18.8431H4.46936C4.74929 19.7007 5.50325 20.3168 6.38595 20.3168H9.09644H13.8373H19.2583C20.0741 20.3168 20.7586 19.6813 20.9168 18.8431H22.6462C22.8368 18.8431 22.9576 18.8945 23.0842 19.0957C23.2107 19.2968 23.3237 19.6871 23.3237 20.3168C23.3237 20.9464 23.2107 21.3346 23.0842 21.5357C22.9576 21.7368 22.8368 21.7882 22.6462 21.7882H4.35293C4.16234 21.7882 4.04217 21.7368 3.91562 21.5357C3.78907 21.3346 3.67547 20.9464 3.67547 20.3168C3.67547 19.6871 3.78907 19.2968 3.91562 19.0957C4.04217 18.8946 4.16234 18.8431 4.35293 18.8431ZM5.03038 22.525H21.6287V22.8949C21.6287 23.1053 21.4848 23.2626 21.2913 23.2626H5.37043C5.17692 23.2626 5.03038 23.1053 5.03038 22.8949V22.525Z" fill="black"/>
</svg>
