<svg width="14" height="15" viewBox="0 0 14 15" fill="none" xmlns="http://www.w3.org/2000/svg">
<path d="M0 12.0078C0 13.1978 0.91 14.1078 2.1 14.1078H11.9C13.09 14.1078 14 13.1978 14 12.0078V6.40785H0V12.0078ZM11.9 1.50785H10.5V0.807849C10.5 0.387849 10.22 0.107849 9.8 0.107849C9.38 0.107849 9.1 0.387849 9.1 0.807849V1.50785H4.9V0.807849C4.9 0.387849 4.62 0.107849 4.2 0.107849C3.78 0.107849 3.5 0.387849 3.5 0.807849V1.50785H2.1C0.91 1.50785 0 2.41785 0 3.60785V5.00785H14V3.60785C14 2.41785 13.09 1.50785 11.9 1.50785Z" fill="#4E4E4E"/>
</svg>
