<svg width="8" height="8" viewBox="0 0 8 8" fill="none" xmlns="http://www.w3.org/2000/svg">
<path d="M0.22364 0.22364C0.36688 0.0804433 0.561128 0 0.763669 0C0.96621 0 1.16046 0.0804433 1.3037 0.22364L4.00461 2.92455L6.70552 0.22364C6.84958 0.0845015 7.04253 0.0075115 7.2428 0.00925183C7.44308 0.0109922 7.63466 0.0913237 7.77628 0.232944C7.9179 0.374565 7.99823 0.566144 7.99997 0.766418C8.00171 0.966693 7.92472 1.15964 7.78558 1.3037L5.08467 4.00461L7.78558 6.70552C7.92472 6.84958 8.00171 7.04253 7.99997 7.2428C7.99823 7.44308 7.9179 7.63466 7.77628 7.77628C7.63466 7.9179 7.44308 7.99823 7.2428 7.99997C7.04253 8.00171 6.84958 7.92472 6.70552 7.78558L4.00461 5.08467L1.3037 7.78558C1.15964 7.92472 0.966693 8.00171 0.766418 7.99997C0.566144 7.99823 0.374565 7.9179 0.232944 7.77628C0.0913237 7.63466 0.0109922 7.44308 0.00925183 7.2428C0.0075115 7.04253 0.0845015 6.84958 0.22364 6.70552L2.92455 4.00461L0.22364 1.3037C0.0804433 1.16046 0 0.96621 0 0.763669C0 0.561128 0.0804433 0.36688 0.22364 0.22364Z" fill="white"/>
</svg>
