<svg width="7" height="7" viewBox="0 0 7 7" fill="none" xmlns="http://www.w3.org/2000/svg">
<path fill-rule="evenodd" clip-rule="evenodd" d="M0.140825 6.18081C-0.0465691 6.36825 -0.0465403 6.67207 0.140883 6.85946C0.328306 7.04685 0.632148 7.04685 0.819538 6.85941L3.4998 4.17869L6.18028 6.85917C6.36768 7.04657 6.67154 7.04657 6.85893 6.85917C7.04633 6.67178 7.04633 6.36792 6.85893 6.18052L4.1784 3.49999L6.85874 0.819183C7.04609 0.63176 7.04609 0.327917 6.85864 0.140528C6.67125 -0.0468665 6.36739 -0.0468378 6.17999 0.140585L3.4997 2.82134L0.819212 0.140816C0.631808 -0.0465882 0.32796 -0.0465882 0.140556 0.140816C-0.0468522 0.328224 -0.0468522 0.632067 0.140556 0.819476L2.82115 3.50004L0.140825 6.18081Z" fill="white"/>
</svg>
