<svg width="24" height="24" viewBox="0 0 24 24" fill="none" xmlns="http://www.w3.org/2000/svg">
<path d="M23.9985 11.5002H20.2891C20.2891 9.34837 19.4174 7.40092 18.0078 5.99134L20.6304 3.36914C22.7114 5.44976 23.9985 8.32457 23.9985 11.5002Z" fill="#F6BB42"/>
<path d="M20.2891 11.5H23.9985C23.9985 14.6716 22.7151 17.5464 20.6304 19.627L18.0078 17.0081C19.4174 15.5989 20.2891 13.6515 20.2891 11.5Z" fill="#8CC152"/>
<path d="M20.6301 19.6283V19.6323C18.5491 21.7129 15.678 23.0005 12.499 23.0005V19.2911C14.6505 19.2911 16.5979 18.419 18.0075 17.0098L20.6301 19.6283Z" fill="#37BC9B"/>
<path d="M20.6301 3.36816L18.0075 5.99036C16.5979 4.58114 14.6505 3.70943 12.499 3.70943V0C15.678 0 18.5491 1.28717 20.6301 3.36816Z" fill="#E9573F"/>
<path d="M20.2886 11.4968H16.5829H16.5792C16.5792 10.3691 16.1229 9.34902 15.3848 8.61085L18.007 5.98828C19.4169 7.39749 20.2886 9.34494 20.2886 11.4968Z" fill="#FFCE54"/>
<path d="M15.385 14.3848L18.0072 17.0073C16.5979 18.4169 14.6505 19.289 12.499 19.289V15.5796C13.6267 15.5796 14.6468 15.1233 15.385 14.3848Z" fill="#48CFAD"/>
<path d="M12.4992 19.2911V23.0005C9.32396 23.0005 6.44915 21.7129 4.36816 19.6323L6.99073 17.0098C8.40031 18.419 10.3515 19.2911 12.4992 19.2911Z" fill="#4A89DC"/>
<path d="M12.4987 15.5792V19.2886C10.351 19.2886 8.39982 18.4165 6.99023 17.0073L9.61243 14.3848C10.351 15.1229 11.3748 15.5792 12.4987 15.5792Z" fill="#5D9CEC"/>
<path d="M12.4993 3.70898V7.41841C11.3754 7.41841 10.3553 7.8743 9.61712 8.61285H9.61341L6.99121 5.99028C8.40042 4.5807 10.3516 3.70898 12.4993 3.70898Z" fill="#ED5565"/>
<path d="M6.99073 17.0085L4.36816 19.6311C2.28717 17.5501 1 14.6753 1 11.5H4.70943C4.70943 13.6515 5.58114 15.5989 6.99073 17.0085Z" fill="#967ADC"/>
<path d="M16.5835 11.5H20.2892C20.2892 13.6515 19.4175 15.5989 18.0079 17.0085L15.3857 14.3859C16.1235 13.6478 16.5798 12.6236 16.5798 11.5H16.5835Z" fill="#A0D468"/>
<path d="M6.99028 5.98828L9.61248 8.61085C8.87467 9.34939 8.41841 10.3695 8.41841 11.4972H4.70898C4.70898 9.34531 5.5807 7.39786 6.99028 5.98828Z" fill="#EC87C0"/>
<path d="M9.61285 14.3856L6.99065 17.0081C5.5807 15.5989 4.70898 13.6515 4.70898 11.5H8.41841C8.41841 12.6236 8.87467 13.6478 9.61285 14.3856Z" fill="#AC92EC"/>
<path d="M4.36816 3.36914L6.99073 5.99134C5.58114 7.40092 4.70943 9.34837 4.70943 11.5002H1C1 8.32457 2.28717 5.44976 4.36816 3.36914Z" fill="#D770AD"/>
<path d="M18.0075 5.98991L15.3853 8.61248C14.6468 7.8743 13.6267 7.41841 12.499 7.41841V3.70898C14.6505 3.70898 16.5979 4.5807 18.0075 5.98991Z" fill="#FC6E51"/>
<path d="M12.4992 0V3.70943C10.3515 3.70943 8.40031 4.58114 6.99073 5.99036L4.36816 3.36816C6.44915 1.28717 9.32396 0 12.4992 0Z" fill="#DA4453"/>
</svg>
