<svg width="35" height="35" viewBox="0 0 35 35" fill="none" xmlns="http://www.w3.org/2000/svg">
<path d="M2.44507 24.6574C2.24365 20.8125 3.2457 17.3466 5.68787 14.3347C8.11796 11.3385 11.3003 9.55729 15.1856 8.89464C15.0648 8.17784 14.946 7.47876 14.8291 6.77869C14.7828 6.50004 14.7284 6.2214 14.7033 5.93979C14.6765 5.69443 14.7032 5.4463 14.7816 5.21174C14.8599 4.97717 14.9882 4.76148 15.1578 4.57883C15.3275 4.39617 15.5349 4.2507 15.7662 4.15197C15.9975 4.05325 16.2475 4.0035 16.4999 4.006C17.1404 3.99615 17.7809 4.00009 18.4224 4.006C19.6601 4.01486 20.4779 4.97683 20.2674 6.17216C20.1284 6.95986 19.9924 7.74756 19.8595 8.53525C19.8414 8.64258 19.8374 8.75187 19.8273 8.86806L22.4689 9.51495C21.3208 11.1169 20.8877 12.8134 21.2412 14.6724C21.5001 16.064 22.2241 17.3322 23.2997 18.2781C25.2826 20.0602 28.6997 20.7652 31.7501 18.6867C32.407 20.6102 32.6881 22.6373 32.5789 24.6624L2.44507 24.6574ZM4.98694 21.5815C4.98694 21.9212 5.14405 22.1348 5.4643 22.2156C5.61398 22.244 5.76912 22.2169 5.89946 22.1395C6.02979 22.0621 6.12598 21.9401 6.16925 21.7971C6.19893 21.6905 6.22247 21.5824 6.23975 21.4732C6.8863 18.2357 8.63862 15.7358 11.4715 13.9585C11.8532 13.7183 11.96 13.4022 11.7656 13.095C11.5712 12.7878 11.2117 12.7406 10.8169 12.9838C8.72998 14.2492 7.06581 16.0823 6.02826 18.2584C5.52246 19.3125 5.17187 20.4313 4.98694 21.5815Z" fill="#5D9D50"/>
<path d="M17.5011 25.8656H34.1179C34.831 25.8656 34.9981 26.031 34.9981 26.7379C34.9981 27.0954 34.9891 27.4518 34.9981 27.8082C35.0084 27.9498 34.9763 28.0913 34.9059 28.2154C34.8354 28.3395 34.7296 28.4409 34.6013 28.5073C33.8742 28.9455 33.1592 29.4013 32.4261 29.8287C32.2428 29.9343 32.0345 29.9913 31.8218 29.9941C22.2747 30.002 12.7279 30.002 3.18143 29.9941C2.97069 29.9915 2.76424 29.9355 2.58222 29.8316C1.84906 29.4053 1.13504 28.9455 0.405912 28.5122C0.27295 28.4427 0.16386 28.3364 0.0922287 28.2067C0.0205978 28.0769 -0.0104065 27.9295 0.00307951 27.7826C0.0171786 27.4016 0.00307951 27.0195 0.00307951 26.6385C0.00307951 26.0605 0.204498 25.8656 0.795655 25.8656H17.49H17.5011Z" fill="#5D9D50"/>
<path d="M33.1893 13.4741C33.1871 14.1731 33.0439 14.8648 32.7679 15.5096C32.492 16.1544 32.0887 16.7397 31.5812 17.232C31.0736 17.7243 30.4718 18.1139 29.8101 18.3786C29.1484 18.6432 28.4398 18.7777 27.7249 18.7743C24.7691 18.7684 22.333 16.3748 22.334 13.4781C22.334 10.5242 24.7691 8.13157 27.7601 8.14044C28.475 8.1416 29.1826 8.28054 29.8424 8.54931C30.5023 8.81807 31.1015 9.2114 31.6058 9.70678C32.11 10.2022 32.5094 10.7899 32.7811 11.4363C33.0529 12.0828 33.1916 12.7752 33.1893 13.4741ZM25.6483 12.9523L24.752 13.7577C25.2827 14.3248 25.7852 14.8703 26.2968 15.4079C26.6372 15.7663 26.9263 15.7781 27.3039 15.4463C27.8639 14.954 28.4117 14.4509 28.9686 13.9527L30.7814 12.328L29.9666 11.4635L26.8628 14.251L25.6483 12.9523Z" fill="#5D9D50"/>
</svg>
