<svg width="27" height="27" viewBox="0 0 27 27" fill="none" xmlns="http://www.w3.org/2000/svg">
<path d="M4.50977 13.8262C4.50977 14.2468 4.68315 14.6298 4.96396 14.9068C5.24451 15.1838 5.63248 15.3552 6.06112 15.3552H20.9396C21.7942 15.3552 22.4883 14.67 22.4883 13.8262C22.4883 13.4029 22.3149 13.0199 22.0341 12.7429C21.848 12.5591 21.6183 12.4229 21.358 12.3524V11.8787C21.358 7.80761 18.0155 4.50488 13.8894 4.50488H13.0498C8.92397 4.50488 5.58112 7.80761 5.58112 11.8787V12.3699C4.95901 12.5689 4.50977 13.1458 4.50977 13.8262Z" fill="#FFEAA7"/>
<path d="M4.36769 13.8087C4.34475 14.6729 5.10765 15.3782 5.98293 15.3782H7.66179C7.66179 15.3782 7.65918 15.3656 7.65657 15.343H19.2845C19.2792 15.3556 19.2792 15.3631 19.2792 15.3631H20.9581C21.8334 15.3631 22.5963 14.6577 22.5733 13.7935C22.5632 13.3855 22.3921 13.0203 22.1191 12.7507C21.933 12.5669 21.7033 12.4308 21.4431 12.3602V11.8866C21.4431 7.81285 18.1005 4.5127 13.9744 4.5127H13.1348C13.1552 4.51784 13.1781 4.52273 13.1987 4.52788H12.9664C8.8403 4.52788 5.49771 7.83061 5.49771 11.9018V12.3754C5.2375 12.4459 5.00779 12.5819 4.82163 12.7659C4.5489 13.0354 4.37786 13.4007 4.36769 13.8087ZM9.16282 13.0102C8.27529 13.0102 7.60286 12.2238 7.74679 11.3591C7.83126 10.8522 7.95016 10.3271 8.11624 9.80324C9.75182 4.63626 17.2127 4.64398 18.8331 9.81586C18.9974 10.3371 19.115 10.8584 19.1982 11.3614C19.341 12.2253 18.6683 13.0102 17.7819 13.0102H9.16282Z" fill="#FCD770"/>
<path d="M5.59925 15.9883L8.34124 21.8795C8.5946 22.4235 9.32944 22.7924 10.1597 22.7924H16.6131C17.4434 22.7924 18.1783 22.4232 18.4316 21.8795L21.1736 15.9883C21.3223 15.6687 20.9758 15.3418 20.4879 15.3418H6.28498C5.79707 15.3418 5.45054 15.6687 5.59925 15.9883Z" fill="#E6E9ED"/>
<path d="M7.36502 21.7644L5.53703 16.1276C5.44108 15.8311 5.49453 15.5041 5.68043 15.2529C5.86633 15.0016 6.16539 14.8516 6.48062 14.8516H20.5166C20.8319 14.8516 21.1309 15.0016 21.3168 15.2531C21.5027 15.5046 21.5562 15.8316 21.46 16.1279L19.6317 21.7644C19.3944 22.4965 18.7121 22.9882 17.9333 22.9882H9.06318C8.28489 22.9882 7.60255 22.4965 7.36502 21.7644ZM6.52155 15.8591L8.33704 21.457C8.43846 21.7701 8.73048 21.9804 9.06318 21.9804H17.9333C18.2663 21.9804 18.558 21.7701 18.6594 21.457L20.4749 15.8591H6.52155Z" fill="black"/>
<path d="M21.3595 12.807H20.2031C19.9153 12.807 19.6816 12.5764 19.6816 12.2922C19.6816 12.008 19.9153 11.7773 20.2031 11.7773H21.3595C21.6473 11.7773 21.8809 12.008 21.8809 12.2922C21.8809 12.5766 21.6476 12.807 21.3595 12.807Z" fill="black"/>
<path d="M6.7674 12.8861H5.61131C5.32346 12.8861 5.08984 12.6555 5.08984 12.3713C5.08984 12.0871 5.32346 11.8564 5.61131 11.8564H6.76766C7.05551 11.8564 7.28912 12.0871 7.28912 12.3713C7.28886 12.6555 7.05551 12.8861 6.7674 12.8861Z" fill="black"/>
<path d="M10.8811 22.9989C10.6313 22.9989 10.4108 22.8216 10.3675 22.5703L9.60901 18.1612C9.56077 17.8808 9.75189 17.6149 10.0358 17.5673C10.3219 17.5181 10.5888 17.7086 10.6373 17.9887L11.3958 22.3978C11.444 22.6782 11.2529 22.9441 10.969 22.9917C10.9393 22.9966 10.9098 22.9989 10.8811 22.9989Z" fill="black"/>
<path d="M16.1257 22.9988C16.0967 22.9988 16.0672 22.9965 16.0378 22.9916C15.7538 22.944 15.5627 22.678 15.611 22.3977L16.3697 17.9886C16.4182 17.7082 16.687 17.5185 16.9712 17.5672C17.2551 17.6148 17.4463 17.8807 17.398 18.1611L16.6393 22.5702C16.596 22.8212 16.3754 22.9988 16.1257 22.9988Z" fill="black"/>
<path d="M13.5 22.8677C13.2121 22.8677 12.9785 22.637 12.9785 22.3528V17.7141C12.9785 17.4299 13.2121 17.1992 13.5 17.1992C13.7878 17.1992 14.0214 17.4299 14.0214 17.7141V22.3531C14.0214 22.6373 13.7881 22.8677 13.5 22.8677Z" fill="black"/>
<path d="M15.4834 12.8861H11.5195C11.2317 12.8861 10.998 12.6555 10.998 12.3713C10.998 12.0871 11.2317 11.8564 11.5195 11.8564H15.4834C15.7713 11.8564 16.0049 12.0871 16.0049 12.3713C16.0049 12.6555 15.7715 12.8861 15.4834 12.8861Z" fill="black"/>
<path d="M8.31704 9.70509C8.44375 9.70509 8.57021 9.65746 8.66694 9.56196L8.97252 9.26026C9.16572 9.06951 9.16572 8.76009 8.97226 8.5696C8.7788 8.3791 8.46566 8.3791 8.27271 8.56985L7.96714 8.87155C7.77393 9.0623 7.77393 9.37172 7.9674 9.56222C8.06387 9.6572 8.19032 9.70509 8.31704 9.70509Z" fill="#DFB28B"/>
<path d="M11.5172 10.9495C11.6436 10.9495 11.7704 10.9018 11.8668 10.8063C12.06 10.6156 12.06 10.3064 11.8668 10.1157L11.5612 9.81396C11.368 9.62321 11.0549 9.62321 10.8617 9.81396C10.6685 10.0047 10.6685 10.3139 10.8617 10.5046L11.1673 10.8063C11.264 10.9018 11.3907 10.9495 11.5172 10.9495Z" fill="#DFB28B"/>
<path d="M18.6812 9.68751C18.5545 9.68751 18.428 9.63988 18.3313 9.54438L18.0257 9.24268C17.8325 9.05193 17.8325 8.74251 18.026 8.55202C18.2195 8.36152 18.5326 8.36152 18.7255 8.55227L19.0311 8.85397C19.2243 9.04472 19.2243 9.35415 19.0309 9.54464C18.9344 9.63963 18.8079 9.68751 18.6812 9.68751Z" fill="#DFB28B"/>
<path d="M15.4809 10.9328C15.3544 10.9328 15.2277 10.8852 15.1312 10.7897C14.938 10.599 14.938 10.2898 15.1312 10.0991L15.4368 9.79736C15.63 9.60661 15.9432 9.60661 16.1364 9.79736C16.3296 9.98811 16.3296 10.2973 16.1364 10.488L15.8308 10.7897C15.734 10.8852 15.6073 10.9328 15.4809 10.9328Z" fill="#DFB28B"/>
<path d="M14.1485 7.41718C14.1485 7.54203 14.1003 7.66713 14.0035 7.76238C13.8103 7.95313 13.4972 7.95313 13.304 7.76238L12.9984 7.46068C12.8052 7.26993 12.8052 6.96077 12.9984 6.77002C13.1916 6.57927 13.5048 6.57927 13.698 6.77002L14.0035 7.07171C14.1 7.16722 14.1485 7.29207 14.1485 7.41718Z" fill="#DFB28B"/>
<path d="M4.60386 15.262C4.21432 14.8776 4 14.3674 4 13.825C4 13.0685 4.41822 12.3904 5.07161 12.0393V11.8776C5.07161 7.5339 8.65095 4 13.0505 4H13.8901C18.2897 4 21.869 7.5339 21.869 11.8776V12.0084C22.0622 12.1049 22.2403 12.2321 22.3957 12.3855C22.785 12.7699 22.9993 13.2811 22.9993 13.825C22.9993 14.9461 22.0755 15.8579 20.9403 15.8579H6.06161C5.51042 15.8579 4.99261 15.6463 4.60386 15.262ZM13.0505 5.00781C9.21387 5.00781 6.09238 8.08967 6.09238 11.8776V12.7354L5.73935 12.8484C5.3094 12.9858 5.02077 13.3784 5.02077 13.825C5.02077 14.0982 5.12897 14.3553 5.32556 14.5497C5.5219 14.7438 5.78341 14.8504 6.06187 14.8504H20.9403C21.5129 14.8504 21.9788 14.3903 21.9788 13.825C21.9788 13.5501 21.8706 13.2919 21.6743 13.0981C21.5457 12.9712 21.394 12.8834 21.2237 12.8371L20.8488 12.7354V11.8776C20.8488 8.08967 17.7273 5.00781 13.8904 5.00781H13.0505Z" fill="black"/>
</svg>
