<svg width="27" height="27" viewBox="0 0 27 27" fill="none" xmlns="http://www.w3.org/2000/svg">
<path d="M13.2652 3.87208C7.73233 3.8634 3.14271 8.67124 3.00291 14.4239C2.8623 20.2105 7.83328 24.9268 13.2586 24.9994C18.7116 25.0724 23.5071 19.9879 23.5241 14.4375C23.5412 8.88952 18.8089 3.8812 13.2652 3.87208Z" fill="#E6E9ED"/>
<path d="M13.2675 7.93698C9.84582 7.89392 7.01459 10.9271 6.95404 14.4267C6.89308 17.9502 9.88403 20.8442 13.251 20.9301C16.6512 21.0167 19.569 17.8927 19.5711 14.4335C19.5729 10.9773 16.6811 7.97993 13.2675 7.93698Z" fill="#EEEEEE"/>
<path d="M13.2595 8.85584C16.1659 8.89247 18.682 11.5126 18.6804 14.4335C18.6787 17.3515 16.1221 20.0838 13.2759 20.0112C10.3966 19.9378 7.79699 17.4153 7.84841 14.4437C7.90022 11.4483 10.361 8.81944 13.2595 8.85584Z" fill="#FCD770"/>
<path d="M11.864 12.7422C11.8049 12.7414 11.7462 12.7527 11.6914 12.7754C11.6365 12.7981 11.5866 12.8318 11.5445 12.8745L5.88648 18.6997C5.27307 19.3312 5.33424 20.2436 5.80745 20.7307C6.28067 21.2179 7.16679 21.2809 7.7802 20.6493L13.4317 14.8309C13.5152 14.7453 13.5624 14.6291 13.5631 14.5078C13.5637 14.3864 13.5177 14.2698 13.4351 14.1833L12.1803 12.8779C12.1388 12.8349 12.0896 12.8008 12.0353 12.7776C11.9811 12.7543 11.9229 12.7423 11.8641 12.7423L11.864 12.7422Z" fill="#EEEEEE"/>
<path d="M20.0859 2.13542C20.0022 2.04879 19.8883 2 19.7696 2C19.6508 2.00002 19.537 2.04879 19.4533 2.13542L15.9826 5.70954C15.495 6.21148 15.2219 6.89172 15.2219 7.60157C15.2615 8.32367 15.1625 9.13638 14.7208 9.60483L12.8073 11.5785C12.6319 11.7581 12.6319 12.0502 12.8073 12.2298L14.0751 13.5216C14.2492 13.6997 14.5302 13.6997 14.7043 13.5216L16.6143 11.5552C17.2632 11.0163 17.7807 11.0393 18.561 11.0393C19.2505 11.0393 19.9147 10.7581 20.4022 10.2561L23.8703 6.682C24.0427 6.50293 24.0427 6.21426 23.8703 6.03521" fill="#EEEEEE"/>
<path d="M11.4165 13.0089L12.545 14.1832C12.717 14.3634 12.7154 14.6528 12.5414 14.831L6.89053 20.6488C6.70876 20.8359 6.50284 20.9623 6.29102 21.0345C6.75923 21.1982 7.34169 21.103 7.78282 20.6488L13.4337 14.831C13.6077 14.6528 13.6093 14.3634 13.4373 14.1832L12.1825 12.8779L11.4165 13.0089Z" fill="#2F414D"/>
<path d="M5.5215 4.13978C4.87208 4.14499 4.24458 4.37616 3.76612 4.86877C3.72448 4.91146 3.69145 4.96218 3.66891 5.01804C3.64637 5.0739 3.63477 5.13379 3.63477 5.19428C3.63477 5.25477 3.64637 5.31466 3.66891 5.37052C3.69145 5.42638 3.72448 5.4771 3.76612 5.51979L18.4646 20.649C19.078 21.2806 19.9608 21.2176 20.434 20.7304C20.9072 20.2433 20.9717 19.331 20.3583 18.6994L13.2314 11.3653C12.8429 10.9653 12.599 10.653 12.599 10.2566V9.49367C12.599 9.08922 12.4485 8.74243 12.2598 8.47307C12.0711 8.20373 11.8495 7.99298 11.6538 7.79154C10.3656 6.4653 8.92081 5.30117 7.54035 4.65516C6.85013 4.33216 6.17092 4.13386 5.5215 4.13978Z" fill="#FFEAA7"/>
<path d="M19.4538 2.13589L17.0479 4.61374C15.8771 4.13545 14.6009 3.87182 13.2661 3.87182C11.5119 3.87182 9.85634 4.32411 8.41082 5.1242C6.45853 3.95094 4.78075 3.92702 3.76811 4.86852C3.59278 5.04811 3.59278 5.34025 3.76811 5.51982L5.60236 7.40825C3.98615 9.27521 3.0039 11.739 3.00391 14.4345C3.00391 16.0838 3.37182 17.6499 4.02778 19.0421C4.13634 19.2692 4.40289 19.363 4.62381 19.252C4.84471 19.1405 4.93632 18.8661 4.82858 18.6384C4.22989 17.3678 3.8962 15.9434 3.8962 14.4345C3.8962 11.9874 4.77952 9.75935 6.23585 8.05955L8.40471 10.2916C7.50004 11.4161 6.95561 12.8616 6.95562 14.4336C6.95561 15.3629 7.14552 16.2519 7.48803 17.0532L5.88904 18.6994C5.27563 19.3309 5.33653 20.2433 5.80976 20.7305C6.28297 21.2177 7.16914 21.2804 7.78256 20.6489L9.08876 19.3041C10.2016 20.3157 11.6672 20.9305 13.2661 20.9305C14.7935 20.9305 16.1979 20.3705 17.2902 19.4386L18.4665 20.6489C19.08 21.2804 19.9627 21.2176 20.4359 20.7305C20.9091 20.2433 20.9735 19.3309 20.36 18.6994L18.9519 17.2496C19.3503 16.3974 19.5723 15.4419 19.5723 14.4345C19.5723 13.1909 19.2334 12.0259 18.6434 11.0371C19.3034 11.0157 19.9346 10.7386 20.4027 10.2566L21.2471 9.38642C22.125 10.8548 22.6326 12.5808 22.6326 14.4336C22.6326 16.1544 22.1955 17.7665 21.4301 19.1641C21.3085 19.386 21.3855 19.6674 21.6018 19.7912C21.8162 19.9141 22.0869 19.8354 22.2074 19.6153C23.0458 18.0844 23.5249 16.3146 23.5249 14.4336C23.5249 12.3299 22.9257 10.3666 21.8945 8.71893L23.8708 6.68248C24.0433 6.50343 24.0433 6.21473 23.8708 6.03566C23.6389 5.82402 23.4083 5.88948 23.2417 6.03566L19.7701 9.60531C19.4497 9.9352 19.0147 10.1211 18.5615 10.1211C17.6991 10.0086 16.8393 10.1019 15.9831 10.9079L14.3859 12.5514L13.755 11.9028L15.354 10.2566C16.2307 9.38161 16.1147 8.64989 16.1147 7.60202C16.1147 7.13546 16.2944 6.68762 16.6149 6.35772L20.0864 2.78719C20.2618 2.60762 20.2618 2.31547 20.0864 2.13589C19.8668 1.9366 19.6314 1.99336 19.4538 2.13589ZM20.7156 3.43492L17.2475 7.00815C17.0721 7.18772 17.0721 7.47989 17.2475 7.65945C17.4215 7.8376 17.7026 7.8376 17.8766 7.65945L21.3482 4.08532C21.5229 3.90585 21.5229 3.61439 21.3482 3.43492C21.1256 3.2182 20.9023 3.26496 20.7156 3.43492ZM21.9773 4.73665L18.5092 8.30718C18.3339 8.48675 18.3339 8.7789 18.5092 8.95848C18.6833 9.13661 18.9644 9.13661 19.1384 8.95848L22.6091 5.38435C22.7821 5.20519 22.7821 4.91581 22.6091 4.73665C22.3768 4.50495 22.1343 4.58666 21.9773 4.73665ZM13.2661 4.79045C14.3506 4.79045 15.3884 4.97865 16.3552 5.32605L15.9831 5.71002C15.4956 6.21196 15.2224 6.89217 15.2224 7.60202V8.25873C14.0885 7.92011 13.0141 7.84996 11.9382 8.08379C11.0981 7.22485 10.1401 6.33571 9.27959 5.70464C10.4889 5.11896 11.8396 4.79045 13.2661 4.79045ZM11.5364 9.00873C11.6546 9.1773 11.7081 9.31031 11.7081 9.49405V10.2566C11.7081 11.0365 12.1809 11.5848 12.6004 12.0167L19.7274 19.3507C20.0604 19.6935 19.9645 19.9204 19.8067 20.0828C19.649 20.2451 19.4278 20.344 19.0948 20.0012C14.215 14.9703 10.0452 10.682 4.85466 5.33686C6.40009 4.0739 10.2014 7.52694 11.5364 9.00873ZM15.0359 9.16115C14.9552 9.32364 14.8493 9.47437 14.7213 9.6061L13.125 11.2514C12.8006 10.9044 12.6004 10.6144 12.6004 10.2565V9.49397C12.6004 9.28408 12.5595 9.08961 12.4941 8.91353C13.3472 8.79357 14.2922 8.90139 15.0359 9.16115ZM9.03822 10.9446L11.2297 13.2009L8.17468 16.3462C7.9637 15.75 7.8479 15.1061 7.84791 14.4335C7.8479 13.1104 8.29291 11.8998 9.03822 10.9446ZM17.576 11.0585C18.2696 11.9956 18.68 13.163 18.68 14.4344C18.68 15.186 18.5364 15.901 18.2757 16.5542L15.0167 13.2008L16.6149 11.5555C16.8763 11.2864 17.2144 11.1131 17.576 11.0585ZM11.8623 13.8512L12.4932 14.5007C10.7113 16.3338 8.9313 18.168 7.14991 20.001C6.81692 20.3438 6.59922 20.245 6.44149 20.0826C6.28376 19.9203 6.18778 19.6934 6.52078 19.3506L11.8623 13.8512ZM13.1241 15.1494L16.6558 18.7854C15.7279 19.5532 14.5518 20.0109 13.2661 20.0109C11.9093 20.0109 10.6715 19.4989 9.72138 18.6526L13.1241 15.1494ZM19.2299 21.8733C17.609 23.2531 15.5354 24.0802 13.2661 24.0802C11.0259 24.0802 8.97252 23.2717 7.36081 21.9235C7.16899 21.7627 6.88677 21.7933 6.73166 21.9917C6.57554 22.1892 6.60526 22.4797 6.79791 22.6394C8.56232 24.1154 10.8173 24.9998 13.2661 24.9998C15.7467 24.9998 18.0253 24.0926 19.7998 22.582C19.9902 22.4202 20.0168 22.1299 19.859 21.9343C19.6508 21.7107 19.4132 21.7192 19.2299 21.8733Z" fill="black"/>
</svg>
