<svg width="8" height="5" viewBox="0 0 8 5" fill="none" xmlns="http://www.w3.org/2000/svg">
<g clip-path="url(#clip0_313_6)">
<path d="M0.179228 -3.24006C-0.0595457 -3.00008 -0.0595457 -2.60009 0.179228 -2.44005C0.418002 -2.20007 0.736462 -2.20007 0.975239 -2.44005L4.00007 -5.6399L7.02491 -2.44005C7.26368 -2.20007 7.58214 -2.20007 7.82092 -2.44005C8.05969 -2.68002 8.05969 -3.08001 7.82092 -3.24006L4.3981 -6.84C4.31856 -6.9199 4.15932 -7 4.00007 -7C3.84082 -7 3.68161 -6.9201 3.60205 -6.84L0.179228 -3.24006ZM7.82077 1.24006C8.05955 1.00008 8.05955 0.60009 7.82077 0.44005C7.582 0.20007 7.26354 0.20007 7.02476 0.44005L3.99993 3.63994L0.975091 0.44005C0.736318 0.20007 0.417858 0.20007 0.17908 0.44005C-0.0596934 0.68002 -0.0596934 1.08001 0.17908 1.24006L3.6019 4.83997C3.68144 4.91991 3.84068 5 3.99993 5C4.15918 5 4.31839 4.92006 4.39795 4.83997L7.82077 1.24006Z" fill="#4E4E4E"/>
</g>
<defs>
<clipPath id="clip0_313_6">
<rect width="8" height="5" fill="white" transform="matrix(1 0 0 -1 0 5)"/>
</clipPath>
</defs>
</svg>
