<svg width="18" height="18" viewBox="0 0 18 18" fill="none" xmlns="http://www.w3.org/2000/svg">
<path d="M14.1671 6.13452L8.99947 10.9165L3.83187 6.13452C3.73954 6.04891 3.6156 6.00098 3.48653 6.00098C3.35747 6.00098 3.23353 6.04891 3.1412 6.13452C3.0965 6.1761 3.06098 6.22573 3.03673 6.28051C3.01249 6.33528 3 6.3941 3 6.45351C3 6.51293 3.01249 6.57174 3.03673 6.62652C3.06098 6.68129 3.0965 6.73092 3.1412 6.7725L8.63863 11.8607C8.73517 11.95 8.86465 12 8.99947 12C9.13429 12 9.26377 11.95 9.36031 11.8607L14.8577 6.77349C14.9028 6.73187 14.9385 6.68212 14.963 6.62716C14.9874 6.57221 15 6.51316 15 6.45351C15 6.39386 14.9874 6.33481 14.963 6.27986C14.9385 6.2249 14.9028 6.17515 14.8577 6.13354C14.7654 6.04793 14.6415 6 14.5124 6C14.3833 6 14.2594 6.04793 14.1671 6.13354V6.13452Z" fill="#4E4E4E" stroke="#4E4E4E" stroke-width="0.5"/>
</svg>
