<svg width="27" height="27" viewBox="0 0 27 27" fill="none" xmlns="http://www.w3.org/2000/svg">
<g clip-path="url(#clip0_2678_33114)">
<path d="M8.1521 18.7313L7.76562 12.6289H19.2362L18.8497 18.7313L18.5744 23.0805L18.4055 25.7479C18.3764 26.2069 17.9908 26.5644 17.5249 26.5644H9.47695C9.01107 26.5644 8.62548 26.2069 8.59636 25.7479L8.42739 23.0805L8.1521 18.7313Z" fill="#FCD770"/>
<path d="M12.3467 6.53232L13.5207 1.12405C13.608 0.722531 13.9676 0.435547 14.3836 0.435547H19.2366V2.17748H15.097L14.1516 6.53232L13.9424 6.9678H12.1777L12.3467 6.53232Z" fill="#CF9E76"/>
<path d="M19.6772 10.8871C19.1641 8.35473 16.9119 6.53223 14.2957 6.53223H12.7057C10.0895 6.53223 7.83731 8.35473 7.32422 10.8871H19.6772Z" fill="#E6E9ED"/>
<path d="M6.88258 10.8867H20.1179C20.3614 10.8867 20.5591 11.0818 20.5591 11.3222V12.1932C20.5591 12.4336 20.3614 12.6287 20.1179 12.6287H6.88258C6.63905 12.6287 6.44141 12.4336 6.44141 12.1932V11.3222C6.44141 11.0818 6.63905 10.8867 6.88258 10.8867Z" fill="#E6E9ED"/>
<path d="M13.5018 23.0809C15.6947 23.0809 17.4724 21.3261 17.4724 19.1615C17.4724 16.9969 15.6947 15.2422 13.5018 15.2422C11.3089 15.2422 9.53125 16.9969 9.53125 19.1615C9.53125 21.3261 11.3089 23.0809 13.5018 23.0809Z" fill="#FFEAA7"/>
<path d="M13.0605 23.0804H18.7958C19.2833 23.0804 19.6782 22.6907 19.6782 22.2095V19.5966C19.6782 19.1153 19.2833 18.7256 18.7958 18.7256H15.2664L13.5017 20.4675L13.0605 20.903V23.0804Z" fill="#DFB28B"/>
<path d="M15.7066 23.0804L11.736 18.7256H8.20657C7.71907 18.7256 7.32422 19.1153 7.32422 19.5966V22.2095C7.32422 22.6907 7.71907 23.0804 8.20657 23.0804H15.7066Z" fill="#DFB28B"/>
<path d="M20.1176 10.4516H20.0215C19.3721 8.03511 17.2169 6.28229 14.6921 6.11419L15.4526 2.6129H19.6765V0H14.3824C13.7621 0 13.2176 0.434613 13.0879 1.03297L11.9779 6.14642C9.59691 6.43863 7.59926 8.14093 6.97809 10.4516H6.88235C6.39574 10.4516 6 10.8422 6 11.3226V12.1935C6 12.6739 6.39574 13.0645 6.88235 13.0645H7.35044L7.68794 18.3948C7.215 18.5943 6.88235 19.0576 6.88235 19.5968V22.2097C6.88235 22.8642 7.37382 23.4025 8.01088 23.4965L8.15515 25.7745C8.19794 26.4622 8.77853 27 9.47603 27H17.524C18.2215 27 18.8016 26.4622 18.8449 25.7754L18.9891 23.497C19.6262 23.4025 20.1176 22.8642 20.1176 22.2097V19.5968C20.1176 19.0576 19.785 18.5943 19.3121 18.3948L19.6496 13.0645H20.1176C20.6043 13.0645 21 12.6739 21 12.1935V11.3226C21 10.8422 20.6043 10.4516 20.1176 10.4516ZM13.9504 1.215C13.9941 1.01598 14.1754 0.870968 14.3824 0.870968H18.7941V1.74194H14.7393L13.7943 6.09677H12.8912L13.9504 1.215ZM12.705 6.96774H14.295C16.5084 6.96774 18.4491 8.40484 19.1047 10.4516H7.89529C8.55088 8.40484 10.4921 6.96774 12.705 6.96774ZM7.76471 22.2097V19.5968C7.76471 19.3564 7.96235 19.1613 8.20588 19.1613H11.539L14.7154 22.6452H8.20588C7.96235 22.6452 7.76471 22.4501 7.76471 22.2097ZM10.0107 18.2903C10.2569 16.8158 11.7256 15.6774 13.5 15.6774C15.2744 15.6774 16.7431 16.8158 16.9893 18.2903H15.0821L13.4241 19.9269L11.9316 18.2903H10.0107ZM17.524 26.129H9.47603C9.24353 26.129 9.04985 25.95 9.03574 25.7205L8.89588 23.5161H18.1037L17.9643 25.721C17.9501 25.95 17.7565 26.129 17.524 26.129ZM19.2353 22.2097C19.2353 22.4501 19.0376 22.6452 18.7941 22.6452H15.9022L14.0149 20.5753L15.4474 19.1613H18.7941C19.0376 19.1613 19.2353 19.3564 19.2353 19.5968V22.2097ZM18.4346 18.2903H17.8826C17.6378 16.3337 15.7663 14.8065 13.5 14.8065C11.2337 14.8065 9.36221 16.3337 9.11735 18.2903H8.56544L8.23456 13.0645H18.7659L18.4346 18.2903ZM20.1176 12.1935H19.7047H7.29529H6.88235L6.88191 11.3226H20.1176V12.1935Z" fill="black"/>
</g>
<defs>
<clipPath id="clip0_2678_33114">
<rect width="27" height="27" fill="white"/>
</clipPath>
</defs>
</svg>
