<svg width="14" height="8" viewBox="0 0 14 8" fill="none" xmlns="http://www.w3.org/2000/svg">
<path d="M9.0105 3.99999C9.0105 5.05492 8.11032 5.91014 7 5.91014C5.88968 5.91014 4.9895 5.05489 4.9895 3.99999C4.9895 2.94509 5.88968 2.08984 7 2.08984C8.11032 2.08984 9.0105 2.94509 9.0105 3.99999Z" fill="#6230A0"/>
<path d="M1.98007 5.92893C3.15878 6.87372 4.98651 8 7.00004 8C10.4191 8 13.3275 4.79877 14 3.99985C13.7094 3.65367 13.0011 2.85766 12.0199 2.07107C10.8412 1.12628 9.01349 0 6.99996 0C3.58095 0 0.672248 3.20123 0 4.00015C0.290633 4.34622 0.99886 5.14234 1.98007 5.92893ZM7.00004 1.4833C8.46064 1.4833 9.6488 2.61219 9.6488 3.99985C9.6488 5.38751 8.46061 6.5164 7.00004 6.5164C5.53948 6.5164 4.35129 5.38751 4.35129 3.99985C4.35129 2.61219 5.53948 1.4833 7.00004 1.4833Z" fill="#6230A0"/>
</svg>
