<svg width="12" height="12" viewBox="0 0 12 12" fill="none" xmlns="http://www.w3.org/2000/svg">
<path d="M7.98221 2.92514H10.5984L7.63086 0V2.57358C7.63086 2.76743 7.78848 2.92514 7.98221 2.92514Z" fill="#285973"/>
<path d="M1.40625 11.6484C1.40625 11.8426 1.56366 12 1.75781 12H10.2461C10.4403 12 10.5977 11.8426 10.5977 11.6484V10.8047H1.40625V11.6484Z" fill="#285973"/>
<path d="M10.5977 3.62827H7.98157C7.40013 3.62827 6.92709 3.15513 6.92709 2.57358V0H1.75781C1.56366 0 1.40625 0.157406 1.40625 0.351562V4.52344H10.5977V3.62827Z" fill="#285973"/>
<path d="M11.2969 5.20312H0.703125C0.314789 5.20312 0 5.51794 0 5.90625V9.42188C0 9.81019 0.314789 10.125 0.703125 10.125H11.2969C11.6852 10.125 12 9.81019 12 9.42188V5.90625C12 5.51794 11.6852 5.20312 11.2969 5.20312ZM4.30277 9.21089C4.21617 9.21089 4.14579 9.17334 4.11328 9.12328L3.31741 8.05104L2.52694 9.12328C2.48904 9.17334 2.41866 9.21089 2.33203 9.21089C2.11355 9.20812 1.75102 9.0477 1.91515 8.83957L2.8518 7.66303L1.94766 6.49066C1.77523 6.27464 2.1048 6.12241 2.3483 6.11934C2.45658 6.11934 2.5324 6.16523 2.58113 6.23616L3.31744 7.25831L4.05375 6.23616C4.10791 6.16523 4.1783 6.11934 4.29197 6.11934C4.53548 6.12241 4.86504 6.27462 4.69263 6.49066L3.78846 7.66303L4.72512 8.83957C4.87575 9.05025 4.52829 9.20777 4.30277 9.21089ZM7.1884 9.19001H5.47212C5.31511 9.19001 5.16352 9.1316 5.16352 9.01896V6.3071C5.15895 6.08302 5.86863 6.08248 5.86734 6.3071V8.71439H7.1884C7.46953 8.71303 7.4703 9.18865 7.1884 9.19001ZM8.83962 9.22758C8.13035 9.22758 7.58895 8.95221 7.58895 8.71024C7.58895 8.59343 7.72973 8.41819 7.89757 8.41819C8.11955 8.41819 8.26573 8.73942 8.81798 8.73942C9.14281 8.73942 9.42436 8.62678 9.42436 8.37645C9.42436 7.75064 7.68642 7.94255 7.68642 6.95377C7.68642 6.33213 8.37942 6.11934 9.00206 6.11934C9.32149 6.11934 10.0308 6.17775 10.0308 6.45312C10.0308 6.54907 9.94413 6.741 9.74923 6.741C9.58139 6.741 9.45684 6.58245 9.00206 6.58245C8.61225 6.58245 8.39027 6.70345 8.39027 6.9037C8.39027 7.42104 10.1282 7.24165 10.1282 8.32221C10.1282 8.91884 9.58676 9.22758 8.83962 9.22758Z" fill="#285973"/>
</svg>
