<svg width="18" height="12" viewBox="0 0 18 12" fill="none" xmlns="http://www.w3.org/2000/svg">
<path d="M9 2.68291C7.23598 2.68291 5.79602 4.17361 5.79602 5.9997C5.79602 7.82579 7.23602 9.3165 9 9.3165C10.764 9.3165 12.204 7.82579 12.204 5.9997C12.204 4.17361 10.764 2.68291 9 2.68291ZM8.56796 4.09909C8.40596 4.09909 8.2619 4.11768 8.11797 4.17358L7.21802 5.10522C7.16402 5.25435 7.14606 5.40333 7.14606 5.57106C7.14606 5.77609 6.98405 5.96238 6.76806 5.96238C6.57 5.96238 6.39005 5.79466 6.39005 5.57106C6.39005 4.34115 7.3621 3.33503 8.55003 3.33503C8.74809 3.33503 8.92804 3.50274 8.92804 3.72634C8.94599 3.91264 8.78398 4.0991 8.56796 4.0991L8.56796 4.09909Z" fill="#4E4E4E"/>
<path d="M17.8921 5.47825C17.8921 5.47825 15.048 -2.28882e-05 9.00005 -2.28882e-05C2.86202 -2.28882e-05 0.10804 5.47825 0.10804 5.47825C-0.0360132 5.75777 -0.0360132 6.24217 0.10804 6.52171C0.10804 6.52171 2.86206 12 9.00005 12C15.138 12 17.8921 6.52171 17.8921 6.52171C18.036 6.24219 18.036 5.75778 17.8921 5.47825ZM9.00005 10.081C6.82197 10.081 5.05806 8.25486 5.05806 6.0002C5.05806 3.74553 6.82208 1.9194 9.00005 1.9194C11.178 1.9194 12.942 3.74553 12.942 6.0002C12.942 8.25486 11.178 10.081 9.00005 10.081Z" fill="#4E4E4E"/>
</svg>
