<svg width="8" height="8" viewBox="0 0 8 8" fill="none" xmlns="http://www.w3.org/2000/svg">
<path d="M7.11111 7.28223H4.37606C4.17093 7.28223 4.03418 7.41898 4.03418 7.62411C4.03418 7.82924 4.17093 7.96599 4.37606 7.96599H7.11111C7.31624 7.96599 7.45299 7.82924 7.45299 7.62411C7.45299 7.41898 7.28205 7.28223 7.11111 7.28223Z" fill="#285973"/>
<path d="M3.7607 1.77783L0.102564 5.43596C0.0341881 5.50434 0 5.57272 0 5.67528L0.0341881 7.62401C0.0341881 7.79495 0.170941 7.96589 0.37607 7.96589L2.32479 8.00008C2.42736 8.00008 2.49573 7.96589 2.56411 7.89751L6.22224 4.23938L3.7607 1.77783Z" fill="#285973"/>
<path d="M7.89739 2.08548L5.91448 0.102564C5.77772 -0.0341881 5.5726 -0.0341881 5.43584 0.102564L4.23926 1.29915L6.7008 3.7607L7.89739 2.56411C8.03414 2.42736 8.03414 2.22223 7.89739 2.08548Z" fill="#285973"/>
</svg>
