<svg width="12" height="12" viewBox="0 0 12 12" fill="none" xmlns="http://www.w3.org/2000/svg">
<path d="M7.98221 2.92514H10.5984L7.63086 0V2.57358C7.63086 2.76743 7.78848 2.92514 7.98221 2.92514Z" fill="#6230A0"/>
<path d="M1.40625 11.6484C1.40625 11.8426 1.56366 12 1.75781 12H10.2461C10.4403 12 10.5977 11.8426 10.5977 11.6484V10.8047H1.40625V11.6484Z" fill="#6230A0"/>
<path d="M10.5977 3.62827H7.98157C7.40013 3.62827 6.92709 3.15513 6.92709 2.57358V0H1.75781C1.56366 0 1.40625 0.157406 1.40625 0.351562V4.52344H10.5977V3.62827Z" fill="#6230A0"/>
<path d="M3.18255 6.56934H2.57617V7.57898H3.18255C3.53448 7.57898 3.75105 7.42462 3.75105 7.09919V7.04913C3.75102 6.7237 3.53446 6.56934 3.18255 6.56934Z" fill="#6230A0"/>
<path d="M6.15486 6.56934H5.5918V8.66791H6.15486C6.51219 8.66791 6.72334 8.51352 6.72334 8.18812V7.04915C6.72334 6.72369 6.51219 6.56934 6.15486 6.56934Z" fill="#6230A0"/>
<path d="M11.2969 5.20312H0.703125C0.314789 5.20312 0 5.51794 0 5.90625V9.42188C0 9.81019 0.314812 10.125 0.703125 10.125H11.2969C11.6852 10.125 12 9.81019 12 9.42188V5.90625C12 5.51794 11.6852 5.20312 11.2969 5.20312ZM4.45444 7.0571C4.45444 7.74131 3.89679 8.00416 3.18211 8.00416H2.57573V8.97209C2.57365 9.19987 1.87064 9.19938 1.87191 8.97209V6.26023C1.87191 6.17262 1.97477 6.09333 2.1372 6.09333H3.22545C3.91303 6.09333 4.45446 6.34781 4.45446 7.03205V7.0571H4.45444ZM7.42669 8.18773C7.42669 8.88448 6.86902 9.14313 6.15436 9.14313H5.19605C5.01197 9.14313 4.88745 9.06387 4.88745 8.97626V6.26023C4.88745 6.17262 5.01197 6.09333 5.19605 6.09333H6.15436C6.86902 6.09333 7.42669 6.35201 7.42669 7.04873V8.18773ZM10.2256 6.56897H8.73134V7.40339H9.55971C9.83822 7.40191 9.85966 7.82475 9.55971 7.82895H8.73134V8.97209C8.72925 9.19987 8.02624 9.19938 8.02751 8.97209V6.2644C8.02751 6.15173 8.1791 6.09335 8.33611 6.09335H10.2256C10.5255 6.09408 10.5046 6.57403 10.2256 6.56897Z" fill="#6230A0"/>
</svg>
