<svg width="12" height="12" viewBox="0 0 12 12" fill="none" xmlns="http://www.w3.org/2000/svg">
<path d="M10.6662 10.9229H6.5636C6.25591 10.9229 6.05078 11.128 6.05078 11.4357C6.05078 11.7434 6.25591 11.9485 6.5636 11.9485H10.6662C10.9739 11.9485 11.179 11.7434 11.179 11.4357C11.179 11.128 10.9226 10.9229 10.6662 10.9229Z" fill="#4E4E4E"/>
<path d="M5.64103 2.6665L0.153846 8.15368C0.0512819 8.25625 0 8.35881 0 8.51266L0.051282 11.4357C0.051282 11.6921 0.25641 11.9486 0.564102 11.9486L3.48718 11.9998C3.64103 11.9998 3.74359 11.9486 3.84615 11.846L9.33333 6.35881L5.64103 2.6665Z" fill="#4E4E4E"/>
<path d="M11.8466 3.1282L8.8722 0.153846C8.66707 -0.051282 8.35937 -0.051282 8.15425 0.153846L6.35938 1.94872L10.0517 5.64103L11.8466 3.84615C12.0517 3.64103 12.0517 3.33333 11.8466 3.1282Z" fill="#4E4E4E"/>
</svg>
