<svg width="275" height="137" viewBox="0 0 275 137" fill="none" xmlns="http://www.w3.org/2000/svg">
<path fill-rule="evenodd" clip-rule="evenodd" d="M68.0768 20.9973C57.4022 9.15777 43.4506 3.85802 28.2808 9.68538C20.5252 12.6595 13.8729 18.4533 9.33179 26.3273C4.29163 35.065 2.24601 46.2257 4.7349 58.7239C-5.38811 42.4651 2.06215 22.1466 14.9696 11.4497C19.8948 7.36653 25.7296 4.61417 31.5906 3.04811C37.8225 1.36234 44.3651 1.28154 50.6349 2.81288C66.6879 6.74147 76.4957 20.6008 76.5252 20.6243L78.6267 23.5514L75.2578 24.7142C16.9298 44.8545 4.78745 79.9027 4.75133 80.0035C10.5631 43.9102 57.4678 24.899 68.0768 20.9973Z" fill="#F8953A"/>
<path fill-rule="evenodd" clip-rule="evenodd" d="M102.114 23.4708C102.538 23.4325 102.966 23.4805 103.373 23.612C103.779 23.7434 104.156 23.9558 104.482 24.2368C104.809 24.5178 105.077 24.862 105.273 25.2496C105.469 25.6372 105.588 26.0605 105.624 26.4954C105.794 28.5118 104.793 29.6241 103.348 30.2996C101.477 31.1801 97.5363 31.822 93.4254 32.7462C89.7126 33.5709 86.0434 34.5894 82.4323 35.7976C53.3011 45.9535 17.2352 69.2427 10.3267 94.1586C6.59341 107.628 11.5876 114.863 25.1353 112.642C14.9893 117.797 -1.93383 114.084 4.08481 92.3673C6.95459 82.0166 15.3833 69.1083 31.0423 56.227C67.4759 26.2601 102.015 23.491 102.114 23.4708Z" fill="#F8953A"/>
<path fill-rule="evenodd" clip-rule="evenodd" d="M12.5994 9.35604C12.5994 9.35604 15.8114 6.36843 19.1153 4.61418C17.2269 -5.82062 4.40535 3.97901 12.5994 9.35604Z" fill="#F8953A"/>
<path fill-rule="evenodd" clip-rule="evenodd" d="M101.398 121.729H104.084L107.476 132.117L110.877 121.729H113.56L115.996 136.624H113.337L111.783 127.214L108.704 136.624H106.254L103.191 127.214L101.605 136.624H98.8892L101.398 121.729ZM129.964 121.729H132.752L138.357 136.624H135.474L134.338 133.555H128.372L127.209 136.624H124.326L129.964 121.729ZM131.363 125.688L129.393 130.816H133.333L131.363 125.688ZM155.408 123.752L153.352 125.607C152.634 124.581 151.901 124.069 151.153 124.072C150.83 124.058 150.514 124.164 150.263 124.371C150.158 124.448 150.073 124.549 150.013 124.665C149.952 124.782 149.919 124.911 149.915 125.043C149.915 125.301 150.002 125.551 150.161 125.752C150.792 126.44 151.473 127.079 152.197 127.664C153.254 128.572 153.896 129.143 154.124 129.378C154.612 129.858 155.016 130.419 155.319 131.038C155.556 131.585 155.675 132.178 155.671 132.776C155.686 133.341 155.583 133.904 155.369 134.425C155.155 134.947 154.835 135.416 154.429 135.8C153.548 136.618 152.387 137.047 151.199 136.993C150.239 137.016 149.295 136.746 148.486 136.217C147.633 135.589 146.954 134.745 146.516 133.767L148.854 132.325C149.554 133.639 150.365 134.298 151.274 134.298C151.712 134.313 152.141 134.161 152.476 133.871C152.624 133.756 152.746 133.608 152.83 133.438C152.915 133.268 152.961 133.081 152.965 132.89C152.953 132.522 152.823 132.168 152.597 131.882C152.111 131.311 151.568 130.793 150.979 130.336C149.389 129.016 148.365 127.996 147.905 127.274C147.467 126.645 147.224 125.896 147.206 125.123C147.202 124.622 147.303 124.126 147.502 123.669C147.701 123.211 147.993 122.802 148.358 122.469C149.128 121.728 150.152 121.329 151.208 121.356C151.93 121.356 152.64 121.534 153.28 121.874C154.101 122.359 154.826 122.997 155.418 123.756L155.408 123.752ZM164.145 121.736H172.193V124.535H169.537V136.634H166.72V124.535H164.145V121.736ZM181.354 121.736H189.3V124.515H184.096V127.204H189.287V129.943H184.096V133.865H189.287V136.644H181.341V121.749L181.354 121.736ZM199.315 121.736H202.27C203.879 121.736 205.028 121.88 205.708 122.173C206.392 122.472 206.967 122.985 207.35 123.638C207.78 124.368 207.998 125.209 207.977 126.061C208.007 126.933 207.767 127.791 207.29 128.514C206.769 129.222 206.045 129.745 205.219 130.01L208.656 136.63H205.603L202.319 130.322H202.04V136.63H199.285V121.736H199.315ZM202.07 127.563H202.95C203.84 127.563 204.45 127.449 204.792 127.207C204.966 127.069 205.104 126.887 205.191 126.68C205.279 126.472 205.315 126.246 205.294 126.021C205.299 125.718 205.212 125.421 205.045 125.171C204.883 124.933 204.654 124.752 204.388 124.653C203.887 124.52 203.368 124.466 202.851 124.495H202.083L202.07 127.563Z" fill="#4E4E4E"/>
<path fill-rule="evenodd" clip-rule="evenodd" d="M67.302 79.2271C67.466 79.0835 67.6766 79.008 67.8924 79.0155C68.1082 79.0229 68.3134 79.1128 68.4676 79.2675C68.6419 79.4094 68.7641 79.6076 68.8142 79.8298C68.8643 80.0519 68.8393 80.285 68.7434 80.4907C67.5504 83.2196 67.1607 85.236 67.5745 86.5399C67.9882 87.8438 68.8014 88.414 70.0141 88.2505C71.229 88.0757 72.6595 87.1582 74.3056 85.4981C75.9518 83.8379 77.4403 81.397 78.7712 78.1753C80.3319 74.4561 81.0532 71.4069 80.935 69.0276C80.8201 66.6516 80.1338 64.9377 78.873 63.8992C77.6121 62.8608 75.9441 62.4844 73.8624 62.7835C71.7806 63.0826 69.5577 64.0706 67.1969 65.7576C64.836 67.4447 62.5015 69.8341 60.1899 72.9327C57.8783 76.0312 55.8524 79.8321 54.1121 84.3588C51.9582 90.007 50.7903 95.0132 50.6086 99.3775C50.427 103.742 51.0103 107.31 52.3588 110.081C53.7116 112.859 55.6817 114.793 58.2691 115.882C60.8564 116.971 63.8116 117.107 67.1345 116.292C70.4552 115.474 74.0276 113.628 77.8518 110.753C81.676 107.879 85.4881 103.864 89.2882 98.7088C89.352 98.6076 89.4349 98.5204 89.5319 98.4523C89.629 98.3843 89.7383 98.3366 89.8535 98.3122C89.9687 98.2878 90.0875 98.2872 90.203 98.3102C90.3185 98.3333 90.4283 98.3797 90.5261 98.4466C90.7383 98.5557 90.9003 98.7457 90.977 98.9758C91.0538 99.2058 91.0392 99.4575 90.9365 99.6766C89.1503 105.325 87.1934 110.142 85.0657 114.127C83.2243 117.682 81.0126 121.021 78.4691 124.088C76.503 126.469 74.2128 128.548 71.669 130.262C69.6365 131.61 67.4426 132.684 65.1414 133.458C63.255 134.092 61.2883 134.442 59.3033 134.496C57.7508 134.541 56.1978 134.429 54.667 134.16C50.4554 133.219 47.0778 131.336 44.5342 128.511C41.9461 125.595 40.0742 122.089 39.0737 118.285C37.9792 114.294 37.5414 109.884 37.7603 105.054C38.008 100.095 38.8022 95.1808 40.1277 90.4046C41.503 85.4115 43.3803 80.5777 45.7294 75.9807C48.0119 71.4434 50.8126 67.1995 54.0727 63.338C57.144 59.7028 60.7419 56.5712 64.7408 54.0525C68.5206 51.6462 72.789 50.1586 77.2181 49.7039C80.8825 49.3566 83.7905 49.8775 85.9423 51.2666C88.0841 52.6413 89.7159 54.7088 90.5786 57.141C91.5177 59.6682 91.8953 62.5919 91.7114 65.9123C91.5024 69.3816 90.8917 72.8133 89.8924 76.1353C88.8388 79.6866 87.4465 83.1232 85.7355 86.3954C84.1199 89.557 82.1485 92.5143 79.8613 95.207C77.8688 97.5819 75.4864 99.5824 72.8215 101.118C70.3019 102.53 67.7605 103.063 65.1972 102.718C64.2927 102.624 63.4228 102.312 62.6587 101.808C61.8945 101.304 61.2578 100.622 60.8006 99.8178C59.7915 98.1308 59.3449 96.1144 59.461 93.7686C59.577 91.4229 60.2643 88.945 61.523 86.3349C62.7641 83.7293 64.6905 81.36 67.302 79.2271Z" fill="#DB3944"/>
<path fill-rule="evenodd" clip-rule="evenodd" d="M128.641 78.1115C128.963 78.4565 129.009 78.7791 128.779 79.0793C128.057 80.2658 127.241 81.3898 126.339 82.44C125.262 83.726 124.072 85.0142 122.77 86.3047C121.467 87.5952 120.154 88.7849 118.83 89.8737C117.737 90.811 116.537 91.6099 115.257 92.2531C114.344 95.0447 113.182 97.7446 111.787 100.319C110.758 102.213 109.525 103.984 108.112 105.598C107.051 106.815 105.811 107.855 104.438 108.683C103.37 109.315 102.227 109.801 101.037 110.132C100.105 110.385 99.1493 110.535 98.1864 110.579C97.3393 110.602 96.6662 110.639 96.1605 110.69C93.641 110.69 91.7519 109.958 90.4932 108.495C89.1946 106.942 88.3813 105.025 88.1586 102.994C87.8657 100.563 87.9767 98.1001 88.487 95.7078C88.9995 93.1045 89.8073 90.5714 90.8938 88.1598C91.8786 85.9289 93.1483 83.8416 94.6698 81.9527C96.1102 80.1917 97.6096 79.0636 99.1682 78.5685C99.7098 76.8936 100.655 75.3853 101.916 74.1829C103.019 73.1422 104.35 72.3894 105.798 71.9884C107.183 71.6154 108.638 71.6154 110.023 71.9884C111.443 72.3615 112.744 73.1049 113.799 74.1459C114.979 75.3403 115.863 76.8059 116.377 78.4207C116.994 80.213 117.189 82.3414 116.961 84.8059C118.726 83.999 120.446 83.0925 122.113 82.0905C124.094 80.8888 125.997 79.5598 127.813 78.1115C128.142 77.8661 128.408 77.8661 128.638 78.1115H128.641ZM99.7231 99.2298C101.142 99.6263 102.346 99.502 103.335 98.8567C104.295 98.238 105.125 97.4291 105.775 96.4774C106.568 95.2577 107.193 93.931 107.63 92.5354C105.66 92.439 104.136 92.0682 103.059 91.423C102.122 90.8981 101.294 90.1902 100.623 89.3394C99.9975 88.4907 99.595 87.4922 99.4539 86.4391C98.699 87.4491 98.0651 88.548 97.5658 89.7124C97.0157 90.9254 96.645 92.2155 96.4659 93.5402C96.2958 94.7251 96.4504 95.935 96.9124 97.0353C97.3677 98.0995 98.3068 98.831 99.7297 99.2298H99.7231ZM109.478 85.5486C110.299 83.5658 110.562 82.0793 110.266 81.089C109.971 80.0987 109.424 79.5386 108.625 79.4087C107.823 79.2877 106.953 79.5465 105.998 80.1917C105.02 80.8945 104.305 81.9175 103.972 83.092C104.111 83.7611 104.447 84.3708 104.934 84.8395C105.368 85.2459 105.883 85.55 106.444 85.7301C106.975 85.9009 107.532 85.9647 108.086 85.9182C108.57 85.8912 109.043 85.7656 109.478 85.5486Z" fill="#DB3944"/>
<path fill-rule="evenodd" clip-rule="evenodd" d="M157.628 78.1115C157.949 78.4565 157.995 78.7791 157.765 79.0793C157.043 80.2658 156.227 81.3898 155.326 82.44C154.251 83.726 153.061 85.0142 151.757 86.3047C150.452 87.5952 149.139 88.7849 147.816 89.8737C146.725 90.8115 145.527 91.6105 144.247 92.2531C143.334 95.044 142.173 97.7438 140.78 100.319C139.749 102.212 138.515 103.983 137.102 105.598C136.041 106.815 134.802 107.856 133.428 108.683C132.361 109.314 131.219 109.801 130.03 110.132C129.097 110.385 128.14 110.535 127.176 110.579C126.329 110.603 125.654 110.64 125.15 110.69C122.631 110.69 120.742 109.958 119.483 108.495C118.186 106.941 117.373 105.025 117.149 102.994C116.856 100.564 116.967 98.1001 117.477 95.7078C117.987 93.1042 118.794 90.5709 119.881 88.1598C120.865 85.9289 122.135 83.8416 123.657 81.9527C125.101 80.1917 126.602 79.0637 128.158 78.5685C128.699 76.893 129.644 75.3845 130.906 74.1829C132.008 73.1409 133.339 72.3879 134.788 71.9884C136.171 71.6154 137.626 71.6154 139.01 71.9884C140.431 72.3621 141.732 73.1054 142.789 74.1459C143.967 75.3415 144.849 76.8068 145.364 78.4207C145.985 80.213 146.18 82.3414 145.948 84.8059C147.713 83.999 149.433 83.0925 151.1 82.0905C153.081 80.8896 154.985 79.5606 156.8 78.1115C157.128 77.8661 157.398 77.8661 157.624 78.1115H157.628ZM128.71 99.2298C130.128 99.6264 131.337 99.502 132.322 98.8567C133.282 98.238 134.111 97.4291 134.761 96.4774C135.555 95.2577 136.18 93.931 136.616 92.5354C134.646 92.439 133.124 92.0682 132.049 91.423C131.11 90.899 130.281 90.191 129.61 89.3394C128.987 88.4892 128.585 87.4914 128.441 86.4392C127.687 87.4499 127.053 88.5487 126.553 89.7124C126.002 90.9255 125.632 92.2155 125.453 93.5402C125.284 94.7251 125.439 95.9346 125.899 97.0353C126.359 98.0995 127.298 98.831 128.716 99.2298H128.71ZM138.465 85.5486C139.29 83.5658 139.553 82.0793 139.253 81.089C138.953 80.0987 138.406 79.5386 137.611 79.4087C136.81 79.2877 135.94 79.5465 134.985 80.1917C134.005 80.893 133.29 81.9166 132.959 83.092C133.1 83.7603 133.435 84.3693 133.921 84.8395C134.355 85.2446 134.871 85.5485 135.431 85.7301C135.961 85.9009 136.519 85.9648 137.073 85.9182C137.556 85.8913 138.03 85.7656 138.465 85.5486Z" fill="#DB3944"/>
<path fill-rule="evenodd" clip-rule="evenodd" d="M186.342 90.6835C186.375 90.6076 186.424 90.5398 186.486 90.4846C186.547 90.4294 186.619 90.3881 186.696 90.3634C186.774 90.3386 186.856 90.331 186.937 90.341C187.018 90.351 187.096 90.3784 187.166 90.4214C187.319 90.4916 187.44 90.6192 187.504 90.778C187.568 90.9367 187.571 91.1146 187.511 91.275C186.959 93.1592 185.905 95.2171 184.349 97.4485C182.757 99.7199 180.964 101.835 178.99 103.767C177.053 105.691 174.884 107.353 172.535 108.713C170.247 110.024 168.117 110.681 166.145 110.683C164.772 110.683 163.678 110.446 162.861 109.974C162.083 109.55 161.44 108.906 161.01 108.119C160.577 107.286 160.319 106.37 160.251 105.43C160.162 104.378 160.185 103.318 160.32 102.271C160.46 101.169 160.667 100.077 160.941 99.0011C161.212 97.91 161.51 96.894 161.834 95.9531C161.19 96.0001 160.533 96.0371 159.864 96.0639C159.194 96.0908 158.495 96.1278 157.769 96.1748C157.005 98.3463 156.442 100.587 156.088 102.866C155.742 105.014 155.8 107.209 156.258 109.335C155.269 109.89 154.204 110.291 153.1 110.525C152.036 110.77 150.932 110.77 149.869 110.525C148.861 110.275 147.959 109.702 147.294 108.888C146.585 108.046 146.162 106.782 146.024 105.097C145.893 103.663 146.004 102.216 146.352 100.819C146.756 99.141 147.262 97.4899 147.866 95.8757C148.507 94.1416 149.251 92.3941 150.098 90.6331C150.946 88.8722 151.804 87.1504 152.673 85.4678C153.548 83.7808 154.395 82.1945 155.214 80.7091C156.033 79.2237 156.72 77.8851 157.276 76.6932C158.68 73.8853 159.887 70.9788 160.888 67.9958C161.697 65.6137 162.295 63.1617 162.674 60.6696C162.974 58.5143 162.974 56.6929 162.674 55.2052C162.374 53.7176 161.768 52.6523 160.855 52.0093C161.449 51.3672 162.11 50.7936 162.825 50.2987C163.522 49.8081 164.35 49.5488 165.196 49.556C167.621 49.556 169.407 50.0758 170.551 51.1153C171.713 52.188 172.458 53.6531 172.65 55.2422C172.89 57.165 172.796 59.1161 172.374 61.0057C171.92 63.2005 171.323 65.3617 170.587 67.4749C169.832 69.6571 168.996 71.7631 168.079 73.7929C167.162 75.8228 166.384 77.558 165.744 78.9986L165.606 79.2943C167.079 77.894 168.69 76.6551 170.413 75.5976C172.15 74.5324 174.058 73.7906 176.048 73.4065C177.541 73.3602 179.014 73.7747 180.274 74.5961C181.408 75.3516 182.294 76.4397 182.815 77.7182C183.352 79.0848 183.54 80.5683 183.364 82.0299C183.158 83.7253 182.544 85.3419 181.577 86.7348C180.36 88.4829 178.834 89.9829 177.079 91.1574C175.109 92.5465 172.592 93.6667 169.527 94.5181C168.888 96.5008 168.739 98.0624 169.08 99.2028C169.422 100.343 170.442 100.913 172.141 100.913C172.915 100.913 173.983 100.577 175.332 99.8715C176.774 99.1198 178.153 98.2487 179.456 97.267C180.853 96.2221 182.194 95.1002 183.472 93.9064C184.561 92.941 185.53 91.8429 186.358 90.6365L186.342 90.6835ZM162.701 88.8217C163.978 88.6568 165.234 88.3457 166.444 87.8942C167.927 87.3748 169.345 86.6753 170.666 85.8106C171.962 84.9731 173.121 83.932 174.101 82.7255C175.037 81.6087 175.55 80.1846 175.546 78.7129C173.712 79.3823 171.977 80.3074 170.39 81.462C167.496 83.525 164.906 86.0037 162.701 88.8217Z" fill="#DB3944"/>
<path fill-rule="evenodd" clip-rule="evenodd" d="M200.559 52.09C201.425 52.0883 202.281 52.2786 203.068 52.6478C203.843 53.002 204.543 53.5064 205.13 54.1332C205.714 54.7729 206.179 55.5167 206.502 56.3277C206.849 57.1793 207.024 58.0937 207.018 59.0162C207.027 59.9586 206.852 60.8933 206.502 61.7652C206.179 62.5763 205.714 63.32 205.13 63.9597C204.544 64.5879 203.843 65.0925 203.068 65.4452C202.281 65.8144 201.425 66.0047 200.559 66.003C199.683 66.0126 198.816 65.822 198.021 65.4452C197.258 65.0869 196.57 64.5827 195.992 63.9597C194.767 62.6204 194.091 60.8508 194.104 59.0162C194.099 58.0939 194.274 57.1798 194.619 56.3277C194.942 55.5167 195.408 54.7729 195.992 54.1332C196.571 53.5113 197.259 53.0072 198.021 52.6478C198.816 52.271 199.683 52.0804 200.559 52.09ZM196.507 99.5994C197.332 99.5994 198.212 99.2163 199.154 98.4467C200.176 97.598 201.118 96.6528 201.968 95.6237C202.933 94.4715 203.839 93.2679 204.68 92.0177C205.556 90.7273 206.312 89.5869 206.949 88.5966C206.983 88.521 207.032 88.4535 207.093 88.3987C207.155 88.3438 207.227 88.3028 207.304 88.2784C207.382 88.254 207.464 88.2467 207.545 88.2569C207.626 88.2672 207.703 88.2947 207.773 88.3379C207.926 88.4081 208.047 88.5357 208.111 88.6944C208.176 88.8532 208.178 89.0311 208.118 89.1915C207.42 91.4389 206.523 93.6166 205.439 95.6977C204.19 98.167 202.731 100.518 201.078 102.725C199.515 104.84 197.691 106.739 195.65 108.374C193.704 109.909 191.746 110.677 189.776 110.679C188.128 110.679 186.815 110.343 185.836 109.671C184.865 109.02 184.12 108.071 183.708 106.959C183.254 105.687 183.078 104.329 183.193 102.98C183.306 101.333 183.582 99.7012 184.017 98.1106C184.566 96.0763 185.105 94.3411 185.633 92.905C186.16 91.4688 186.731 89.9689 187.347 88.4051C187.968 86.8368 188.668 85.0164 189.445 82.944C190.222 80.8716 191.137 78.1697 192.19 74.8381C192.356 74.4137 192.629 74.0417 192.981 73.7594C193.149 73.6241 193.342 73.5246 193.549 73.4669C193.755 73.4092 193.971 73.3944 194.183 73.4233C195.039 73.5274 195.888 73.6879 196.724 73.9039C197.545 74.1068 198.324 74.4598 199.023 74.9457C199.682 75.4113 200.185 76.073 200.464 76.8411C200.764 77.6342 200.707 78.6256 200.293 79.8153C199.926 80.6084 199.41 81.6378 198.747 82.9037C198.084 84.1695 197.408 85.5317 196.721 86.9902C196.034 88.4555 195.415 89.9308 194.866 91.4162C194.365 92.7157 194.009 94.0684 193.802 95.449C193.64 96.6656 193.749 97.6569 194.13 98.4232C194.511 99.1894 195.304 99.5815 196.507 99.5994Z" fill="#DB3944"/>
<path fill-rule="evenodd" clip-rule="evenodd" d="M213.063 73.43C214.176 73.5924 215.242 73.9981 216.189 74.6197C216.907 75.1243 217.475 75.8221 217.83 76.636C218.184 77.5057 218.326 78.4502 218.244 79.3884C218.158 80.5256 217.962 81.6513 217.66 82.7491C218.503 81.7364 219.396 80.7684 220.336 79.8488C221.438 78.7575 222.596 77.7276 223.806 76.7638C224.928 75.8582 226.122 75.05 227.376 74.3475C228.549 73.7067 229.569 73.4098 230.436 73.4569C231.28 73.5677 232.118 73.7282 232.944 73.9375C233.778 74.1362 234.569 74.4892 235.279 74.9793C235.938 75.4448 236.441 76.1065 236.72 76.8747C237.016 77.6678 236.958 78.6592 236.546 79.8488C236.183 80.642 235.669 81.6714 235.003 82.9373C234.338 84.2031 233.662 85.5653 232.977 87.0238C232.29 88.489 231.671 89.9644 231.122 91.4498C230.62 92.7488 230.263 94.1016 230.058 95.4826C229.896 96.6991 229.999 97.6905 230.367 98.4567C230.735 99.2229 231.513 99.6072 232.701 99.6094C233.526 99.6094 234.409 99.2263 235.328 98.4567C236.357 97.6022 237.312 96.6576 238.181 95.6338C239.159 94.4954 240.077 93.304 240.93 92.0648C241.805 90.8012 242.561 89.6485 243.195 88.6067C243.229 88.531 243.279 88.4636 243.34 88.4087C243.401 88.3539 243.473 88.3129 243.551 88.2885C243.629 88.2641 243.711 88.2567 243.791 88.2669C243.872 88.2772 243.95 88.3048 244.02 88.3479C244.17 88.4212 244.287 88.55 244.348 88.7085C244.409 88.8669 244.409 89.0431 244.348 89.2015C243.648 91.4484 242.751 93.626 241.669 95.7077C240.42 98.1778 238.96 100.529 237.305 102.735C235.738 104.858 233.902 106.758 231.844 108.384C229.874 109.919 227.904 110.687 225.934 110.689C224.286 110.689 222.935 110.379 221.882 109.759C220.86 109.176 220.042 108.279 219.544 107.194C219.018 105.979 218.772 104.655 218.825 103.326C218.867 101.716 219.108 100.118 219.544 98.571C219.956 96.9152 220.506 95.2985 221.186 93.7384C221.83 92.3 222.403 91.0353 222.907 89.9442C223.322 89.0745 223.677 88.1761 223.971 87.2557C224.174 86.5634 224.095 86.0425 223.728 85.6964C223.272 85.2483 222.574 85.3356 221.633 85.9585C220.498 86.7605 219.481 87.7234 218.612 88.8184C217.425 90.2736 216.378 91.8424 215.486 93.5031C214.485 95.3176 213.668 97.2319 213.046 99.2162C212.44 101.153 212.108 103.168 212.061 105.202C211.992 107.095 212.394 108.975 213.23 110.666C211.874 111.388 210.362 111.747 208.834 111.708C207.205 111.723 205.595 111.354 204.128 110.629C202.698 109.923 201.494 108.814 200.658 107.433C199.782 106.017 199.576 104.196 200.04 101.969C200.488 99.7624 201.191 97.6189 202.135 95.5834C203.028 93.7014 203.978 91.8183 204.985 89.9341C205.992 88.0499 206.954 86.0055 207.872 83.801C208.884 81.2515 209.622 78.5965 210.072 75.8833C210.199 75.1548 210.575 74.4963 211.132 74.0249C211.389 73.782 211.696 73.6023 212.03 73.4992C212.365 73.3961 212.718 73.3725 213.063 73.43Z" fill="#DB3944"/>
<path fill-rule="evenodd" clip-rule="evenodd" d="M266.229 73.4301C267.053 73.4874 267.87 73.6235 268.669 73.8367C269.473 74.0426 270.239 74.3833 270.934 74.8449C271.587 75.2789 272.101 75.8994 272.412 76.6294C272.74 77.3721 272.74 78.2896 272.478 79.3818C272.215 80.474 271.726 81.9694 271.036 84.0262C270.347 86.0829 269.526 88.4252 268.567 91.0533C267.608 93.6813 266.561 96.4303 265.441 99.344C264.321 102.258 263.218 105.057 262.158 107.783C261.097 110.508 260.076 113.039 259.137 115.368C258.198 117.696 257.429 119.555 256.838 120.943C256.048 122.806 255.118 124.603 254.057 126.32C253.048 127.957 251.784 129.413 250.314 130.632C248.792 131.878 247.071 132.846 245.228 133.495C243.036 134.231 240.738 134.583 238.431 134.537C235.546 134.537 233.152 134.003 231.25 132.937C229.516 132.029 228.056 130.654 227.028 128.961C226.121 127.415 225.68 125.631 225.757 123.83C225.82 122.023 226.39 120.273 227.399 118.789C228.43 117.25 229.941 115.997 231.933 115.031C233.925 114.066 236.387 113.632 239.318 113.731C237.761 114.871 236.674 116.012 236.057 117.152C235.44 118.292 235.176 119.308 235.266 120.2C235.302 120.623 235.425 121.033 235.626 121.405C235.828 121.776 236.103 122.099 236.435 122.354C237.166 122.916 238.062 123.206 238.976 123.174C239.939 123.174 240.958 122.741 242.033 121.874C243.25 120.857 244.346 119.696 245.297 118.416C246.509 116.808 247.621 115.125 248.626 113.375C249.749 111.443 250.837 109.387 251.89 107.205C250.975 108.062 249.959 108.799 248.866 109.399C248.078 109.821 247.249 110.159 246.394 110.407C245.803 110.586 245.19 110.674 244.575 110.669C244.092 110.642 243.76 110.632 243.589 110.632C241.256 110.632 239.62 109.715 238.681 107.88C237.742 106.045 237.387 103.753 237.617 101.004C237.918 97.9314 238.634 94.9163 239.745 92.0447C240.913 88.8621 242.484 85.85 244.417 83.0852C246.234 80.4403 248.461 78.1167 251.01 76.206C253.482 74.3755 256.092 73.4592 258.841 73.4569C259.888 73.4348 260.931 73.5857 261.931 73.9039C262.742 74.165 263.491 74.5952 264.131 75.1675C264.632 73.9778 265.342 73.4077 266.259 73.4569L266.229 73.4301ZM258.605 88.6672C259.053 88.0325 259.444 87.3576 259.774 86.6508C260.169 85.8517 260.457 85.0016 260.631 84.1236C260.795 83.3334 260.76 82.5135 260.529 81.7409C260.414 81.3738 260.208 81.0436 259.93 80.7831C259.653 80.5226 259.314 80.3407 258.946 80.2555C258.034 80.0068 256.976 80.2556 255.824 80.9983C254.536 81.8498 253.388 82.9046 252.422 84.1236C251.277 85.5323 250.286 87.0649 249.467 88.6941C248.638 90.2888 248.058 92.0068 247.75 93.7855C247.478 95.524 247.478 96.8257 247.75 97.6905C248.021 98.5553 248.469 99.0516 249.093 99.1793C249.71 99.3048 250.419 99.0942 251.22 98.5475C252.126 97.8905 252.896 97.0568 253.486 96.0942C254.254 94.8743 254.845 93.5463 255.239 92.1522C255.709 90.5112 255.918 88.8033 255.857 87.0944C256.401 87.1594 256.927 87.3366 257.403 87.6153C257.876 87.8695 258.286 88.229 258.605 88.6672Z" fill="#DB3944"/>
</svg>
