<svg width="99" height="49" viewBox="0 0 99 49" fill="none" xmlns="http://www.w3.org/2000/svg">
<path fill-rule="evenodd" clip-rule="evenodd" d="M24.5077 7.50999C20.6648 3.27541 15.6422 1.37988 10.1811 3.46411C7.38911 4.52787 4.99426 6.60009 3.35948 9.41633C1.54502 12.5415 0.808594 16.5333 1.70459 21.0034C-1.93969 15.1883 0.742404 7.92106 5.38908 4.09515C7.16216 2.63475 9.26268 1.65032 11.3727 1.0902C13.6161 0.487261 15.9715 0.458361 18.2286 1.00607C24.0077 2.41118 27.5385 7.36816 27.5491 7.37657L28.3056 8.42349L27.0928 8.83937C6.09476 16.0429 1.72351 28.5783 1.71051 28.6144C3.80275 15.7051 20.6885 8.90549 24.5077 7.50999Z" fill="#F8953A"/>
<path fill-rule="evenodd" clip-rule="evenodd" d="M36.7609 8.3947C36.9138 8.38102 37.0678 8.39817 37.2142 8.44519C37.3605 8.4922 37.4963 8.56815 37.6137 8.66867C37.7311 8.76918 37.8278 8.89228 37.8983 9.03091C37.9688 9.16953 38.0117 9.32096 38.0245 9.47648C38.086 10.1977 37.7254 10.5955 37.2053 10.8371C36.5316 11.152 35.1131 11.3816 33.6332 11.7122C32.2966 12.0072 30.9757 12.3714 29.6756 12.8036C19.1884 16.436 6.2047 24.7657 3.71765 33.6772C2.37365 38.4947 4.17156 41.0826 9.04873 40.2881C5.39617 42.1319 -0.696156 40.8037 1.47056 33.0365C2.50367 29.3344 5.53801 24.7176 11.1752 20.1104C24.2914 9.39234 36.7254 8.40191 36.7609 8.3947Z" fill="#F8953A"/>
<path fill-rule="evenodd" clip-rule="evenodd" d="M4.5358 3.34631C4.5358 3.34631 5.69211 2.27775 6.88152 1.65031C6.20169 -2.08184 1.58593 1.42313 4.5358 3.34631Z" fill="#F8953A"/>
<path fill-rule="evenodd" clip-rule="evenodd" d="M36.5032 43.5382H37.4701L38.6912 47.2535L39.9158 43.5382H40.8815L41.7586 48.8654H40.8012L40.242 45.4998L39.1333 48.8654H38.2515L37.1486 45.4998L36.5777 48.8654H35.6001L36.5032 43.5382ZM46.7871 43.5382H47.7907L49.8084 48.8654H48.7706L48.3616 47.768H46.2138L45.7953 48.8654H44.7575L46.7871 43.5382ZM47.2907 44.9541L46.5814 46.7884H47.9999L47.2907 44.9541ZM55.9469 44.2618L55.2069 44.9253C54.9484 44.5583 54.6844 44.3752 54.4149 44.376C54.2989 44.3711 54.1851 44.4091 54.0946 44.483C54.057 44.5106 54.0262 44.5467 54.0045 44.5884C53.9828 44.63 53.9707 44.6762 53.9693 44.7233C53.9695 44.8157 54.0008 44.9052 54.0579 44.977C54.2853 45.2231 54.5302 45.4517 54.7908 45.6609C55.1714 45.9854 55.4027 46.1898 55.4847 46.2739C55.6603 46.4455 55.8058 46.6463 55.9149 46.8677C56 47.0633 56.0432 47.2752 56.0414 47.4891C56.0469 47.6914 56.0099 47.8925 55.9329 48.0791C55.8558 48.2656 55.7405 48.4333 55.5946 48.5709C55.2774 48.8635 54.8593 49.0169 54.4315 48.9976C54.0861 49.0057 53.7462 48.909 53.4551 48.7199C53.1479 48.4954 52.9034 48.1934 52.7459 47.8437L53.5875 47.3281C53.8393 47.798 54.1312 48.0336 54.4587 48.0336C54.6165 48.0389 54.7706 47.9845 54.8913 47.881C54.9448 47.8398 54.9884 47.7868 55.0189 47.726C55.0495 47.6652 55.066 47.5982 55.0674 47.53C55.0629 47.3984 55.0164 47.2718 54.935 47.1694C54.7599 46.9652 54.5647 46.78 54.3523 46.6165C53.7802 46.1445 53.4114 45.7795 53.2459 45.5215C53.0883 45.2964 53.0006 45.0284 52.9941 44.7522C52.9928 44.573 53.0291 44.3956 53.1007 44.2318C53.1722 44.0681 53.2773 43.9217 53.409 43.8026C53.6862 43.5378 54.0548 43.3949 54.435 43.4048C54.6946 43.4047 54.9505 43.4682 55.1809 43.5899C55.4765 43.7634 55.7375 43.9917 55.9504 44.263L55.9469 44.2618ZM59.0923 43.5406H61.9895V44.5418H61.0333V48.869H60.019V44.5418H59.0923V43.5406ZM65.2875 43.5406H68.1481V44.5346H66.2745V45.4962H68.1433V46.4758H66.2745V47.8786H68.1433V48.8726H65.2828V43.5454L65.2875 43.5406ZM71.7533 43.5406H72.8172C73.3964 43.5406 73.8101 43.5923 74.0548 43.6969C74.3012 43.8038 74.5081 43.9873 74.6458 44.2209C74.8008 44.482 74.8791 44.7827 74.8716 45.0876C74.8825 45.3992 74.796 45.7064 74.6246 45.965C74.4369 46.218 74.1761 46.4051 73.8787 46.4999L75.1163 48.8678H74.017L72.8349 46.6117H72.7345V48.8678H71.7427V43.5406H71.7533ZM72.7451 45.6248H73.0619C73.3822 45.6248 73.6021 45.584 73.725 45.4974C73.7878 45.4479 73.8373 45.383 73.8689 45.3088C73.9005 45.2347 73.9132 45.1536 73.9059 45.0731C73.9077 44.9647 73.8763 44.8585 73.816 44.769C73.7578 44.6841 73.6753 44.6194 73.5796 44.5839C73.3992 44.5362 73.2126 44.5171 73.0264 44.5274H72.7498L72.7451 45.6248Z" fill="#4E4E4E"/>
<path fill-rule="evenodd" clip-rule="evenodd" d="M24.2287 28.3367C24.2878 28.2853 24.3636 28.2583 24.4413 28.261C24.519 28.2636 24.5928 28.2958 24.6483 28.3511C24.7111 28.4018 24.7551 28.4727 24.7731 28.5522C24.7912 28.6317 24.7822 28.715 24.7476 28.7886C24.3182 29.7646 24.1779 30.4858 24.3268 30.9522C24.4758 31.4185 24.7685 31.6225 25.2051 31.564C25.6425 31.5015 26.1574 31.1733 26.75 30.5795C27.3427 29.9858 27.8785 29.1127 28.3576 27.9604C28.9195 26.6302 29.1792 25.5397 29.1366 24.6886C29.0952 23.8388 28.8482 23.2258 28.3943 22.8544C27.9404 22.483 27.3399 22.3484 26.5905 22.4554C25.841 22.5623 25.0408 22.9157 24.1909 23.5191C23.341 24.1225 22.5005 24.9771 21.6684 26.0854C20.8362 27.1936 20.1069 28.553 19.4804 30.1721C18.705 32.1922 18.2845 33.9828 18.2191 35.5437C18.1537 37.1047 18.3637 38.3808 18.8492 39.372C19.3362 40.3657 20.0454 41.0572 20.9769 41.4467C21.9083 41.8361 22.9722 41.885 24.1684 41.5933C25.3639 41.3008 26.65 40.6405 28.0267 39.6124C29.4034 38.5844 30.7757 37.1484 32.1438 35.3045C32.1667 35.2684 32.1966 35.2372 32.2315 35.2128C32.2664 35.1885 32.3058 35.1714 32.3473 35.1627C32.3888 35.154 32.4315 35.1537 32.4731 35.162C32.5147 35.1703 32.5542 35.1868 32.5894 35.2108C32.6658 35.2498 32.7241 35.3178 32.7517 35.4C32.7794 35.4823 32.7741 35.5723 32.7372 35.6507C32.0941 37.6708 31.3896 39.3937 30.6237 40.8192C29.9608 42.0904 29.1645 43.2849 28.2489 44.3819C27.5411 45.2333 26.7166 45.977 25.8009 46.59C25.0692 47.0722 24.2793 47.4564 23.4509 47.733C22.7718 47.96 22.0638 48.0851 21.3492 48.1045C20.7903 48.1206 20.2312 48.0803 19.6802 47.9843C18.164 47.6477 16.948 46.9742 16.0323 45.9637C15.1006 44.9206 14.4267 43.6668 14.0666 42.3061C13.6725 40.8789 13.5149 39.3015 13.5937 37.5739C13.6829 35.8003 13.9688 34.0427 14.446 32.3345C14.9411 30.5486 15.6169 28.8197 16.4626 27.1755C17.2843 25.5527 18.2926 24.0348 19.4662 22.6537C20.5719 21.3535 21.8671 20.2335 23.3067 19.3326C24.6674 18.472 26.2041 17.9399 27.7985 17.7773C29.1177 17.653 30.1646 17.8393 30.9393 18.3362C31.7103 18.8278 32.2977 19.5673 32.6083 20.4372C32.9464 21.3411 33.0823 22.3869 33.0161 23.5744C32.9409 24.8153 32.721 26.0427 32.3613 27.2308C31.982 28.501 31.4808 29.7301 30.8648 30.9005C30.2832 32.0313 29.5735 33.089 28.7501 34.0521C28.0328 34.9015 27.1751 35.617 26.2158 36.1664C25.3087 36.6712 24.3938 36.8619 23.471 36.7385C23.1454 36.7049 22.8322 36.5934 22.5571 36.4131C22.282 36.2328 22.0528 35.9889 21.8882 35.7012C21.525 35.0978 21.3642 34.3766 21.406 33.5376C21.4477 32.6987 21.6952 31.8124 22.1483 30.8789C22.5951 29.9469 23.2886 29.0995 24.2287 28.3367Z" fill="#DB3944"/>
<path fill-rule="evenodd" clip-rule="evenodd" d="M46.3107 27.9376C46.4266 28.061 46.4431 28.1764 46.3604 28.2838C46.1004 28.7082 45.8066 29.1102 45.4821 29.4858C45.0944 29.9458 44.6661 30.4065 44.1972 30.8681C43.7283 31.3296 43.2555 31.7551 42.7787 32.1446C42.3853 32.4798 41.9534 32.7655 41.4927 32.9956C41.164 33.9941 40.7457 34.9597 40.2432 35.8803C39.8728 36.5579 39.4292 37.1913 38.9205 37.7687C38.5383 38.2037 38.0921 38.5759 37.5978 38.8721C37.2133 39.0979 36.8017 39.272 36.3732 39.3901C36.0378 39.4806 35.6938 39.5342 35.3471 39.55C35.0422 39.5584 34.7998 39.5716 34.6178 39.5897C33.7108 39.5897 33.0307 39.328 32.5776 38.8048C32.1101 38.2492 31.8173 37.5638 31.7371 36.8371C31.6317 35.9679 31.6716 35.0868 31.8553 34.2312C32.0398 33.3001 32.3306 32.3941 32.7218 31.5316C33.0763 30.7336 33.5334 29.9871 34.0812 29.3115C34.5997 28.6817 35.1395 28.2782 35.7006 28.1011C35.8956 27.502 36.2358 26.9626 36.69 26.5325C37.0867 26.1603 37.5661 25.8911 38.0872 25.7476C38.5858 25.6142 39.1098 25.6142 39.6085 25.7476C40.1196 25.8811 40.5879 26.147 40.9678 26.5193C41.3925 26.9465 41.7106 27.4707 41.8957 28.0482C42.118 28.6893 42.1881 29.4505 42.1062 30.332C42.7416 30.0434 43.3607 29.7192 43.9608 29.3608C44.6737 28.931 45.3591 28.4557 46.0128 27.9376C46.1311 27.8499 46.2268 27.8499 46.3095 27.9376H46.3107ZM35.9004 35.4909C36.411 35.6327 36.8444 35.5883 37.2006 35.3575C37.5462 35.1362 37.8449 34.8469 38.0789 34.5065C38.3647 34.0702 38.5894 33.5957 38.7467 33.0966C38.0375 33.0621 37.489 32.9295 37.1013 32.6987C36.7639 32.511 36.4659 32.2578 36.2242 31.9535C35.9991 31.6499 35.8542 31.2928 35.8034 30.9162C35.5317 31.2774 35.3035 31.6704 35.1237 32.0869C34.9257 32.5207 34.7922 32.9821 34.7277 33.4559C34.6665 33.8797 34.7222 34.3125 34.8885 34.706C35.0524 35.0866 35.3905 35.3483 35.9027 35.4909H35.9004ZM39.4122 30.5976C39.7078 29.8885 39.8023 29.3568 39.6959 29.0026C39.5896 28.6484 39.3925 28.4481 39.1049 28.4016C38.8165 28.3583 38.5032 28.4509 38.1593 28.6817C37.8072 28.933 37.55 29.2989 37.4299 29.719C37.4801 29.9583 37.601 30.1764 37.7763 30.344C37.9324 30.4894 38.118 30.5981 38.32 30.6625C38.5109 30.7236 38.7116 30.7465 38.9111 30.7298C39.0851 30.7202 39.2555 30.6752 39.4122 30.5976Z" fill="#DB3944"/>
<path fill-rule="evenodd" clip-rule="evenodd" d="M56.7459 27.9376C56.8618 28.0611 56.8783 28.1764 56.7956 28.2838C56.5356 28.7082 56.2418 29.1102 55.9173 29.4858C55.5304 29.9458 55.1021 30.4065 54.6324 30.8681C54.1627 31.3296 53.6899 31.7551 53.2139 32.1446C52.821 32.48 52.3896 32.7658 51.929 32.9956C51.6002 33.9938 51.1823 34.9594 50.6808 35.8804C50.3096 36.5577 49.8656 37.191 49.3569 37.7687C48.9748 38.2039 48.5286 38.5762 48.0341 38.8721C47.6501 39.0978 47.2388 39.272 46.8107 39.3901C46.4749 39.4806 46.1306 39.5342 45.7835 39.55C45.4785 39.5588 45.2354 39.572 45.0542 39.5897C44.1471 39.5897 43.4671 39.328 43.0139 38.8048C42.5469 38.2489 42.2542 37.5636 42.1735 36.8371C42.0681 35.9679 42.108 35.0869 42.2917 34.2312C42.4753 33.3 42.7657 32.3939 43.157 31.5316C43.5115 30.7337 43.9686 29.9871 44.5163 29.3115C45.0365 28.6817 45.5767 28.2782 46.1369 28.1011C46.3315 27.5018 46.6718 26.9623 47.1263 26.5325C47.5228 26.1599 48.0022 25.8905 48.5235 25.7476C49.0217 25.6142 49.5454 25.6142 50.0436 25.7476C50.555 25.8813 51.0237 26.1471 51.4042 26.5193C51.8281 26.9469 52.1457 27.471 52.3309 28.0482C52.5547 28.6893 52.6249 29.4505 52.5413 30.332C53.1767 30.0434 53.7959 29.7192 54.396 29.3608C55.1091 28.9313 55.7945 28.4559 56.448 27.9376C56.5662 27.8499 56.6632 27.8499 56.7447 27.9376H56.7459ZM46.3355 35.4909C46.8462 35.6327 47.2812 35.5883 47.6358 35.3575C47.9814 35.1362 48.28 34.8469 48.5141 34.5065C48.7999 34.0702 49.0246 33.5957 49.1819 33.0966C48.4727 33.0621 47.9246 32.9295 47.5377 32.6987C47.1997 32.5113 46.9013 32.2581 46.6594 31.9535C46.4353 31.6494 46.2905 31.2925 46.2386 30.9162C45.9673 31.2777 45.7391 31.6707 45.5589 32.0869C45.3609 32.5208 45.2274 32.9822 45.1629 33.456C45.1023 33.8797 45.1579 34.3123 45.3237 34.706C45.4892 35.0866 45.8272 35.3483 46.3379 35.4909H46.3355ZM49.8474 30.5976C50.1445 29.8885 50.2391 29.3568 50.1311 29.0026C50.0232 28.6484 49.8262 28.4481 49.5401 28.4016C49.2517 28.3583 48.9384 28.4509 48.5944 28.6817C48.2419 28.9325 47.9844 29.2986 47.8651 29.719C47.9161 29.958 48.0368 30.1759 48.2114 30.344C48.3679 30.4889 48.5534 30.5976 48.7552 30.6625C48.9461 30.7236 49.1468 30.7465 49.3462 30.7299C49.5203 30.7202 49.6907 30.6752 49.8474 30.5976Z" fill="#DB3944"/>
<path fill-rule="evenodd" clip-rule="evenodd" d="M67.083 32.4343C67.0952 32.4071 67.1128 32.3829 67.1348 32.3631C67.1568 32.3434 67.1827 32.3286 67.2107 32.3198C67.2387 32.3109 67.2683 32.3082 67.2974 32.3117C67.3265 32.3153 67.3546 32.3251 67.3797 32.3405C67.4349 32.3656 67.4784 32.4113 67.5015 32.4681C67.5246 32.5248 67.5254 32.5884 67.5039 32.6458C67.3053 33.3197 66.9258 34.0557 66.3655 34.8539C65.7927 35.6663 65.1469 36.4228 64.4364 37.1136C63.7392 37.8018 62.9582 38.3964 62.1125 38.8829C61.289 39.3517 60.5222 39.5865 59.8122 39.5873C59.3181 39.5873 58.9241 39.5027 58.6301 39.3337C58.3499 39.1821 58.1185 38.9518 57.9635 38.6702C57.8077 38.3724 57.7147 38.0449 57.6904 37.7086C57.6582 37.3322 57.6665 36.9533 57.7152 36.5787C57.7656 36.1845 57.8402 35.7939 57.9386 35.4092C58.0364 35.0189 58.1435 34.6555 58.2602 34.319C58.0285 34.3358 57.7921 34.349 57.5509 34.3586C57.3098 34.3683 57.0584 34.3815 56.7968 34.3983C56.5217 35.175 56.3191 35.9762 56.1915 36.7915C56.067 37.5597 56.0879 38.345 56.253 39.1053C55.8968 39.3036 55.5136 39.447 55.1159 39.5308C54.733 39.6186 54.3356 39.6186 53.9527 39.5308C53.5902 39.4416 53.2653 39.2364 53.026 38.9454C52.7707 38.6441 52.6182 38.1922 52.5686 37.5896C52.5215 37.0764 52.5615 36.5589 52.6868 36.0595C52.8323 35.4592 53.0143 34.8687 53.2317 34.2913C53.4626 33.6711 53.7305 33.0461 54.0355 32.4162C54.3404 31.7864 54.6494 31.1706 54.9622 30.5688C55.2774 29.9654 55.5824 29.3981 55.8771 28.8668C56.1719 28.3355 56.4193 27.8567 56.6195 27.4304C57.1248 26.4261 57.5593 25.3866 57.9197 24.3197C58.2111 23.4677 58.4263 22.5907 58.5628 21.6994C58.6707 20.9285 58.6707 20.277 58.5628 19.745C58.4548 19.2129 58.2365 18.8318 57.9079 18.6019C58.1217 18.3722 58.3595 18.1671 58.6171 17.9901C58.8681 17.8146 59.166 17.7219 59.4706 17.7244C60.3437 17.7244 60.9864 17.9103 61.3985 18.2821C61.8167 18.6658 62.0848 19.1898 62.1539 19.7582C62.2403 20.4459 62.2067 21.1437 62.0546 21.8196C61.8912 22.6046 61.6764 23.3776 61.4115 24.1334C61.1396 24.9139 60.8386 25.6671 60.5084 26.3931C60.1782 27.1191 59.8981 27.7397 59.668 28.255L59.6183 28.3608C60.1483 27.8599 60.7283 27.4168 61.3489 27.0386C61.9742 26.6576 62.6609 26.3923 63.3773 26.2549C63.9149 26.2383 64.4449 26.3866 64.8986 26.6804C65.307 26.9506 65.6259 27.3397 65.8135 27.797C66.0066 28.2858 66.0745 28.8164 66.0109 29.3392C65.9368 29.9456 65.7158 30.5238 65.3679 31.0219C64.9297 31.6472 64.3804 32.1837 63.7485 32.6038C63.0392 33.1006 62.133 33.5012 61.0297 33.8057C60.7996 34.5149 60.746 35.0734 60.869 35.4813C60.9919 35.8892 61.3591 36.0931 61.9706 36.0931C62.2496 36.0931 62.6338 35.9729 63.1196 35.7205C63.6386 35.4516 64.1352 35.1401 64.6043 34.789C65.1072 34.4152 65.5898 34.014 66.0499 33.587C66.4419 33.2417 66.7908 32.8489 67.0889 32.4174L67.083 32.4343ZM58.5722 31.7684C59.0322 31.7094 59.4842 31.5981 59.9198 31.4366C60.4539 31.2509 60.9643 31.0007 61.4399 30.6914C61.9064 30.3918 62.3237 30.0195 62.6763 29.588C63.0134 29.1885 63.198 28.6792 63.1964 28.1528C62.5363 28.3922 61.9118 28.7231 61.3406 29.136C60.2984 29.8739 59.3661 30.7605 58.5722 31.7684Z" fill="#DB3944"/>
<path fill-rule="evenodd" clip-rule="evenodd" d="M72.2014 18.6307C72.5131 18.6301 72.8212 18.6982 73.1045 18.8303C73.3834 18.9569 73.6355 19.1373 73.8468 19.3615C74.0572 19.5903 74.2247 19.8564 74.3409 20.1464C74.4657 20.451 74.5288 20.7781 74.5265 21.108C74.5298 21.4451 74.4667 21.7794 74.3409 22.0912C74.2247 22.3813 74.0572 22.6473 73.8468 22.8761C73.6359 23.1008 73.3837 23.2813 73.1045 23.4074C72.8212 23.5395 72.5131 23.6076 72.2014 23.6069C71.886 23.6104 71.5739 23.5422 71.2877 23.4074C71.0131 23.2793 70.7651 23.0989 70.5572 22.8761C70.1161 22.3971 69.8728 21.7642 69.8775 21.108C69.8757 20.7781 69.9388 20.4512 70.0631 20.1464C70.1793 19.8564 70.3468 19.5903 70.5572 19.3615C70.7655 19.1391 71.0133 18.9588 71.2877 18.8303C71.5739 18.6955 71.886 18.6273 72.2014 18.6307ZM70.7427 35.6232C71.0394 35.6232 71.3562 35.4861 71.6955 35.2109C72.0635 34.9073 72.4027 34.5693 72.7085 34.2012C73.0561 33.7891 73.382 33.3586 73.6849 32.9115C74.0001 32.4499 74.2724 32.0421 74.5017 31.6879C74.5139 31.6608 74.5317 31.6367 74.5537 31.6171C74.5758 31.5974 74.6016 31.5828 74.6297 31.5741C74.6577 31.5653 74.6872 31.5627 74.7162 31.5664C74.7453 31.57 74.7733 31.5799 74.7984 31.5953C74.8535 31.6204 74.8971 31.6661 74.9202 31.7228C74.9433 31.7796 74.9441 31.8432 74.9225 31.9006C74.6711 32.7045 74.3482 33.4833 73.9579 34.2277C73.5085 35.1108 72.9832 35.9519 72.3882 36.741C71.8255 37.4975 71.1687 38.1767 70.4342 38.7615C69.7336 39.3104 69.0288 39.5853 68.3195 39.5861C67.7261 39.5861 67.2533 39.4659 66.9011 39.2255C66.5514 38.9926 66.2832 38.653 66.1351 38.2555C65.9716 37.8006 65.9082 37.3148 65.9495 36.8323C65.9903 36.2431 66.0897 35.6596 66.2462 35.0907C66.444 34.3631 66.6379 33.7425 66.8278 33.2288C67.0177 32.7152 67.2234 32.1787 67.4448 31.6193C67.6686 31.0584 67.9204 30.4074 68.2001 29.6661C68.4799 28.9249 68.8093 27.9585 69.1883 26.7669C69.2484 26.6152 69.3466 26.4821 69.4732 26.3811C69.5338 26.3327 69.6033 26.2972 69.6776 26.2765C69.7519 26.2559 69.8295 26.2506 69.9058 26.2609C70.2141 26.2981 70.5197 26.3555 70.8208 26.4328C71.1164 26.5054 71.3967 26.6316 71.6482 26.8054C71.8854 26.9719 72.0666 27.2086 72.1671 27.4833C72.2751 27.767 72.2546 28.1216 72.1056 28.5471C71.9733 28.8308 71.7877 29.199 71.5489 29.6517C71.3101 30.1045 71.067 30.5917 70.8196 31.1133C70.5721 31.6374 70.3495 32.1651 70.1517 32.6963C69.9716 33.1611 69.8432 33.6449 69.7687 34.1387C69.7104 34.5738 69.7498 34.9284 69.8869 35.2025C70.0241 35.4765 70.3093 35.6167 70.7427 35.6232Z" fill="#DB3944"/>
<path fill-rule="evenodd" clip-rule="evenodd" d="M76.7026 26.2633C77.1034 26.3214 77.4872 26.4665 77.828 26.6888C78.0865 26.8693 78.291 27.1188 78.419 27.41C78.5462 27.721 78.5973 28.0588 78.5679 28.3944C78.5369 28.8011 78.4664 29.2037 78.3575 29.5964C78.6611 29.2342 78.9826 28.888 79.3209 28.5591C79.7176 28.1687 80.1347 27.8004 80.5703 27.4556C80.9743 27.1318 81.4041 26.8427 81.8552 26.5914C82.2776 26.3623 82.6448 26.2561 82.9569 26.2729C83.2609 26.3125 83.5625 26.3699 83.86 26.4448C84.1602 26.5159 84.445 26.6421 84.7004 26.8174C84.9377 26.9839 85.1189 27.2206 85.2194 27.4953C85.3258 27.779 85.3049 28.1336 85.1567 28.5591C85.0259 28.8427 84.8407 29.2109 84.6012 29.6637C84.3616 30.1164 84.1185 30.6036 83.8718 31.1253C83.6244 31.6494 83.4018 32.177 83.204 32.7083C83.0233 33.1729 82.8948 33.6568 82.821 34.1507C82.7627 34.5858 82.7997 34.9404 82.9321 35.2144C83.0645 35.4885 83.3446 35.6259 83.7725 35.6267C84.0692 35.6267 84.3872 35.4897 84.7182 35.2144C85.0887 34.9088 85.4324 34.571 85.7454 34.2048C86.0974 33.7976 86.4277 33.3715 86.7348 32.9283C87.05 32.4763 87.3219 32.064 87.5504 31.6914C87.5626 31.6644 87.5804 31.6402 87.6024 31.6206C87.6245 31.601 87.6504 31.5864 87.6784 31.5776C87.7064 31.5689 87.7359 31.5663 87.765 31.5699C87.794 31.5736 87.822 31.5835 87.8471 31.5989C87.9012 31.6251 87.9434 31.6712 87.9654 31.7278C87.9873 31.7845 87.9873 31.8475 87.9653 31.9042C87.7134 32.7078 87.3905 33.4867 87.0007 34.2312C86.5513 35.1147 86.0256 35.9558 85.4298 36.7446C84.8658 37.504 84.2047 38.1835 83.464 38.7651C82.7548 39.314 82.0456 39.5889 81.3363 39.5897C80.7429 39.5897 80.2567 39.4787 79.8776 39.2567C79.5095 39.0483 79.2151 38.7275 79.036 38.3396C78.8464 37.9048 78.7578 37.4314 78.7772 36.9561C78.7921 36.3803 78.879 35.8088 79.036 35.2553C79.1843 34.6631 79.3821 34.0849 79.627 33.5269C79.8587 33.0124 80.0652 32.5601 80.2464 32.1698C80.396 31.8588 80.5239 31.5375 80.6294 31.2082C80.7027 30.9606 80.6744 30.7743 80.542 30.6505C80.378 30.4903 80.1267 30.5215 79.7878 30.7443C79.3795 31.0311 79.0133 31.3755 78.7003 31.7672C78.2731 32.2876 77.8963 32.8487 77.575 33.4427C77.2147 34.0917 76.9204 34.7764 76.6967 35.4861C76.4784 36.1787 76.359 36.8997 76.3421 37.6268C76.317 38.304 76.4618 38.9766 76.7629 39.5812C76.2748 39.8396 75.7302 39.9678 75.1801 39.9539C74.5939 39.9593 74.0142 39.8273 73.4863 39.568C72.9714 39.3154 72.538 38.9189 72.2368 38.4249C71.9216 37.9185 71.8475 37.267 72.0146 36.4705C72.1757 35.6815 72.4289 34.9148 72.7687 34.1867C73.0903 33.5136 73.4323 32.8401 73.7948 32.1662C74.1573 31.4923 74.5036 30.7611 74.8338 29.9726C75.1983 29.0607 75.4638 28.1112 75.6258 27.1407C75.6717 26.8802 75.8069 26.6447 76.0076 26.476C76.0999 26.3892 76.2105 26.3249 76.331 26.288C76.4514 26.2512 76.5785 26.2427 76.7026 26.2633Z" fill="#DB3944"/>
<path fill-rule="evenodd" clip-rule="evenodd" d="M95.8425 26.2633C96.1391 26.2838 96.4331 26.3325 96.7208 26.4087C97.0103 26.4824 97.2859 26.6042 97.5364 26.7693C97.7713 26.9246 97.9563 27.1465 98.0683 27.4076C98.1865 27.6732 98.1865 28.0014 98.092 28.392C97.9974 28.7827 97.8213 29.3175 97.573 30.0531C97.3248 30.7888 97.0293 31.6265 96.6841 32.5665C96.339 33.5064 95.9619 34.4897 95.5588 35.5318C95.1557 36.5739 94.7586 37.5752 94.3768 38.55C93.9949 39.5248 93.6273 40.4299 93.2893 41.2628C92.9512 42.0958 92.6746 42.7605 92.4618 43.2569C92.1773 43.9232 91.8425 44.5662 91.4606 45.1801C91.0974 45.7656 90.6422 46.2866 90.1131 46.7222C89.5651 47.1679 88.9457 47.5143 88.2821 47.7463C87.4929 48.0097 86.6656 48.1357 85.8352 48.1189C84.7966 48.1189 83.9349 47.9282 83.25 47.5468C82.6258 47.2219 82.1003 46.7304 81.7299 46.1249C81.4037 45.5719 81.2446 44.9336 81.2725 44.2894C81.295 43.6432 81.5002 43.0172 81.8635 42.4865C82.2347 41.9359 82.7788 41.488 83.4959 41.1426C84.213 40.7973 85.0992 40.6422 86.1544 40.6775C85.5941 41.0853 85.2028 41.4932 84.9806 41.9011C84.7584 42.309 84.6634 42.6724 84.6957 42.9913C84.7087 43.1425 84.7529 43.2893 84.8254 43.4221C84.898 43.5548 84.9971 43.6706 85.1165 43.7618C85.3796 43.9628 85.7025 44.0663 86.0314 44.055C86.3782 44.055 86.745 43.9 87.1319 43.5899C87.5702 43.2262 87.9646 42.811 88.3069 42.353C88.7432 41.7782 89.1435 41.176 89.5055 40.5501C89.9098 39.8593 90.3014 39.1237 90.6805 38.3432C90.3511 38.6499 89.9854 38.9136 89.5918 39.1281C89.308 39.279 89.0097 39.3998 88.7017 39.4887C88.4892 39.5526 88.2685 39.5842 88.0468 39.5825C87.8731 39.5728 87.7537 39.5692 87.6922 39.5692C86.8522 39.5692 86.2631 39.2411 85.925 38.5848C85.587 37.9285 85.4593 37.1088 85.5421 36.1256C85.6506 35.0266 85.9084 33.9482 86.308 32.9211C86.7287 31.7828 87.2942 30.7055 87.9901 29.7166C88.6444 28.7706 89.4461 27.9396 90.3637 27.2561C91.2534 26.6015 92.1931 26.2737 93.1829 26.2729C93.5597 26.265 93.9353 26.319 94.2952 26.4328C94.5871 26.5262 94.8567 26.68 95.0872 26.8847C95.2676 26.4592 95.523 26.2553 95.8531 26.2729L95.8425 26.2633ZM93.0978 31.7131C93.2591 31.4861 93.3999 31.2447 93.5186 30.9919C93.6609 30.7061 93.7646 30.402 93.8271 30.088C93.8861 29.8054 93.8735 29.5121 93.7905 29.2358C93.7492 29.1045 93.6749 28.9864 93.575 28.8932C93.475 28.8001 93.3529 28.735 93.2207 28.7045C92.8921 28.6156 92.5115 28.7045 92.0966 28.9702C91.6329 29.2747 91.2196 29.652 90.872 30.088C90.4598 30.5918 90.1031 31.14 89.8081 31.7227C89.5096 32.2931 89.301 32.9076 89.1899 33.5437C89.0922 34.1655 89.0922 34.6311 89.1899 34.9404C89.2876 35.2497 89.4488 35.4272 89.6733 35.4729C89.8956 35.5178 90.1509 35.4424 90.4393 35.2469C90.7654 35.0119 91.0426 34.7137 91.2549 34.3695C91.5315 33.9331 91.7442 33.4582 91.8862 32.9595C92.0554 32.3726 92.1304 31.7618 92.1084 31.1506C92.3044 31.1738 92.4938 31.2372 92.6651 31.3369C92.8352 31.4278 92.9831 31.5563 93.0978 31.7131Z" fill="#DB3944"/>
</svg>
