<svg width="27" height="27" viewBox="0 0 27 27" fill="none" xmlns="http://www.w3.org/2000/svg">
<path d="M23.9834 22.3721C23.5096 24.268 21.8059 25.5979 19.8519 25.5979H7.14708C5.19304 25.5979 3.48942 24.268 3.01562 22.3721H23.9834Z" fill="#E6E9ED"/>
<path d="M24.7894 20.7588H2.2088C1.76323 20.7588 1.40234 21.1197 1.40234 21.5652C1.40234 22.0108 1.76323 22.3717 2.2088 22.3717H24.7894C25.235 22.3717 25.5959 22.0108 25.5959 21.5652C25.5959 21.1197 25.235 20.7588 24.7894 20.7588Z" fill="#E6E9ED"/>
<path d="M24.7877 20.7583C24.7877 20.7583 24.2808 19.6321 23.2465 18.2217L19.949 15.5164L16.7232 13.0971L11.7683 12.835C10.8695 12.9842 10.0357 13.2442 9.26671 13.5821L4.26469 17.5519C2.88203 19.2579 2.20703 20.7583 2.20703 20.7583H24.7877Z" fill="#DFB28B"/>
<path d="M18.7414 11.9991V11.8189C18.7414 11.1887 18.2309 10.6782 17.601 10.6782C17.2986 10.6782 17.0083 10.7983 16.7946 11.012L15.1797 12.627C14.2962 12.0318 12.87 10.9528 12.3341 9.87131C11.5349 8.25841 11.4655 6.64551 9.46757 6.64551C8.61152 6.64551 8.26515 7.13099 8.25789 8.27373C8.25063 9.47414 8.76878 10.61 9.5841 11.4806C10.5845 12.5499 12.024 13.0975 13.4885 13.0975H15.1123L16.799 15.1217C17.0079 15.3721 17.3168 15.5169 17.643 15.5169C18.2494 15.5169 18.7414 15.0249 18.7414 14.4185V14.1959C18.7414 13.5895 18.2494 13.0975 17.643 13.0975C18.2494 13.0975 18.7414 12.6056 18.7414 11.9991Z" fill="#FFEAA7"/>
<path d="M12.3338 9.87214C12.1362 9.47375 11.9834 9.07537 11.835 8.70117L11.5641 8.9044C10.7266 9.53262 9.7076 9.87214 8.66082 9.87214H8.56445C8.7955 10.4641 9.14429 11.0121 9.58381 11.4814C9.8822 11.8 10.2225 12.0661 10.5878 12.2915H10.677L10.8794 12.2407C11.756 12.0213 12.5915 11.6621 13.3532 11.177L13.3548 11.1758C12.9302 10.7637 12.5548 10.3185 12.3338 9.87214Z" fill="#FFEAA7"/>
<path d="M21.1605 19.1461C22.7193 19.1461 23.9831 17.8824 23.9831 16.3236C23.9831 14.7647 22.7193 13.501 21.1605 13.501C19.6016 13.501 18.3379 14.7647 18.3379 16.3236C18.3379 17.8824 19.6016 19.1461 21.1605 19.1461Z" fill="#FCD770"/>
<path d="M7.04612 19.1459C8.82768 19.1459 10.2719 17.7017 10.2719 15.9201C10.2719 14.1386 8.82768 12.6943 7.04612 12.6943C5.26456 12.6943 3.82031 14.1386 3.82031 15.9201C3.82031 17.7017 5.26456 19.1459 7.04612 19.1459Z" fill="#FCD770"/>
<path d="M7.0465 17.5334C7.93728 17.5334 8.6594 16.8113 8.6594 15.9205C8.6594 15.0297 7.93728 14.3076 7.0465 14.3076C6.15572 14.3076 5.43359 15.0297 5.43359 15.9205C5.43359 16.8113 6.15572 17.5334 7.0465 17.5334Z" fill="#FFEAA7"/>
<path d="M25.0597 20.3878C24.8794 20.0248 24.4496 19.2152 23.7544 18.2333C24.15 17.6978 24.3871 17.0382 24.3871 16.3228C24.3871 14.5442 22.9399 13.097 21.1613 13.097C20.3782 13.097 19.6597 13.3781 19.1 13.8442C19.0298 13.5539 18.8782 13.2946 18.6661 13.097C18.9609 12.8228 19.1452 12.4317 19.1452 11.9986V11.8184C19.1452 10.9668 18.4524 10.2744 17.6016 10.2744C17.1891 10.2744 16.8016 10.4349 16.5101 10.7269L15.1323 12.1047C14.2871 11.5115 13.1407 10.591 12.6956 9.69259C12.5258 9.35065 12.3891 9.00428 12.2569 8.66961C11.7851 7.47606 11.2976 6.24219 9.46774 6.24219C7.86734 6.24219 7.85806 7.7692 7.85484 8.27122C7.84718 9.52283 8.35726 10.7603 9.29032 11.7563C9.64274 12.1329 10.0556 12.4498 10.5065 12.7107C10.1149 12.8228 9.72903 12.9591 9.34879 13.1152C8.72218 12.6003 7.92097 12.2906 7.04839 12.2906C5.04718 12.2906 3.41935 13.9188 3.41935 15.9196C3.41935 16.489 3.55484 17.0257 3.78952 17.5059C2.77177 18.8007 2.16371 19.9378 1.94032 20.3878C1.40282 20.5107 1 20.9906 1 21.5648C1 22.2317 1.54274 22.7744 2.20968 22.7744H2.71532C3.33387 24.6882 5.11169 26.0003 7.14758 26.0003H19.8524C21.8883 26.0003 23.6661 24.6882 24.2847 22.7744H24.7903C25.4573 22.7744 26 22.2317 26 21.5648C26 20.9906 25.5972 20.5107 25.0597 20.3878ZM21.1613 13.9035C22.4956 13.9035 23.5806 14.9886 23.5806 16.3228C23.5806 17.6571 22.4956 18.7422 21.1613 18.7422C19.827 18.7422 18.7419 17.6571 18.7419 16.3228C18.7419 14.9886 19.827 13.9035 21.1613 13.9035ZM17.421 13.5003H17.644C18.027 13.5003 18.3387 13.8119 18.3387 14.1954V14.418C18.3387 14.8015 18.027 15.1132 17.6431 15.1132C17.4363 15.1132 17.2419 15.022 17.1097 14.8632L15.9738 13.5003H17.421ZM17.0802 11.2966C17.2177 11.1595 17.4073 11.0809 17.6016 11.0809C18.0081 11.0809 18.3387 11.4115 18.3387 11.8184V11.9986C18.3387 12.3821 18.027 12.6938 17.6435 12.6938H16.0302C15.9782 12.6623 15.9073 12.6184 15.8157 12.5607L17.0802 11.2966ZM11.7492 12.397C12.2883 12.2083 12.8052 11.9648 13.2988 11.6744C13.7218 12.0607 14.1702 12.4111 14.5661 12.6942H13.4891C12.8823 12.6938 12.2952 12.5873 11.7492 12.397ZM9.46774 7.04864C10.5593 7.04864 10.9181 7.54461 11.3444 8.56477L11.323 8.5809C10.6085 9.11638 9.73387 9.42324 8.84315 9.46033C8.72177 9.07324 8.65927 8.67485 8.66169 8.27606C8.66855 7.13896 9.01532 7.04864 9.46774 7.04864ZM9.18105 10.245C10.0657 10.1555 10.923 9.83896 11.6544 9.3309C11.7504 9.56678 11.8516 9.80549 11.9726 10.0503C12.1476 10.4031 12.4089 10.7519 12.7093 11.0849C12.1024 11.4208 11.4573 11.6797 10.7819 11.8486L10.6798 11.874C10.3867 11.6809 10.1157 11.4587 9.87782 11.2047C9.59919 10.9067 9.36734 10.5833 9.18105 10.245ZM9.83871 15.5164H9.02379C8.8629 14.7277 8.24032 14.1051 7.45161 13.9442V13.1293C8.68508 13.3071 9.66089 14.2829 9.83871 15.5164ZM5.07298 16.3228C5.23387 17.1115 5.85645 17.7341 6.64516 17.895V18.7099C5.41169 18.5321 4.43589 17.5563 4.25806 16.3228H5.07298ZM7.04839 14.7099C7.71532 14.7099 8.25806 15.2527 8.25806 15.9196C8.25806 16.5865 7.71532 17.1293 7.04839 17.1293C6.38145 17.1293 5.83871 16.5865 5.83871 15.9196C5.83871 15.2527 6.38145 14.7099 7.04839 14.7099ZM7.45161 17.895C8.24032 17.7341 8.8629 17.1115 9.02379 16.3228H9.83871C9.66089 17.5563 8.68508 18.5321 7.45161 18.7099V17.895ZM6.64516 13.1293V13.9442C5.85645 14.1051 5.23387 14.7277 5.07298 15.5164H4.25806C4.43589 14.2829 5.41169 13.3071 6.64516 13.1293ZM7.04839 19.5486C9.0496 19.5486 10.6774 17.9204 10.6774 15.9196C10.6774 15.1031 10.4028 14.3511 9.94597 13.7438C10.5355 13.522 11.1407 13.3563 11.7524 13.2494C12.3052 13.4128 12.8903 13.5003 13.4895 13.5003H14.9242L16.4903 15.3793C16.7766 15.7228 17.1972 15.9196 17.644 15.9196C17.756 15.9196 17.8645 15.9051 17.9694 15.8817C17.9492 16.0265 17.9355 16.1728 17.9355 16.3228C17.9355 18.1015 19.3827 19.5486 21.1613 19.5486C21.9282 19.5486 22.6327 19.2785 23.1867 18.8301C23.6101 19.4406 23.9262 19.9781 24.1319 20.3551H2.86815C3.13871 19.8587 3.6004 19.0845 4.2504 18.2285C4.91653 19.0341 5.92339 19.5486 7.04839 19.5486ZM19.8524 25.1938H7.14758C5.55363 25.1938 4.15202 24.2208 3.57258 22.7744H23.4274C22.848 24.2208 21.4464 25.1938 19.8524 25.1938ZM24.7903 21.968H2.20968C1.9871 21.968 1.80645 21.7869 1.80645 21.5648C1.80645 21.3426 1.9871 21.1615 2.20968 21.1615H24.7903C25.0129 21.1615 25.1935 21.3426 25.1935 21.5648C25.1935 21.7869 25.0129 21.968 24.7903 21.968Z" fill="black"/>
<path d="M21.1598 17.9348C22.0493 17.9348 22.7727 17.2114 22.7727 16.3219H21.9662C21.9662 16.7666 21.6045 17.1283 21.1598 17.1283C20.715 17.1283 20.3533 16.7666 20.3533 16.3219C20.3533 15.8771 20.715 15.5154 21.1598 15.5154V14.709C20.2703 14.709 19.5469 15.4324 19.5469 16.3219C19.5469 17.2114 20.2703 17.9348 21.1598 17.9348Z" fill="black"/>
<path d="M12.6953 6.64516H13.5018C13.5018 6.32419 13.6235 6.18226 13.8078 5.96734C14.0308 5.70726 14.3082 5.38387 14.3082 4.76411C14.3082 4.14435 14.0308 3.82056 13.8078 3.56048C13.6235 3.34556 13.5018 3.20363 13.5018 2.88226C13.5018 2.56089 13.6235 2.41855 13.8082 2.20363C14.0308 1.94355 14.3082 1.61976 14.3082 1H13.5018C13.5018 1.32137 13.38 1.46371 13.1953 1.67863C12.9727 1.93871 12.6953 2.2625 12.6953 2.88226C12.6953 3.50202 12.9727 3.8254 13.1953 4.08548C13.38 4.30081 13.5018 4.44274 13.5018 4.76411C13.5018 5.08508 13.38 5.22702 13.1957 5.44234C12.9727 5.70242 12.6953 6.02581 12.6953 6.64516Z" fill="black"/>
<path d="M15.918 8.66079H16.7244C16.7244 8.33982 16.8462 8.19788 17.0305 7.98296C17.2535 7.72288 17.5309 7.3995 17.5309 6.77974C17.5309 6.15998 17.2535 5.83619 17.0305 5.57611C16.8462 5.36119 16.7244 5.21925 16.7244 4.89788C16.7244 4.57651 16.8462 4.43417 17.0309 4.21925C17.2535 3.95917 17.5309 3.63538 17.5309 3.01562H16.7244C16.7244 3.337 16.6026 3.47933 16.418 3.69425C16.1954 3.95433 15.918 4.27813 15.918 4.89788C15.918 5.51764 16.1954 5.84103 16.418 6.10111C16.6026 6.31603 16.7244 6.45837 16.7244 6.77974C16.7244 7.10071 16.6026 7.24264 16.4184 7.45796C16.1954 7.71804 15.918 8.04143 15.918 8.66079Z" fill="black"/>
<path d="M19.5469 7.85415H20.3533C20.3533 7.53318 20.4751 7.39124 20.6594 7.17632C20.8824 6.91624 21.1598 6.59286 21.1598 5.9731C21.1598 5.35334 20.8824 5.02955 20.6594 4.76947C20.4751 4.55455 20.3533 4.41261 20.3533 4.09124C20.3533 3.76987 20.4751 3.62753 20.6598 3.41261C20.8824 3.15253 21.1598 2.82874 21.1598 2.20898H20.3533C20.3533 2.53036 20.2316 2.67269 20.0469 2.88761C19.8243 3.14769 19.5469 3.47148 19.5469 4.09124C19.5469 4.711 19.8243 5.03439 20.0469 5.29447C20.2316 5.50939 20.3533 5.65173 20.3533 5.9731C20.3533 6.29406 20.2316 6.436 20.0473 6.65132C19.8243 6.9114 19.5469 7.23479 19.5469 7.85415Z" fill="black"/>
<path d="M13.5018 18.7422H12.6953V19.5486H13.5018V18.7422Z" fill="black"/>
<path d="M14.3065 16.3223H13.5V17.1287H14.3065V16.3223Z" fill="black"/>
<path d="M12.2908 14.3066H11.4844V15.1131H12.2908V14.3066Z" fill="black"/>
<path d="M16.7244 18.7422H15.918V19.5486H16.7244V18.7422Z" fill="black"/>
<path d="M15.9197 17.1289H15.1133V17.9354H15.9197V17.1289Z" fill="black"/>
<path d="M12.2908 17.1289H11.4844V17.9354H12.2908V17.1289Z" fill="black"/>
<path d="M14.3065 14.709H13.5V15.5154H14.3065V14.709Z" fill="black"/>
</svg>
