<svg width="35" height="35" viewBox="0 0 35 35" fill="none" xmlns="http://www.w3.org/2000/svg">
<path d="M2.43434 24.6571C2.23283 20.8091 3.23532 17.3459 5.67754 14.3345C8.11976 11.3232 11.2914 9.55705 15.1774 8.89499C15.0565 8.17768 14.9376 7.47911 14.8218 6.77956C14.7754 6.50033 14.721 6.2211 14.6948 5.9399C14.6682 5.69432 14.695 5.446 14.7734 5.21128C14.8518 4.97657 14.9801 4.76077 15.1498 4.57809C15.3195 4.39541 15.5267 4.24999 15.7579 4.15138C15.9892 4.05278 16.2391 4.00324 16.4912 4.00601C17.132 3.99614 17.7728 4.00009 18.4136 4.00601C19.6528 4.01489 20.4709 4.97789 20.2603 6.16782C20.1203 6.95716 19.9863 7.7465 19.8513 8.53091C19.8331 8.63846 19.8301 8.74798 19.817 8.8871C20.2684 8.98576 20.7077 9.06667 21.1409 9.17225C21.5741 9.27782 21.9802 9.40313 22.4507 9.53337C21.3172 11.1121 20.885 12.8091 21.2417 14.6641C21.5001 16.0568 22.2246 17.3256 23.301 18.2704C25.2889 20.0573 28.7074 20.7548 31.7158 18.7045C32.2568 19.6172 32.7364 22.9413 32.5682 24.6552L2.43434 24.6571ZM11.3237 12.749C11.1649 12.808 11.0098 12.8762 10.8592 12.9532C8.45929 14.4214 6.71528 16.4362 5.69567 19.0203C5.39342 19.7948 5.21408 20.6197 5.00552 21.4287C4.89973 21.8372 5.11232 22.1569 5.47099 22.2181C5.82967 22.2793 6.10472 22.0503 6.1954 21.634C6.21051 21.5619 6.22966 21.4899 6.24376 21.4179C6.76968 18.742 8.11371 16.5388 10.2567 14.8072C10.6597 14.4796 11.1101 14.2023 11.5443 13.9103C11.8053 13.7346 11.9393 13.488 11.8042 13.2196C11.7075 13.0262 11.4808 12.896 11.3237 12.749Z" fill="#DDAF0D"/>
<path d="M17.4925 25.8648H34.1165C34.8308 25.8648 34.997 26.0306 34.9981 26.7371C34.9981 27.0942 34.988 27.4514 34.9981 27.8076C35.0085 27.9491 34.9766 28.0906 34.9063 28.2146C34.836 28.3387 34.7303 28.44 34.6021 28.5062C33.8747 28.9443 33.1593 29.4011 32.4259 29.8283C32.2443 29.9332 32.0381 29.9903 31.8274 29.9941C22.2788 30.002 12.7303 30.002 3.18169 29.9941C2.97124 29.991 2.76515 29.9349 2.58322 29.8313C1.84975 29.404 1.13541 28.9433 0.405971 28.5111C0.273202 28.4416 0.164215 28.3355 0.0925614 28.2058C0.0209078 28.0762 -0.0102505 27.9288 0.00296472 27.7819C0.0180775 27.4011 0.00296472 27.0192 0.00296472 26.6384C0.00296472 26.0602 0.204474 25.8658 0.795886 25.8658H17.4925V25.8648Z" fill="#DDAF0D"/>
<path d="M31.5162 9.63104L32.168 8.94727L33.0516 9.74352L32.3131 10.5398C33.3418 12.2457 33.508 14.0139 32.6154 15.8145C31.9474 17.1643 30.8522 18.0701 29.3913 18.5289C26.4534 19.4554 23.317 17.7652 22.5069 14.8358C21.6818 11.854 23.6595 8.63943 27.1234 8.15793V7.56593L26.5632 7.52744V6.39375H28.9349V7.53928H28.3818V8.17076C29.5593 8.31624 30.658 8.82812 31.5162 9.63104ZM28.3445 11.1111H27.1738V15.2038H28.3445V11.1111Z" fill="#DDAF0D"/>
</svg>
