<svg width="13" height="13" viewBox="0 0 13 13" fill="none" xmlns="http://www.w3.org/2000/svg">
<path d="M5.52052 0.000176127C3.75273 0.000931763 2.09219 0.848162 1.05377 2.27904C0.0152217 3.71007 -0.275897 5.55174 0.270719 7.23317C0.81749 8.91479 2.13567 10.2331 3.81702 10.7794C5.49825 11.3256 7.33929 11.0338 8.76955 9.99445L11.5203 12.7461C11.7392 12.965 12.0584 13.0506 12.3575 12.9705C12.6567 12.8902 12.8902 12.6566 12.9705 12.3573C13.0506 12.0581 12.965 11.7388 12.7461 11.5198L9.99542 8.76819C10.7988 7.66358 11.1642 6.30025 11.0211 4.94177C10.8779 3.58328 10.2364 2.32619 9.22038 1.41336C8.2045 0.500534 6.88617 -0.00300426 5.52073 1.3486e-05L5.52052 0.000176127ZM5.52052 9.3165C4.51524 9.3165 3.55119 8.91707 2.84035 8.20601C2.12952 7.49494 1.73022 6.53058 1.73022 5.52497C1.73022 4.51937 2.12952 3.555 2.84035 2.84394C3.55119 2.13287 4.51524 1.73345 5.52052 1.73345C6.52581 1.73345 7.48986 2.13287 8.2007 2.84394C8.91153 3.555 9.31083 4.51937 9.31083 5.52497C9.30962 6.53011 8.91003 7.4939 8.19934 8.20465C7.48882 8.91556 6.52538 9.3153 5.52052 9.3165Z" fill="#4E4E4E"/>
</svg>
