<svg width="27" height="27" viewBox="0 0 27 27" fill="none" xmlns="http://www.w3.org/2000/svg">
<path d="M21.1898 6.49249C21.096 6.49259 21.0057 6.52824 20.937 6.59227C20.8684 6.65629 20.8266 6.74392 20.8201 6.83753L20.5516 10.8767C20.5504 10.8849 20.5495 10.8931 20.5488 10.9014V11.649C20.5486 11.6982 20.5582 11.7469 20.5771 11.7924C20.5959 11.8378 20.6236 11.8791 20.6585 11.9137C20.6934 11.9484 20.7349 11.9757 20.7805 11.9942C20.8261 12.0127 20.8749 12.022 20.9241 12.0214L21.9403 12.0074C22.0273 12.0063 22.1111 11.9748 22.1772 11.9182C22.2433 11.8617 22.2874 11.7837 22.3018 11.6979L22.9866 7.61494C23.0841 7.03374 22.6229 6.49219 22.0334 6.49219L21.1898 6.49249Z" fill="#FCD770"/>
<path d="M19.0874 4.96778C19.0386 4.96759 18.9903 4.97702 18.9452 4.9955C18.9001 5.01398 18.8591 5.04114 18.8245 5.07547C18.7899 5.1098 18.7624 5.15063 18.7436 5.19558C18.7248 5.24053 18.715 5.28873 18.7148 5.33746V11.6495C18.7147 11.6985 18.7242 11.747 18.7428 11.7923C18.7615 11.8375 18.7889 11.8787 18.8235 11.9133C18.8582 11.9479 18.8993 11.9753 18.9446 11.994C18.9899 12.0126 19.0384 12.0221 19.0874 12.022H20.9226C20.9713 12.0218 21.0195 12.012 21.0645 11.9932C21.1095 11.9744 21.1503 11.9469 21.1846 11.9123C21.2189 11.8777 21.2461 11.8367 21.2646 11.7916C21.2831 11.7465 21.2925 11.6983 21.2923 11.6495V10.9156L21.6621 5.36211C21.6653 5.31157 21.6581 5.2609 21.641 5.21325C21.6238 5.1656 21.5971 5.122 21.5625 5.08506C21.5278 5.04812 21.486 5.01862 21.4395 4.99846C21.3931 4.97829 21.343 4.96786 21.2923 4.96778H19.0874Z" fill="#FCD770"/>
<path d="M17.4174 3.21192C17.3685 3.21173 17.3199 3.22125 17.2747 3.2399C17.2294 3.25855 17.1882 3.28598 17.1536 3.3206C17.119 3.35522 17.0916 3.39633 17.0729 3.4416C17.0542 3.48687 17.0447 3.53538 17.0449 3.58434V11.649C17.0447 11.698 17.0542 11.7465 17.0729 11.7917C17.0916 11.837 17.119 11.8782 17.1536 11.9128C17.1882 11.9474 17.2294 11.9748 17.2747 11.9934C17.3199 12.0121 17.3685 12.0216 17.4174 12.0214H19.6224C19.6714 12.0216 19.7199 12.0121 19.7652 11.9934C19.8105 11.9748 19.8516 11.9474 19.8862 11.9128C19.9209 11.8782 19.9483 11.837 19.9669 11.7917C19.9856 11.7465 19.9951 11.698 19.9949 11.649V3.58434C19.9951 3.53538 19.9856 3.48687 19.9669 3.4416C19.9483 3.39633 19.9209 3.35522 19.8862 3.3206C19.8516 3.28598 19.8105 3.25855 19.7652 3.2399C19.7199 3.22125 19.6714 3.21173 19.6224 3.21192H17.4174Z" fill="#FCD770"/>
<path d="M14.8277 3.98804C14.7733 3.97546 14.7168 3.97535 14.6623 3.98766C14.6079 3.99996 14.5569 4.02437 14.5132 4.05911C14.4695 4.09386 14.4342 4.13805 14.4099 4.18833C14.3856 4.23861 14.373 4.29369 14.373 4.34951V5.80909V15.1635C14.3732 15.2123 14.383 15.2605 14.4018 15.3055C14.4206 15.3504 14.4481 15.3912 14.4827 15.4255C14.5173 15.4599 14.5583 15.4871 14.6034 15.5055C14.6485 15.524 14.6968 15.5334 14.7456 15.5332H17.4189C17.5169 15.5329 17.6107 15.4938 17.68 15.4246C17.7493 15.3553 17.7883 15.2615 17.7887 15.1635V10.9026V4.9684C17.7887 4.88451 17.7602 4.80312 17.708 4.73747C17.6558 4.67182 17.5828 4.6258 17.5011 4.60692L14.8277 3.98804Z" fill="#FCD770"/>
<path d="M7.44876 2.01864L5.19449 2.76075C5.11256 2.78772 5.04258 2.84238 4.99659 2.91534C4.9506 2.98831 4.93147 3.07502 4.9425 3.16056L5.98883 10.9514C6.00044 11.0406 6.04406 11.1225 6.11157 11.182C6.17909 11.2414 6.2659 11.2743 6.35587 11.2745H8.51975C8.57193 11.2743 8.62348 11.2631 8.67103 11.2416C8.71858 11.2201 8.76106 11.1888 8.79569 11.1498C8.83033 11.1108 8.85635 11.0648 8.87204 11.0151C8.88774 10.9653 8.89276 10.9128 8.88679 10.861L7.93358 2.32808C7.92721 2.2734 7.90875 2.22084 7.87954 2.17417C7.85032 2.12751 7.81108 2.08788 7.76467 2.05826C7.71825 2.02864 7.66582 2.00975 7.61118 2.00289C7.55654 1.99604 7.50106 2.0014 7.44876 2.01864Z" fill="#FCD770"/>
<path d="M13.0343 2.50569L10.1966 3.2478C10.1164 3.26888 10.0456 3.31623 9.99548 3.38224C9.94534 3.44825 9.91875 3.52913 9.91996 3.61201L9.9583 8.0373C9.95839 8.11728 9.98433 8.19507 10.0323 8.25911L11.4155 10.0939V15.6036C11.4157 15.6523 11.4254 15.7005 11.4443 15.7455C11.4631 15.7904 11.4906 15.8312 11.5252 15.8656C11.5597 15.8999 11.6008 15.9271 11.6459 15.9456C11.691 15.964 11.7393 15.9734 11.788 15.9732H13.1274C13.2254 15.9729 13.3192 15.9339 13.3885 15.8646C13.4578 15.7954 13.4969 15.7015 13.4972 15.6036V2.86442C13.4971 2.80794 13.4841 2.75226 13.4592 2.70157C13.4343 2.65088 13.3981 2.60652 13.3535 2.57192C13.3088 2.53732 13.2568 2.51336 13.2015 2.50188C13.1462 2.4904 13.089 2.49171 13.0343 2.50569H13.0343Z" fill="#FCD770"/>
<path d="M7.8312 4.39453C7.77879 4.39437 7.72694 4.40534 7.67906 4.42667C7.63118 4.44799 7.58836 4.47921 7.55343 4.51828C7.51849 4.55734 7.49223 4.60337 7.47637 4.65331C7.46052 4.70326 7.45542 4.75598 7.46143 4.80803L8.14894 10.9421C8.15874 11.0332 8.20194 11.1175 8.27022 11.1787C8.3385 11.2399 8.42702 11.2736 8.51872 11.2734H9.58148C9.63045 11.2736 9.67898 11.2642 9.72426 11.2455C9.76954 11.2269 9.81068 11.1994 9.84531 11.1648C9.87994 11.1302 9.90737 11.089 9.92603 11.0438C9.94468 10.9985 9.95419 10.95 9.954 10.901V8.40632H10.3293C10.3785 8.40651 10.4272 8.39694 10.4727 8.37812C10.5181 8.3593 10.5594 8.33161 10.5941 8.2967C10.6287 8.26179 10.6561 8.22034 10.6746 8.17475C10.6931 8.12917 10.7023 8.08035 10.7018 8.03116L10.6716 4.76148C10.6706 4.66402 10.6312 4.5709 10.562 4.50223C10.4928 4.43356 10.3994 4.39487 10.3019 4.39453H7.8312Z" fill="#FCD770"/>
<path d="M9.58267 7.66602C9.4847 7.66636 9.39085 7.70544 9.32158 7.7747C9.25231 7.84395 9.21324 7.93776 9.21289 8.0357V15.6047C9.21324 15.7026 9.25231 15.7965 9.32158 15.8657C9.39085 15.935 9.4847 15.974 9.58267 15.9744H11.7904C11.8883 15.974 11.9822 15.935 12.0515 15.8657C12.1207 15.7965 12.1598 15.7026 12.1601 15.6047V8.0357C12.1598 7.93776 12.1207 7.84395 12.0515 7.7747C11.9822 7.70544 11.8883 7.66636 11.7904 7.66602H9.58267Z" fill="#FCD770"/>
<path d="M13.1295 5.43848C13.0316 5.43882 12.9377 5.4779 12.8685 5.54716C12.7992 5.61641 12.7601 5.71022 12.7598 5.80816V16.206C12.7596 16.2547 12.769 16.303 12.7875 16.348C12.806 16.3931 12.8332 16.4342 12.8675 16.4688C12.9018 16.5033 12.9426 16.5308 12.9876 16.5496C13.0326 16.5684 13.0808 16.5782 13.1295 16.5784H15.3373C15.386 16.5782 15.4342 16.5684 15.4792 16.5496C15.5241 16.5308 15.565 16.5033 15.5993 16.4688C15.6336 16.4342 15.6608 16.3931 15.6793 16.348C15.6978 16.303 15.7072 16.2547 15.707 16.206V5.80816C15.7067 5.71022 15.6676 5.61641 15.5983 5.54716C15.5291 5.4779 15.4352 5.43882 15.3373 5.43848H13.1295Z" fill="#FCD770"/>
<path d="M4.96627 6.49317C4.37681 6.49317 3.91554 7.03472 4.01307 7.61592C4.28004 9.20705 4.57353 10.7893 4.79097 12.3726C4.80105 12.4432 4.83128 12.5094 4.87804 12.5633C4.9248 12.6171 4.9861 12.6564 5.0546 12.6764C5.1231 12.6963 5.1959 12.696 5.26428 12.6757C5.33265 12.6553 5.39371 12.6157 5.44013 12.5615L6.63985 11.143C6.6736 11.1033 6.69861 11.057 6.71324 11.0069C6.72787 10.9569 6.7318 10.9044 6.72477 10.8527L6.18243 6.81357C6.17015 6.7244 6.12588 6.64274 6.05785 6.58379C5.98982 6.52485 5.90268 6.49265 5.81265 6.49317H4.96627Z" fill="#FCD770"/>
<path d="M5.70926 10.5322C5.09844 10.5322 4.61673 11.0827 4.69853 11.6878L6.30364 23.5753C6.4135 24.3882 7.11298 24.9993 7.9334 24.9993H11.3271C11.4028 24.9994 11.4766 24.9763 11.5388 24.9332C11.601 24.8902 11.6485 24.8292 11.675 24.7583C11.9522 24.0213 12.6605 23.4959 13.4992 23.4959C14.3379 23.4959 15.0532 24.0237 15.3563 24.7693C15.3844 24.8376 15.4323 24.896 15.4937 24.937C15.5552 24.978 15.6276 24.9997 15.7015 24.9993H19.0651C19.8855 24.9993 20.5877 24.3882 20.6975 23.5753L22.3027 11.6878C22.3845 11.0827 21.9027 10.5322 21.2919 10.5322H17.4189C17.3276 10.532 17.2394 10.5653 17.1712 10.6259C17.103 10.6866 17.0595 10.7702 17.0491 10.8608C16.9488 11.7586 16.7148 12.8162 16.1863 13.613C15.6577 14.4097 14.8757 14.9712 13.4992 14.9712C12.1227 14.9712 11.3434 14.4097 10.8149 13.613C10.2864 12.8162 10.0524 11.7586 9.9521 10.8608C9.94168 10.7702 9.8982 10.6866 9.82998 10.6259C9.76177 10.5653 9.6736 10.532 9.58233 10.5322H5.70926Z" fill="#E6E9ED"/>
<path d="M5.59375 18.3223L5.91915 20.7321H10.532C10.63 20.7319 10.724 20.6929 10.7934 20.6237C10.8627 20.5545 10.9019 20.4606 10.9023 20.3626V18.6918C10.9019 18.5938 10.8627 18.4999 10.7934 18.4307C10.724 18.3614 10.63 18.3225 10.532 18.3223H5.59375ZM16.4681 18.3223C16.3701 18.3225 16.2761 18.3614 16.2067 18.4307C16.1374 18.4999 16.0982 18.5938 16.0978 18.6918V20.3626C16.0982 20.4606 16.1374 20.5545 16.2067 20.6237C16.2761 20.6929 16.3701 20.7319 16.4681 20.7321H21.081L21.4064 18.3223H16.4681Z" fill="#DFB28B"/>
<path d="M5.59375 18.3223L5.69376 19.0642H10.532C10.63 19.0644 10.724 19.1034 10.7934 19.1726C10.8627 19.2418 10.9019 19.3357 10.9023 19.4337V18.6918C10.9019 18.5938 10.8627 18.4999 10.7934 18.4307C10.724 18.3615 10.63 18.3225 10.532 18.3223H5.59375ZM16.4681 18.3223C16.3701 18.3225 16.2761 18.3615 16.2067 18.4307C16.1374 18.4999 16.0982 18.5938 16.0978 18.6918V19.4337C16.0982 19.3357 16.1374 19.2418 16.2067 19.1726C16.2761 19.1034 16.3701 19.0644 16.4681 19.0642H21.3063L21.4064 18.3223H16.4681Z" fill="#E6E9ED"/>
<path d="M13.4997 16.4668C12.8311 16.4672 12.2022 16.7691 11.7821 17.2812C11.2248 17.3383 10.866 17.423 10.5957 17.5811C10.3013 17.7534 10.1602 18.091 10.1602 18.3231V20.5467C10.1602 21.1568 10.6652 21.661 11.2755 21.661H15.726C16.3363 21.661 16.8413 21.1568 16.8413 20.5467V18.3231C16.8413 18.0914 16.6996 17.7567 16.4058 17.584C16.1358 17.4254 15.7771 17.3376 15.2209 17.2805C14.8002 16.7687 14.1703 16.4669 13.5018 16.4668C13.5011 16.4668 13.5004 16.4668 13.4996 16.4668H13.4997Z" fill="#FFEAA7"/>
<path d="M19.0648 25C19.8852 25 20.587 24.3884 20.6968 23.5755L22.3006 11.6989H22.3021L22.9869 7.61607C23.0845 7.03487 22.6234 6.49376 22.0339 6.49376H21.5861L21.6614 5.36275C21.6749 5.14932 21.505 4.96821 21.2911 4.96787H19.996V3.58545C19.9968 3.37944 19.8296 3.21225 19.6235 3.21303H17.4182C17.2121 3.21229 17.0449 3.37944 17.0457 3.58545V4.50199L14.8273 3.98757C14.5948 3.93387 14.3722 4.11045 14.3722 4.34911V5.43882H13.4989V2.86525C13.4984 2.62343 13.2702 2.44678 13.0358 2.50661L10.1978 3.24854C10.0348 3.29144 9.92175 3.43867 9.92173 3.60718V4.39549H8.16356L7.9331 2.32837C7.91102 2.13879 7.75144 2.00441 7.57292 2.00015C7.53172 1.99904 7.49007 2.00517 7.44823 2.01897L5.19363 2.7609C5.02462 2.81657 4.91869 2.98441 4.94144 3.16085L5.38931 6.49374H4.96608C4.37661 6.49374 3.91555 7.03485 4.01307 7.61605L4.69793 11.6988H4.69942L6.30322 23.5755C6.41308 24.3883 7.11268 25 7.9331 25L11.2748 24.9942C11.4466 25.0187 11.6125 24.9209 11.6741 24.7587C11.9513 24.0216 12.6602 23.4966 13.4989 23.4966C14.3376 23.4966 15.0487 24.0216 15.3259 24.7587C15.3878 24.9206 15.5536 25.0181 15.7253 24.9934L19.0648 25ZM7.24531 2.86523L8.10338 10.5323H6.68221L5.71978 3.36879L7.24531 2.86523ZM12.759 3.34705V14.9093C12.5409 14.8703 12.3416 14.8141 12.1589 14.7419V8.03483C12.1582 7.83095 11.9932 7.66603 11.7893 7.66531H10.6979L10.6609 4.7628V3.8948L12.759 3.34705ZM17.7878 3.95494H19.2532V4.96785H19.0865C18.8815 4.96711 18.7147 5.13314 18.714 5.33809V10.5323H17.7878V3.95494ZM15.115 4.81497L17.0457 5.26418V10.8859C16.9439 11.7784 16.7092 12.8235 16.1854 13.6131C16.0457 13.8238 15.8879 14.018 15.7064 14.1898V5.80904C15.7057 5.60516 15.5407 5.43953 15.3368 5.4388H15.115V4.81497ZM8.24687 5.13811H9.92169V5.51053H9.92821L9.95503 7.66531H9.5818C9.37788 7.66605 9.21292 7.83095 9.2122 8.03483V10.5323H8.84911L8.24687 5.13811ZM20.8939 5.7105L20.575 10.5323H19.4561V5.7105H20.8939ZM13.4989 6.18145H14.9643V14.689C14.5665 14.8687 14.0873 14.9716 13.4989 14.9716V6.18145ZM4.96608 7.23566H5.4886L5.9314 10.5323H5.70891C5.55331 10.5323 5.40574 10.5683 5.27408 10.6316L4.74721 7.49287C4.72324 7.34996 4.82112 7.23566 4.96608 7.23566ZM21.5367 7.23566H22.0339C22.1788 7.23566 22.2767 7.35001 22.2528 7.49287L21.7259 10.6316C21.6016 10.5719 21.4631 10.5368 21.3171 10.533L21.5367 7.23566ZM9.9543 8.40797H11.4168V14.3007C11.182 14.1034 10.9853 13.8705 10.8145 13.6131C10.2908 12.8235 10.0561 11.7784 9.9543 10.8859V8.40797ZM20.6569 18.3233H16.8406C16.8406 18.0907 16.6978 17.7536 16.4021 17.5814C16.1356 17.4261 15.7831 17.3388 15.2397 17.2814L15.2071 17.2633C14.7861 16.7617 14.1601 16.4672 13.4989 16.4671C12.8426 16.4674 12.2244 16.758 11.8045 17.2532L11.7465 17.2829C11.2105 17.3404 10.8623 17.4275 10.5979 17.5814C10.3021 17.7536 10.1594 18.0907 10.1594 18.3233H6.34232L5.4291 11.5576C5.42424 11.3995 5.54515 11.275 5.70885 11.275L9.2564 11.275C9.38037 12.1609 9.6303 13.1727 10.1949 14.0239C10.8313 14.9833 11.9069 15.7135 13.4989 15.7135C15.0908 15.7135 16.1679 14.9833 16.8043 14.0239C17.3689 13.1727 17.6196 12.1609 17.7436 11.275H21.2911C21.4555 11.275 21.5768 11.4006 21.5708 11.5597L20.6569 18.3233ZM6.73149 12.3683C6.70373 12.3657 6.67578 12.3661 6.64814 12.3698C6.44432 12.3975 6.30192 12.5857 6.33072 12.7893L6.9605 17.4445C6.98825 17.6466 7.17412 17.7884 7.37649 17.7618C7.57899 17.7345 7.72123 17.5485 7.69464 17.3459L7.06413 12.6908C7.04224 12.5188 6.90411 12.3849 6.73149 12.3683ZM13.4989 17.209H13.5011C13.9862 17.2097 14.4407 17.449 14.7179 17.8473C14.7814 17.9374 14.8819 17.9943 14.9918 18.0031C15.5939 18.0556 15.9156 18.1555 16.0296 18.2219C16.1436 18.2882 16.0977 18.2432 16.0977 18.3233V20.5469C16.0977 20.7588 15.9372 20.9193 15.7252 20.9193H11.2748C11.0628 20.9193 10.9022 20.7588 10.9022 20.5469V18.3233C10.9022 18.2432 10.8563 18.2883 10.9704 18.2219C11.0844 18.1554 11.4086 18.0557 12.0111 18.0031C12.12 17.9932 12.2199 17.9368 12.2828 17.8473C12.5599 17.4492 13.0139 17.2101 13.4989 17.209ZM6.44305 19.0652H10.1594V19.9912H6.56843L6.44305 19.0652ZM16.8406 19.0652H20.5569L20.4315 19.9912H16.8406V19.0652ZM6.66843 20.7331H10.1753C10.2653 21.2565 10.7278 21.6613 11.2747 21.6613H15.7252C16.2722 21.6613 16.7347 21.2565 16.8246 20.7331H20.3308L19.9597 23.477C19.8989 23.9274 19.5194 24.2573 19.0647 24.2573H15.9166C15.4766 23.3662 14.5558 22.7539 13.4989 22.7539C12.4421 22.7539 11.523 23.3663 11.0834 24.2573H7.93307C7.47843 24.2573 7.10038 23.9274 7.03949 23.477L6.66843 20.7331ZM7.94176 21.328C7.91423 21.3258 7.88652 21.3265 7.85915 21.3302C7.65535 21.3575 7.51266 21.5454 7.541 21.749L7.65912 22.6286C7.72735 23.1344 8.16462 23.5154 8.67518 23.5154H9.04768C9.25148 23.5147 9.4165 23.3497 9.41729 23.1459C9.41811 22.941 9.25261 22.7743 9.04768 22.7735H8.67518C8.53048 22.7735 8.41477 22.6734 8.39544 22.53L8.27803 21.6483C8.25488 21.4759 8.11508 21.3427 7.94176 21.328Z" fill="black"/>
</svg>
