<svg width="27" height="27" viewBox="0 0 27 27" fill="none" xmlns="http://www.w3.org/2000/svg">
<path d="M13.5919 7.2207C13.016 8.35374 13.5627 9.07461 13.7579 9.64022C13.953 10.2058 13.9017 10.6577 13.795 11.0887L10.6956 11.5377L10.2266 8.13156L13.5919 7.2207Z" fill="#FCD770"/>
<path d="M18.9941 9.81055C21.111 9.81055 23.4284 12.0381 23.6309 14.4621L15.1878 15.4756L15 12.1452C15.7825 10.7746 17.8221 9.81055 18.9941 9.81055H18.9941Z" fill="#FCD770"/>
<path d="M7.66414 24.1035C7.61097 24.1033 7.55829 24.1144 7.50909 24.136C7.4599 24.1576 7.41516 24.1894 7.37742 24.2297C7.33969 24.2699 7.30971 24.3177 7.28918 24.3703C7.26866 24.423 7.258 24.4794 7.25781 24.5365V25.6719C7.25781 26.4009 7.81867 26.9997 8.4977 26.9997H18.1628C18.8418 26.9997 19.3997 26.4009 19.3997 25.6719V24.5365C19.3993 24.4218 19.3567 24.3119 19.2812 24.2308C19.2056 24.1497 19.1032 24.1039 18.9964 24.1035H7.66414Z" fill="#DFB28B"/>
<path d="M23.472 0.0547402L13.9114 2.80343C13.6812 1.88126 12.7896 1.32794 11.9306 1.57502L5.85067 3.32302C5.6356 3.38625 5.50869 3.62434 5.56684 3.85544L6.82166 8.89097C6.87926 9.12315 7.10143 9.2611 7.31762 9.19887C9.3432 8.61597 11.3688 8.03321 13.3945 7.45087C14.2535 7.20378 14.772 6.24337 14.5418 5.3212L24.0994 2.5725C24.7425 2.38751 25.1321 1.66563 24.9598 0.975247C24.7875 0.284818 24.115 -0.130118 23.472 0.0547402Z" fill="#E6E9ED"/>
<path d="M10.4097 2.98633C10.0725 3.87316 10.0356 4.86252 10.2853 5.59588C10.535 6.32922 10.4827 6.98382 10.2518 7.57025C9.95351 8.48524 10.0473 9.05909 10.3798 9.86598C10.5246 10.2202 10.5618 10.6029 10.5651 10.9821L8.97789 11.7166L9.00634 10.6622C9.05273 10.3711 8.99472 9.72407 8.80751 9.18605C8.60581 8.60663 8.61953 8.25557 8.85009 7.72039C9.08065 7.18519 9.15405 6.28827 8.89892 5.51542C8.6438 4.74257 8.67199 3.98014 8.93592 3.29744L10.4097 2.98633Z" fill="#FCD770"/>
<path d="M3.72368 17.0059C3.66648 17.0061 3.60997 17.0193 3.55788 17.0447C3.50578 17.07 3.45929 17.107 3.42146 17.153C3.38363 17.1991 3.35532 17.2533 3.33841 17.3119C3.3215 17.3706 3.31636 17.4324 3.32333 17.4934C3.67857 20.5393 5.21542 23.1833 7.42541 24.8895C7.49399 24.9432 7.57656 24.9724 7.66143 24.9729H18.9937C19.0786 24.9724 19.1611 24.9432 19.2297 24.8895C21.4394 23.1834 22.9765 20.539 23.3318 17.4934C23.3388 17.4322 23.3336 17.37 23.3165 17.3112C23.2994 17.2523 23.2708 17.198 23.2327 17.1518C23.1945 17.1057 23.1476 17.0689 23.0952 17.0437C23.0427 17.0185 22.9859 17.0056 22.9284 17.0059H3.72368Z" fill="#E6E9ED"/>
<path d="M12.2849 11.1367C13.8841 11.2246 15.172 12.7769 15.3354 14.4699L10.002 15.4441L10.1767 11.8275C10.8587 11.2778 11.5506 11.1385 12.2849 11.1367Z" fill="#FCD770"/>
<path d="M10.4689 14.4014H3.23438C3.42969 12.5058 4.87922 10.8302 6.80413 10.7813C8.72904 10.7324 10.2671 12.4443 10.4689 14.4014Z" fill="#FCD770"/>
<path d="M2.80568 14.4014C2.69883 14.4018 2.59646 14.4475 2.5209 14.5286C2.44534 14.6097 2.40272 14.7197 2.40234 14.8344V16.5471C2.40234 17.2761 2.96018 17.8749 3.63924 17.8749H23.0173C23.6963 17.8749 24.2572 17.2761 24.2572 16.5471V14.8344C24.257 14.7773 24.2463 14.7208 24.2258 14.6682C24.2053 14.6155 24.1753 14.5677 24.1376 14.5275C24.0998 14.4873 24.0551 14.4554 24.0059 14.4338C23.9567 14.4122 23.904 14.4012 23.8508 14.4014H2.80568Z" fill="#DFB28B"/>
<path d="M24.2553 14.7962C24.2359 11.6995 21.8844 9.18605 18.9954 9.18605C17.2429 9.18605 15.6878 10.1083 14.7315 11.5265C14.6401 11.4429 14.545 11.3644 14.4469 11.2898C14.5417 10.6441 14.5422 10.0072 14.3916 9.48137C14.0959 8.68788 13.8634 7.77616 14.1046 7.18757C14.5891 6.79341 14.6737 5.89584 14.541 5.32148L24.098 2.57201C24.7411 2.38702 25.1311 1.66528 24.9588 0.974902C24.7498 0.174809 24.1828 -0.137103 23.4711 0.0550461L13.9102 2.80369C13.68 1.88152 12.7882 1.32782 11.9292 1.5749L5.84955 3.32303C5.63464 3.38625 5.50779 3.62413 5.56577 3.85512C5.62329 4.08721 5.84529 4.22517 6.06141 4.16315L8.13407 3.56658C8.0701 3.86989 8.04532 4.17974 8.05344 4.48902L6.3033 4.99054C6.08799 5.05377 5.96103 5.29222 6.01951 5.52349C6.07737 5.75564 6.2998 5.89327 6.51593 5.83067L8.17122 5.35545C8.26637 5.6362 8.32973 5.92562 8.37596 6.19728L6.72463 6.67164C6.50876 6.73372 6.38064 6.97195 6.43846 7.20371C6.49739 7.43442 6.71894 7.57062 6.9341 7.50838L8.29453 7.11801C8.14832 7.43886 8.07077 7.76235 8.0155 8.09731L7.10722 8.35868C6.89103 8.42042 6.76251 8.65875 6.82028 8.89077C6.87778 9.12327 7.10032 9.26137 7.3167 9.1988L8.05739 8.98579C8.08948 9.14853 8.13419 9.31624 8.19493 9.49072C8.27619 9.72417 8.32268 10.0185 8.3309 10.3317C7.86763 10.1558 7.37204 10.0551 6.85347 10.0551C4.40882 10.0551 2.41815 12.1841 2.40303 14.8047C2.40275 14.808 2.40262 14.8096 2.40222 14.8129C2.40219 14.8211 2.40141 14.8277 2.40141 14.8349V16.5474C2.40141 17.1791 2.82088 17.712 3.3745 17.8433C3.79131 20.6619 5.22325 23.1097 7.25658 24.7509V25.6725C7.25658 26.4015 7.81784 26.9998 8.49686 26.9998H18.1614C18.8404 26.9998 19.3985 26.4015 19.3985 25.6725V24.7535C21.4337 23.1119 22.8669 20.6621 23.2837 17.8416C23.8363 17.7089 24.2568 17.1778 24.2568 16.5474L24.2553 14.7962ZM10.6794 4.6324C11.0442 4.5273 11.4093 4.42249 11.7742 4.31755C11.9908 4.25581 12.1194 4.01693 12.0612 3.78463C12.0133 3.59505 11.8528 3.46355 11.6699 3.46387C11.3544 3.52168 11.0174 3.63749 10.745 3.7159C10.8295 3.35333 10.9653 3.06289 11.1094 2.71115L12.1386 2.41497C12.5751 2.28951 13.0106 2.55915 13.1275 3.02768L13.2319 3.44774C13.2894 3.68022 13.5119 3.8183 13.7283 3.75577L23.6797 0.895119C23.937 0.842406 24.1106 0.95621 24.1762 1.19979C24.2353 1.43654 24.1098 1.66842 23.8893 1.73186L13.9402 4.59592C13.7236 4.65766 13.595 4.89658 13.6533 5.12886L13.7576 5.54551C13.8295 5.83347 13.7608 6.12152 13.6188 6.29678C13.4767 6.47205 13.3433 6.56484 13.1845 6.61053L10.9063 7.26818C10.9815 6.96511 11.0148 6.65269 11.0059 6.33981L12.1924 5.99782C12.4086 5.93608 12.5371 5.69775 12.4794 5.46573C12.4329 5.27572 12.2735 5.14282 12.0905 5.14159C11.6877 5.21861 11.2758 5.36153 10.8731 5.47763C10.7618 5.19732 10.7211 4.88605 10.6794 4.6324H10.6794ZM10.1143 2.99716C9.96419 3.45775 9.87944 3.90062 9.86052 4.32181C9.87061 4.80641 9.99273 5.44086 10.0953 5.72543C10.299 6.58689 10.041 7.15371 9.86209 7.86137C9.7116 8.67405 9.82764 9.15862 10.119 9.8658C10.2578 10.2054 10.329 10.568 10.338 10.9316C10.1521 11.0295 9.97359 11.141 9.80517 11.2669C9.59638 11.0675 9.37031 10.8896 9.12931 10.7348C9.17186 10.1798 9.11292 9.64309 8.95383 9.18605C8.7577 8.62264 8.76727 8.27485 8.86923 7.90549C9.22794 7.14944 9.29518 6.27216 9.055 5.46235C8.87372 4.7021 8.8354 3.91014 9.06051 3.30012L10.1143 2.99716ZM2.56034 4.01213C2.34563 4.08471 2.22735 4.33142 2.2971 4.56119C2.4762 5.16504 2.4207 5.81961 2.15718 6.52383C1.89366 7.22807 1.96894 8.06812 2.32715 8.78215C2.43311 8.99264 2.67766 9.07153 2.87417 8.95865C3.07182 8.84452 3.14523 8.57955 3.0378 8.36802C2.78678 7.86766 2.73288 7.28205 2.88286 6.73784C3.24018 5.98243 3.30766 5.1033 3.06784 4.2947C2.97623 4.00029 2.75673 3.96183 2.56034 4.01213ZM4.21799 4.01213C4.0036 4.08504 3.88573 4.33168 3.95555 4.56119C4.13465 5.16504 4.07915 5.81961 3.81563 6.52383C3.5521 7.22807 3.62739 8.06812 3.98559 8.78215C4.09154 8.99215 4.33549 9.07096 4.53182 8.95865C4.72976 8.84485 4.80354 8.57978 4.69624 8.36802C4.4451 7.86741 4.39105 7.28142 4.5413 6.73699C4.89832 5.98173 4.96603 5.10304 4.72628 4.2947C4.60955 3.96606 4.3993 3.96904 4.21799 4.01213H4.21799ZM13.2027 7.5058C13.1146 8.31438 13.3892 9.13017 13.6319 9.78261C13.7327 10.1274 13.7521 10.4878 13.7031 10.8383C13.4354 10.715 13.1523 10.624 12.8588 10.5651C12.8331 10.1397 12.7405 9.71873 12.5774 9.32098L12.3806 8.84236C12.2949 8.47849 12.3017 8.10015 12.3972 7.73663L13.2027 7.5058ZM11.5316 7.98527C11.5066 8.40623 11.5318 8.79117 11.6186 9.14107L11.8367 9.67061C11.9446 9.93384 12.0094 10.2106 12.0391 10.4912C11.7252 10.4978 11.42 10.5434 11.1269 10.6227C11.0906 10.2436 11.0054 9.86823 10.8597 9.51277C10.6292 9.1141 10.6138 8.64925 10.6194 8.2475L11.5316 7.98527ZM18.9954 10.055C21.3226 10.055 23.2225 11.9606 23.4261 14.4008H22.6135C22.4117 12.4492 20.8659 10.924 18.9954 10.924C17.6035 10.924 16.3916 11.7694 15.7789 13.0056C15.6499 12.7087 15.4916 12.4301 15.3062 12.174C16.1057 10.8999 17.4537 10.055 18.9954 10.055ZM6.85349 10.924C8.73352 10.924 10.2717 12.4412 10.4716 14.4008H9.6534C9.45606 12.9306 8.27607 11.7938 6.85349 11.7938C5.43092 11.7938 4.24819 12.9306 4.05042 14.4008H3.23463C3.43452 12.4412 4.97347 10.924 6.85349 10.924ZM12.115 11.3577C14.2902 11.3577 15.1499 13.1419 15.3259 14.4008H14.507C14.3132 13.171 13.3137 12.2266 12.115 12.2266C11.6336 12.2266 11.184 12.3818 10.8051 12.6433C10.6801 12.3845 10.5334 12.1404 10.368 11.9118C10.8719 11.5631 11.469 11.3577 12.115 11.3577ZM18.9954 11.7938C20.4274 11.7938 21.6001 12.9233 21.7953 14.4008H20.9771C20.789 13.4118 19.9702 12.6628 18.9954 12.6628C18.0205 12.6628 17.1992 13.4118 17.0105 14.4008H16.1923C16.3879 12.9233 17.5634 11.7938 18.9954 11.7938ZM6.85349 12.6628C7.83754 12.6628 8.65046 13.4057 8.83604 14.4008H7.991C7.82261 13.8978 7.37716 13.5318 6.85349 13.5318C6.32977 13.5318 5.88194 13.8978 5.71281 14.4008H4.86778C5.05392 13.4057 5.86945 12.6628 6.85349 12.6628ZM12.115 13.0956C12.8735 13.0956 13.499 13.649 13.6778 14.4008H12.8106C12.6691 14.1427 12.4102 13.9646 12.115 13.9646C11.8199 13.9646 11.5609 14.1428 11.4193 14.4008H11.2842C11.2572 14.0814 11.2018 13.7707 11.119 13.4724C11.3939 13.2397 11.7356 13.0956 12.115 13.0956H12.115ZM18.9954 13.5318C19.5282 13.5318 19.9711 13.8931 20.1361 14.4008H17.8523C18.0181 13.8931 18.4625 13.5318 18.9954 13.5318ZM3.21171 15.2706H23.4466V16.5469C23.4466 16.8063 23.2582 17.0051 23.0166 17.0051H3.63857C3.39698 17.0051 3.21171 16.8063 3.21171 16.5469V15.2706ZM4.2844 17.875H22.3716C21.9463 20.4072 20.7064 22.6315 18.8578 24.1029H7.80049C5.95165 22.6315 4.7096 20.4074 4.2844 17.875ZM20.627 18.8814C20.3782 19.5564 20.0818 20.127 19.7392 20.7034C19.6167 20.9061 19.6717 21.1772 19.8618 21.3067C20.0508 21.4353 20.3011 21.3749 20.4206 21.1717C20.7796 20.5678 21.1068 19.9396 21.3795 19.1996C21.4626 18.9762 21.3609 18.7229 21.1526 18.6344C20.9089 18.5526 20.7166 18.6779 20.627 18.8813V18.8814ZM17.9345 22.7468C17.7591 22.8948 17.7283 23.1674 17.8658 23.3561C18.0027 23.5456 18.2567 23.5802 18.4333 23.4333C18.7155 23.1962 18.9938 22.9391 19.2641 22.6568C19.4256 22.4896 19.4296 22.2132 19.2729 22.0407C19.0426 21.8509 18.8364 21.89 18.6998 22.0342L17.9345 22.7468ZM8.0661 24.9727H18.5891V25.672C18.5891 25.9313 18.403 26.1302 18.1614 26.1302H8.49691C8.25535 26.1302 8.0661 25.9313 8.0661 25.672V24.9727Z" fill="black"/>
</svg>
