<svg width="35" height="35" viewBox="0 0 35 35" fill="none" xmlns="http://www.w3.org/2000/svg">
<path d="M32.5542 24.665H2.44124C2.24026 20.8276 3.23311 17.365 5.67 14.3483C8.10689 11.3316 11.2975 9.55001 15.1784 8.89202C15.0327 8.02686 14.902 7.19032 14.7493 6.3587C14.485 4.91152 15.2457 4.00099 16.735 4C17.2877 4 17.8404 4 18.3931 4C19.6573 4.00789 20.4712 4.96578 20.2542 6.18015C20.1125 6.96934 19.9798 7.75854 19.8472 8.54773C19.8291 8.65427 19.8311 8.76377 19.8221 8.88906C24.3964 9.70193 27.9507 11.9876 30.3916 15.8626C32.0849 18.5488 32.723 21.5033 32.5542 24.665ZM4.98767 21.5477C4.96858 21.8999 5.16453 22.1623 5.47203 22.2195C5.6224 22.2426 5.77617 22.2111 5.90467 22.1311C6.03317 22.051 6.12763 21.9279 6.17044 21.7845C6.19521 21.6892 6.215 21.5927 6.22973 21.4954C6.87823 18.244 8.62777 15.7284 11.4783 13.9488C11.8502 13.716 11.9547 13.3825 11.7547 13.0807C11.5547 12.7788 11.204 12.7384 10.8312 12.9672C8.93085 14.1181 7.37507 15.7428 6.32218 17.6757C5.66046 18.8843 5.20939 20.193 4.98767 21.5477Z" fill="#5E6FDC"/>
<path d="M17.4858 25.8646H34.0998C34.8184 25.8646 34.9862 26.0284 34.9872 26.7308C34.9872 27.0997 35.0244 27.4746 34.9721 27.8366C34.9409 28.0536 34.8224 28.3299 34.6505 28.4463C33.8958 28.9533 33.111 29.419 32.3262 29.8816C32.1717 29.962 31.9985 30.0015 31.8237 29.9961C22.2671 30.0013 12.7108 30.0013 3.15484 29.9961C2.95645 29.9916 2.7626 29.9369 2.59209 29.8372C1.84947 29.4012 1.12292 28.9405 0.381305 28.4956C0.259269 28.4317 0.158556 28.3346 0.0911988 28.216C0.0238413 28.0974 -0.00731656 27.9623 0.00144813 27.8268C0.0114972 27.4322 0.00144813 27.0376 0.00144813 26.643C0.00144813 26.0609 0.20243 25.8636 0.787284 25.8636H17.4767L17.4858 25.8646Z" fill="#5E6FDC"/>
</svg>
