<svg width="8" height="5" viewBox="0 0 8 5" fill="none" xmlns="http://www.w3.org/2000/svg">
<g clip-path="url(#clip0_313_6)">
<path d="M0.179228 8.24006C-0.0595457 8.00008 -0.0595457 7.60009 0.179228 7.44005C0.418002 7.20007 0.736462 7.20007 0.975239 7.44005L4.00007 10.6399L7.02491 7.44005C7.26368 7.20007 7.58214 7.20007 7.82092 7.44005C8.05969 7.68002 8.05969 8.08001 7.82092 8.24006L4.3981 11.84C4.31856 11.9199 4.15932 12 4.00007 12C3.84082 12 3.68161 11.9201 3.60205 11.84L0.179228 8.24006ZM7.82077 3.75994C8.05955 3.99992 8.05955 4.39991 7.82077 4.55995C7.582 4.79993 7.26354 4.79993 7.02476 4.55995L3.99993 1.36006L0.975091 4.55995C0.736318 4.79993 0.417858 4.79993 0.17908 4.55995C-0.0596934 4.31998 -0.0596934 3.91999 0.17908 3.75994L3.6019 0.160032C3.68144 0.0800902 3.84068 0 3.99993 0C4.15918 0 4.31839 0.0799416 4.39795 0.160032L7.82077 3.75994Z" fill="#4E4E4E"/>
</g>
<defs>
<clipPath id="clip0_313_6">
<rect width="8" height="5" fill="white"/>
</clipPath>
</defs>
</svg>
