<svg width="435" height="471" viewBox="0 0 435 471" fill="none" xmlns="http://www.w3.org/2000/svg">
<path d="M213.959 464.868L213.957 464.868C213.182 464.633 212.406 464.394 211.629 464.15L211.479 464.627C209.93 464.142 208.377 463.64 206.823 463.121L206.981 462.647C205.443 462.134 203.903 461.605 202.361 461.06L202.195 461.531C200.663 460.99 199.129 460.433 197.595 459.861L197.769 459.392C196.249 458.825 194.728 458.243 193.206 457.647L193.024 458.112C191.51 457.519 189.996 456.911 188.482 456.289L188.672 455.827C187.17 455.21 185.668 454.579 184.167 453.935L183.97 454.394C182.475 453.752 180.981 453.097 179.487 452.429L179.692 451.972C178.209 451.308 176.727 450.632 175.247 449.942L175.036 450.395C173.56 449.708 172.087 449.008 170.614 448.296L170.832 447.846C169.369 447.138 167.908 446.417 166.449 445.685L166.224 446.132C164.769 445.402 163.316 444.659 161.866 443.905L162.097 443.462C160.654 442.712 159.213 441.95 157.776 441.177L157.539 441.617C156.105 440.846 154.673 440.063 153.245 439.27L153.488 438.833C152.067 438.043 150.648 437.242 149.234 436.43L148.985 436.863C147.572 436.053 146.162 435.231 144.757 434.399L145.012 433.969C143.611 433.14 142.215 432.3 140.823 431.451L140.563 431.878C139.172 431.029 137.785 430.169 136.403 429.3L136.669 428.877C135.291 428.01 133.918 427.133 132.55 426.247L132.278 426.667C130.909 425.78 129.546 424.884 128.188 423.979L128.466 423.563C127.11 422.659 125.761 421.746 124.418 420.824L124.135 421.236C122.79 420.313 121.451 419.381 120.118 418.44L120.407 418.032C119.076 417.092 117.751 416.143 116.434 415.186L116.14 415.59C114.819 414.631 113.506 413.663 112.2 412.687L112.499 412.287C111.194 411.311 109.895 410.327 108.605 409.335L108.3 409.731C107.006 408.736 105.72 407.733 104.441 406.722L104.751 406.33C103.472 405.318 102.202 404.299 100.94 403.272L100.624 403.66C99.357 402.629 98.0987 401.59 96.8496 400.544L97.1706 400.161C95.9197 399.114 94.678 398.059 93.446 396.997L93.1195 397.376C91.8817 396.309 90.6535 395.235 89.4355 394.154L89.7674 393.78C88.5467 392.696 87.3362 391.606 86.1363 390.509L85.799 390.878C84.5924 389.775 83.3965 388.665 82.2117 387.549L82.5546 387.185C81.3664 386.065 80.1894 384.939 79.0241 383.807L78.6757 384.165C77.5028 383.026 76.3417 381.879 75.1928 380.727L75.5468 380.374C74.9719 379.798 74.4001 379.22 73.8314 378.64L73.8312 378.64C73.2502 378.048 72.6674 377.45 72.083 376.846L71.7234 377.193C70.5695 375.999 69.4095 374.779 68.2451 373.532L68.6105 373.191C67.4772 371.978 66.3398 370.741 65.2 369.478L64.829 369.814C63.7134 368.578 62.5955 367.32 61.4768 366.038L61.8535 365.709C60.7602 364.456 59.6661 363.18 58.5727 361.883L58.1903 362.205C57.1161 360.93 56.0427 359.634 54.9713 358.316L55.3592 358C54.3087 356.708 53.2601 355.395 52.2149 354.062L51.8214 354.371C50.7915 353.057 49.7648 351.723 48.7426 350.37L49.1416 350.068C48.1367 348.738 47.1362 347.388 46.1412 346.02L45.7367 346.314C44.754 344.962 43.7767 343.591 42.8059 342.202L43.2157 341.916C42.2595 340.548 41.3097 339.162 40.3673 337.758L39.9521 338.036C39.0197 336.647 38.0945 335.241 37.1777 333.816L37.5981 333.546C36.6937 332.141 35.7974 330.719 34.9103 329.28L34.4847 329.543C33.6059 328.117 32.7361 326.675 31.8762 325.217L32.3069 324.963C31.4591 323.525 30.6211 322.071 29.7936 320.601L29.3579 320.846C28.5371 319.388 27.7268 317.914 26.9279 316.424L27.3685 316.188C26.5789 314.715 25.8004 313.228 25.034 311.725L24.5885 311.952C23.8276 310.46 23.0786 308.953 22.3422 307.43L22.7923 307.213C22.0641 305.707 21.3484 304.187 20.6459 302.653L20.1913 302.861C19.4935 301.336 18.8088 299.797 18.138 298.244L18.597 298.046C17.9346 296.512 17.2858 294.964 16.6513 293.402L16.1881 293.59C15.5581 292.039 14.9422 290.474 14.3414 288.895L14.8086 288.717C14.2141 287.156 13.6342 285.58 13.0698 283.991L12.5986 284.159C12.0376 282.579 11.4918 280.987 10.9619 279.381L11.4367 279.224C10.9123 277.636 10.4036 276.034 9.9112 274.419L9.43294 274.565C8.94459 272.963 8.47231 271.349 8.01678 269.722L8.49826 269.587C8.048 267.979 7.61414 266.358 7.19738 264.725L6.71291 264.849C6.29868 263.226 5.90129 261.591 5.52141 259.944L6.00862 259.831C5.63277 258.201 5.27411 256.56 4.93326 254.906L4.44356 255.007C4.10534 253.366 3.78462 251.714 3.48205 250.05L3.97399 249.96C3.67547 248.319 3.39465 246.665 3.13214 245.001L2.63825 245.079C2.37741 243.425 2.1346 241.76 1.91042 240.084L2.406 240.018C2.18427 238.36 1.98079 236.691 1.79616 235.012L1.29915 235.067C1.11626 233.403 0.951815 231.729 0.806363 230.044L1.30451 230.001C1.16103 228.339 1.03608 226.667 0.930196 224.985L0.431184 225.016C0.326004 223.345 0.239593 221.663 0.172473 219.972L0.67208 219.952C0.605759 218.281 0.558316 216.599 0.53026 214.908L0.0303289 214.916C0.00263424 213.247 -0.00621171 211.568 0.00427751 209.88L0.504268 209.883C0.509496 209.041 0.51954 208.197 0.534459 207.351C0.549556 206.498 0.57098 205.648 0.598667 204.801L0.0989346 204.785C0.154474 203.087 0.235146 201.402 0.340459 199.73L0.83947 199.762C0.944465 198.095 1.07402 196.441 1.22765 194.8L0.72983 194.753C0.888514 193.058 1.0728 191.377 1.28216 189.709L1.77827 189.771C1.9878 188.102 2.22252 186.446 2.48187 184.804L1.988 184.726C2.25068 183.063 2.53858 181.414 2.85111 179.778L3.34223 179.872C3.65942 178.212 4.00207 176.567 4.3696 174.935L3.88182 174.825C4.25055 173.189 4.64423 171.566 5.06228 169.957L5.54621 170.083C5.971 168.449 6.42103 166.829 6.89568 165.223L6.4162 165.081C6.89368 163.466 7.396 161.866 7.92251 160.28L8.39705 160.437C8.9259 158.844 9.47926 157.266 10.0565 155.702L9.5874 155.529C10.1716 153.946 10.7802 152.378 11.4125 150.825L11.8756 151.013C12.5065 149.463 13.1611 147.928 13.8387 146.407L13.382 146.204C14.069 144.662 14.7795 143.136 15.513 141.624L15.9628 141.842C16.6939 140.335 17.4478 138.843 18.2239 137.365L17.7813 137.133C18.564 135.643 19.3692 134.167 20.1962 132.707L20.6313 132.953C21.4572 131.495 22.3049 130.051 23.1737 128.621L22.7464 128.362C23.6192 126.926 24.5132 125.505 25.4277 124.098L25.8469 124.371C26.7606 122.966 27.6949 121.575 28.649 120.199L28.2381 119.914C29.1951 118.534 30.172 117.168 31.168 115.817L31.5705 116.113C32.5645 114.765 33.5778 113.431 34.6095 112.111L34.2155 111.803C35.2501 110.48 36.3032 109.171 37.374 107.876L37.7593 108.195C38.8264 106.904 39.9113 105.628 41.0132 104.366L40.6365 104.037C41.7411 102.772 42.8626 101.521 44.0005 100.285L44.3685 100.623C45.5024 99.3906 46.6525 98.172 47.8183 96.9672L47.4589 96.6195C48.6261 95.4131 49.8089 94.2206 51.0065 93.0418L51.3573 93.3982C52.5516 92.2226 53.7607 91.0607 54.9841 89.9123L54.6418 89.5478C55.8651 88.3994 57.1024 87.2646 58.3531 86.1432L58.6869 86.5155C59.9348 85.3966 61.196 84.291 62.47 83.1987L62.1445 82.8191C63.4186 81.7267 64.7052 80.6475 66.0038 79.5815L66.3211 79.9679C67.6163 78.9046 68.9234 77.8544 70.2418 76.8171L69.9326 76.4242C71.2525 75.3857 72.5835 74.3603 73.9251 73.3476L74.2263 73.7467C75.5638 72.7371 76.9119 71.7403 78.2697 70.7561L77.9763 70.3513C79.3366 69.3654 80.7067 68.3922 82.0859 67.4316L82.3717 67.8419C83.7474 66.8837 85.1322 65.938 86.5254 65.0048L86.2472 64.5894C87.6429 63.6545 89.0471 62.7321 90.4589 61.822L90.7298 62.2423C92.1401 61.3333 93.5581 60.4366 94.9832 59.5521L94.7195 59.1273C96.1472 58.2411 97.5819 57.3673 99.023 56.5055L99.2796 56.9347C100.72 56.0733 102.167 55.2241 103.619 54.387L103.37 53.9538C104.827 53.114 106.29 52.2863 107.757 51.4706L108 51.9076C109.466 51.0928 110.938 50.2899 112.413 49.4988L112.177 49.0582C113.661 48.2624 115.15 47.4786 116.643 46.7066L116.872 47.1507C118.362 46.3799 119.856 45.6209 121.353 44.8736L121.13 44.4263C122.638 43.6736 124.148 42.9328 125.661 42.2037L125.878 42.6542C127.392 41.9249 128.908 41.2073 130.425 40.5015L130.214 40.0481C131.741 39.3379 133.269 38.6394 134.799 37.9526L135.003 38.4087C136.539 37.719 138.076 37.0411 139.612 36.3749L139.413 35.9161C140.956 35.2474 142.499 34.5903 144.041 33.9449L144.234 34.4061C145.791 33.7543 147.347 33.1144 148.903 32.4862L148.715 32.0226C150.272 31.3936 151.828 30.7763 153.381 30.1707L153.563 30.6366C155.139 30.022 156.714 29.4194 158.285 28.8286L158.109 28.3606C159.684 27.7684 161.255 27.1881 162.823 26.6196L162.994 27.0897C164.583 26.5132 166.169 25.9488 167.75 25.3964L167.585 24.9244C169.177 24.3681 170.764 23.8239 172.345 23.2916L172.505 23.7655C174.106 23.2264 175.702 22.6997 177.291 22.185L177.137 21.7094C178.745 21.1883 180.347 20.6796 181.94 20.1833L182.089 20.6607C183.702 20.1583 185.306 19.6686 186.902 19.1913L186.758 18.7123C188.383 18.2264 189.998 17.7533 191.602 17.2929L191.74 17.7735C193.364 17.3074 194.978 16.8543 196.579 16.4141L196.447 15.932C198.085 15.4817 199.712 15.0448 201.324 14.6211L201.451 15.1047C203.089 14.6745 204.713 14.258 206.321 13.8549L206.2 13.3699C207.85 12.9564 209.484 12.5571 211.101 12.1718L211.217 12.6581C212.871 12.2639 214.508 11.8843 216.125 11.5191L216.015 11.0314C217.672 10.657 219.309 10.2977 220.924 9.95335L221.029 10.4424C222.705 10.085 224.357 9.74368 225.984 9.41812L225.886 8.92784C227.543 8.59626 229.174 8.281 230.777 7.98178L230.869 8.47329C232.573 8.15525 234.245 7.85536 235.884 7.57327L235.799 7.08052C237.489 6.78957 239.143 6.51751 240.759 6.26395L240.837 6.75791C242.528 6.49252 244.178 6.24747 245.783 6.02229L245.713 5.52714C247.449 5.28366 249.132 5.06337 250.761 4.8657L250.821 5.36205C251.643 5.2623 252.45 5.16833 253.243 5.08007L253.188 4.58319L253.243 5.08006C254.04 4.99127 254.842 4.90529 255.648 4.82231L255.597 4.32494C257.195 4.1605 258.812 4.00781 260.445 3.86826L260.488 4.36644C262.088 4.22977 263.704 4.10573 265.334 3.99565L265.301 3.49679C266.907 3.38834 268.528 3.29341 270.162 3.21328L270.186 3.71268C271.793 3.63386 273.412 3.56938 275.042 3.52044L275.027 3.02067C276.64 2.97226 278.263 2.93903 279.895 2.92213L279.901 3.4221C281.511 3.40543 283.131 3.4047 284.759 3.42102L284.764 2.92105C286.379 2.93725 288.002 2.97021 289.632 3.02103L289.616 3.52078C291.228 3.57105 292.846 3.63883 294.469 3.72517L294.496 3.22587C296.111 3.31177 297.731 3.41599 299.354 3.5396L299.316 4.03815C300.926 4.16066 302.539 4.30223 304.154 4.46389L304.204 3.96638C305.815 4.12752 307.428 4.30858 309.042 4.51055L308.98 5.00669C310.583 5.20714 312.186 5.42824 313.79 5.67097L313.865 5.1766C315.466 5.41892 317.068 5.68276 318.669 5.96908L318.581 6.46127C320.171 6.74568 321.76 7.05232 323.347 7.38215L323.449 6.89261C325.035 7.22224 326.619 7.57499 328.201 7.95181L328.085 8.43819C329.656 8.81263 331.224 9.21088 332.788 9.63389L332.919 9.15123C334.483 9.57424 336.043 10.0219 337.598 10.4953L337.453 10.9736C338.998 11.4439 340.537 11.9396 342.071 12.4615L342.232 11.9882C343.766 12.5102 345.294 13.0584 346.814 13.6338L346.637 14.1015C348.147 14.6728 349.649 15.271 351.144 15.8969L351.337 15.4357C352.831 16.0614 354.317 16.7148 355.794 17.3967L355.584 17.8506C357.048 18.5268 358.503 19.2311 359.949 19.9644L360.175 19.5185C361.618 20.2508 363.051 21.0118 364.473 21.8026L364.23 22.2396C365.637 23.0226 367.035 23.8348 368.42 24.677L368.679 24.2498C370.061 25.0896 371.43 25.9593 372.787 26.8596L372.511 27.2763C373.852 28.1659 375.18 29.0855 376.495 30.036L376.788 29.6308C378.097 30.5768 379.393 31.5533 380.674 32.561L380.365 32.954C381.629 33.9476 382.879 34.9717 384.114 36.0271L384.439 35.6469C385.666 36.6952 386.879 37.7742 388.076 38.8846L387.736 39.2512C388.914 40.3439 390.078 41.4672 391.226 42.6218L391.58 42.2693C392.717 43.4123 393.838 44.5859 394.943 45.7907L394.574 46.1287C395.657 47.3092 396.724 48.5199 397.775 49.7614L398.157 49.4384C399.196 50.6657 400.219 51.9231 401.226 53.211L400.832 53.5189C401.331 54.1568 401.825 54.8023 402.316 55.4554C402.81 56.1141 403.299 56.7787 403.782 57.4492L404.188 57.1569C405.155 58.499 406.1 59.8646 407.022 61.2537L406.605 61.5301C407.516 62.9029 408.405 64.2988 409.271 65.7177L409.698 65.4572C410.559 66.8686 411.399 68.3028 412.217 69.7595L411.781 70.0043C412.586 71.4377 413.369 72.8931 414.131 74.3706L414.576 74.1414C415.332 75.6072 416.067 77.0944 416.781 78.6032L416.329 78.8171C417.032 80.3028 417.715 81.8095 418.377 83.3372L418.836 83.1383C419.492 84.652 420.128 86.1861 420.745 87.7406L420.28 87.9249C420.887 89.4549 421.474 91.0049 422.042 92.5747L422.512 92.4046C423.073 93.9547 423.615 95.5241 424.138 97.1126L423.663 97.269C424.176 98.8277 424.671 100.405 425.148 102.001L425.627 101.858C426.098 103.436 426.552 105.033 426.988 106.647L426.505 106.778C426.935 108.367 427.346 109.973 427.741 111.597L428.227 111.479C428.616 113.082 428.989 114.701 429.345 116.338L428.856 116.444C429.204 118.047 429.537 119.666 429.853 121.302L430.344 121.207C430.657 122.824 430.954 124.458 431.235 126.107L430.742 126.191C431.019 127.816 431.281 129.456 431.527 131.112L432.022 131.038C432.264 132.665 432.491 134.307 432.704 135.964L432.208 136.028C432.417 137.657 432.612 139.301 432.792 140.959L433.289 140.905C433.468 142.546 433.633 144.202 433.784 145.872L433.286 145.917C433.433 147.554 433.568 149.205 433.689 150.869L434.187 150.833C434.306 152.475 434.412 154.129 434.505 155.797L434.006 155.825C434.098 157.472 434.177 159.133 434.243 160.806L434.743 160.786C434.808 162.43 434.861 164.087 434.901 165.756L434.401 165.768C434.441 167.412 434.469 169.069 434.484 170.737L434.984 170.733C435 172.388 435.004 174.055 434.996 175.734L434.496 175.731C434.488 177.371 434.469 179.022 434.439 180.685L434.939 180.694C434.909 182.345 434.867 184.008 434.815 185.681L434.315 185.666C434.264 187.312 434.201 188.969 434.128 190.636L434.628 190.658C434.556 192.304 434.473 193.96 434.38 195.627L433.881 195.599C433.788 197.25 433.686 198.912 433.573 200.583L434.072 200.617C433.961 202.257 433.84 203.906 433.71 205.565L433.211 205.526C433.082 207.174 432.942 208.832 432.793 210.5L433.291 210.545C433.144 212.184 432.988 213.832 432.823 215.49L432.325 215.44C432.161 217.083 431.987 218.735 431.805 220.396L432.302 220.451C432.121 222.09 431.932 223.739 431.734 225.396L431.237 225.337C431.041 226.974 430.836 228.62 430.623 230.274L431.119 230.338C430.907 231.977 430.687 233.625 430.458 235.281L429.962 235.212C429.737 236.844 429.503 238.484 429.26 240.132L429.755 240.205C429.514 241.842 429.265 243.487 429.007 245.14L428.513 245.063C428.26 246.69 427.999 248.325 427.729 249.967L428.223 250.048C427.955 251.682 427.679 253.324 427.395 254.973L426.902 254.889C426.623 256.511 426.336 258.14 426.042 259.777L426.534 259.866C426.24 261.496 425.939 263.134 425.631 264.779L425.139 264.686C424.836 266.305 424.525 267.93 424.207 269.562L424.697 269.658C424.38 271.283 424.056 272.916 423.725 274.556L423.234 274.457C422.908 276.071 422.574 277.693 422.234 279.321L422.723 279.424C422.384 281.044 422.038 282.671 421.685 284.304L421.196 284.199C420.848 285.811 420.493 287.429 420.131 289.055L420.619 289.163C420.259 290.777 419.893 292.398 419.52 294.025L419.032 293.913C418.846 294.726 418.658 295.541 418.468 296.357C418.276 297.182 418.082 298.006 417.884 298.827L418.37 298.944C417.974 300.592 417.565 302.233 417.146 303.866L416.661 303.741C416.24 305.38 415.807 307.011 415.363 308.635L415.845 308.767C415.397 310.403 414.938 312.032 414.466 313.653L413.986 313.513C413.513 315.14 413.029 316.758 412.533 318.368L413.011 318.515C412.511 320.135 412 321.748 411.478 323.351L411.002 323.196C410.478 324.806 409.942 326.407 409.394 327.998L409.867 328.161C409.316 329.764 408.753 331.358 408.178 332.942L407.708 332.772C407.131 334.364 406.542 335.947 405.941 337.52L406.408 337.698C405.803 339.284 405.187 340.86 404.559 342.425L404.095 342.239C403.464 343.811 402.822 345.373 402.168 346.924L402.629 347.118C401.97 348.682 401.3 350.234 400.618 351.776L400.161 351.574C399.476 353.123 398.78 354.66 398.073 356.187L398.526 356.397C397.813 357.936 397.088 359.463 396.352 360.979L395.903 360.76C395.163 362.284 394.412 363.796 393.649 365.295L394.095 365.522C393.325 367.035 392.544 368.536 391.752 370.025L391.311 369.79C390.514 371.285 389.707 372.768 388.888 374.238L389.325 374.482C388.499 375.964 387.661 377.434 386.813 378.89L386.381 378.639C385.528 380.102 384.663 381.552 383.788 382.988L384.215 383.248C383.331 384.697 382.436 386.132 381.53 387.553L381.109 387.284C380.198 388.712 379.276 390.125 378.342 391.523L378.758 391.801C377.816 393.212 376.863 394.608 375.898 395.989L375.488 395.703C374.518 397.091 373.537 398.464 372.545 399.82L372.949 400.115C371.946 401.486 370.933 402.84 369.908 404.178L369.511 403.874C368.481 405.219 367.439 406.547 366.386 407.858L366.776 408.171C365.713 409.495 364.639 410.802 363.553 412.091L363.171 411.768C362.079 413.064 360.977 414.342 359.864 415.601L360.238 415.932C359.114 417.204 357.978 418.458 356.831 419.692L356.465 419.352C355.312 420.593 354.148 421.814 352.973 423.016L353.331 423.365C352.144 424.579 350.946 425.773 349.737 426.947L349.389 426.588C348.174 427.768 346.948 428.927 345.712 430.064L346.051 430.432C344.801 431.582 343.541 432.71 342.271 433.816L341.942 433.439C340.665 434.55 339.378 435.64 338.08 436.706L338.397 437.093C337.086 438.17 335.763 439.225 334.431 440.256L334.125 439.861C332.787 440.897 331.438 441.909 330.079 442.896L330.373 443.301C329 444.299 327.617 445.272 326.224 446.22L325.942 445.807C325.245 446.281 324.546 446.749 323.844 447.211C323.161 447.659 322.477 448.101 321.791 448.536L322.06 448.958C320.672 449.839 319.279 450.694 317.882 451.523L317.627 451.093C316.218 451.928 314.805 452.737 313.386 453.518L313.628 453.956C312.189 454.749 310.746 455.515 309.298 456.253L309.071 455.807C307.613 456.55 306.15 457.265 304.683 457.952L304.895 458.405C303.408 459.101 301.917 459.768 300.422 460.407L300.225 459.947C298.721 460.589 297.213 461.202 295.701 461.785L295.881 462.252C294.351 462.842 292.816 463.403 291.278 463.933L291.115 463.461C289.57 463.993 288.022 464.496 286.471 464.967L286.616 465.446C285.048 465.923 283.476 466.368 281.902 466.783L281.774 466.3C280.196 466.715 278.615 467.099 277.031 467.452L277.14 467.94C275.541 468.296 273.94 468.62 272.336 468.912L272.247 468.42C270.643 468.712 269.037 468.972 267.428 469.2L267.498 469.695C265.879 469.925 264.257 470.122 262.634 470.286L262.583 469.789C260.963 469.953 259.342 470.085 257.718 470.184L257.749 470.683C256.118 470.782 254.486 470.849 252.852 470.883L252.842 470.383C252.029 470.4 251.216 470.409 250.402 470.409C249.632 470.407 248.861 470.399 248.091 470.382L248.08 470.882C246.532 470.85 244.986 470.789 243.441 470.699L243.47 470.2C241.931 470.11 240.394 469.991 238.86 469.844L238.812 470.342C237.272 470.195 235.734 470.018 234.199 469.814L234.265 469.318C232.738 469.114 231.214 468.882 229.694 468.621L229.609 469.114C228.085 468.853 226.565 468.563 225.048 468.245L225.151 467.756C223.644 467.44 222.141 467.096 220.643 466.724L220.523 467.209C219.023 466.837 217.527 466.436 216.038 466.008L216.176 465.527C215.436 465.315 214.697 465.095 213.959 464.868Z" stroke="#1F51FF" stroke-dasharray="5 5"/>
<circle cx="227.5" cy="8.40918" r="7.5" fill="#1F51FF"/>
<circle cx="227.5" cy="8.40918" r="4.5" fill="#1F51FF" stroke="white" stroke-width="2"/>
<circle cx="7.5" cy="268.409" r="7.5" fill="#1F51FF"/>
<circle cx="7.5" cy="268.409" r="4.5" fill="#1F51FF" stroke="white" stroke-width="2"/>
</svg>
