<svg width="347" height="375" viewBox="0 0 347 375" fill="none" xmlns="http://www.w3.org/2000/svg">
<path d="M170.706 369.986L170.704 369.985C169.895 369.74 169.085 369.489 168.274 369.232L168.123 369.708C166.509 369.197 164.891 368.662 163.27 368.105L163.433 367.633C161.835 367.084 160.236 366.514 158.634 365.923L158.461 366.392C156.872 365.805 155.282 365.198 153.69 364.571L153.874 364.106C152.3 363.485 150.725 362.845 149.151 362.186L148.958 362.647C147.393 361.992 145.829 361.318 144.265 360.626L144.468 360.168C142.92 359.483 141.374 358.78 139.829 358.059L139.618 358.512C138.08 357.794 136.544 357.059 135.011 356.307L135.231 355.858C133.709 355.112 132.19 354.349 130.674 353.57L130.446 354.015C128.935 353.239 127.427 352.446 125.924 351.638L126.16 351.198C124.667 350.395 123.177 349.577 121.692 348.744L121.448 349.18C119.965 348.348 118.488 347.502 117.016 346.641L117.268 346.21C115.803 345.353 114.343 344.482 112.89 343.597L112.63 344.024C111.177 343.14 109.73 342.242 108.29 341.33L108.557 340.908C107.122 339.999 105.694 339.077 104.273 338.143L103.998 338.56C102.576 337.625 101.162 336.677 99.7559 335.716L100.038 335.304C98.6344 334.345 97.2391 333.374 95.8529 332.391L95.5637 332.799C94.1743 331.813 92.7939 330.816 91.4233 329.808L91.7196 329.405C90.3498 328.397 88.9897 327.377 87.64 326.347L87.3366 326.744C85.9821 325.71 84.6381 324.665 83.3054 323.609L83.6159 323.217C82.2817 322.16 80.9589 321.092 79.6481 320.014L79.3305 320.4C78.0131 319.316 76.7078 318.223 75.4154 317.119L75.74 316.739C74.445 315.633 73.1629 314.517 71.8945 313.392L71.5627 313.766C70.2862 312.634 69.0236 311.492 67.7756 310.341L68.1145 309.973C66.8618 308.818 65.6238 307.653 64.4014 306.48L64.0551 306.841C62.8225 305.658 61.6057 304.466 60.4053 303.266L60.7589 302.912C60.1577 302.311 59.5607 301.708 58.9679 301.103L58.9677 301.103C58.3806 300.504 57.7911 299.897 57.1998 299.281L56.8391 299.627C55.6774 298.417 54.5083 297.174 53.3345 295.899L53.7025 295.56C52.5707 294.33 51.4346 293.069 50.2968 291.778L49.9217 292.108C48.8108 290.847 47.6983 289.557 46.5867 288.239L46.9689 287.916C45.8857 286.631 44.8034 285.319 43.724 283.979L43.3347 284.293C42.2773 282.98 41.2229 281.642 40.1734 280.277L40.5698 279.972C39.545 278.64 38.525 277.282 37.5118 275.9L37.1085 276.195C36.1111 274.835 35.1202 273.45 34.1376 272.042L34.5477 271.755C33.5837 270.374 32.6278 268.969 31.6818 267.541L31.265 267.817C30.3315 266.408 29.4075 264.977 28.4948 263.523L28.9182 263.258C28.021 261.829 27.1346 260.379 26.2609 258.907L25.831 259.162C24.9671 257.707 24.1155 256.232 23.2776 254.735L23.7139 254.491C22.889 253.018 22.0776 251.525 21.281 250.012L20.8386 250.244C20.0505 248.747 19.277 247.231 18.5194 245.694L18.9679 245.473C18.2213 243.959 17.4903 242.427 16.7763 240.875L16.322 241.084C15.6144 239.547 14.9233 237.99 14.2501 236.416L14.7099 236.219C14.0461 234.667 13.3999 233.096 12.7724 231.508L12.3073 231.692C11.6852 230.117 11.0814 228.525 10.4972 226.915L10.9672 226.745C10.3912 225.158 9.83431 223.553 9.29774 221.932L8.82307 222.089C8.29103 220.482 7.77891 218.858 7.2879 217.217L7.7669 217.074C7.28281 215.456 6.81928 213.823 6.37745 212.173L5.89447 212.302C5.45643 210.667 5.03964 209.016 4.6452 207.349L5.13176 207.234C4.74302 205.591 4.37605 203.933 4.03189 202.26L3.54215 202.36C3.20107 200.702 2.88234 199.029 2.58696 197.341L3.07947 197.255C2.78851 195.592 2.52027 193.915 2.27574 192.223L1.78089 192.295C1.53878 190.62 1.31984 188.931 1.12501 187.228L1.62177 187.171C1.43013 185.496 1.26188 183.808 1.11793 182.106L0.619712 182.148C0.477255 180.463 0.358526 178.765 0.264394 177.055L0.763639 177.027C0.671045 175.344 0.602318 173.649 0.55829 171.94L0.0584555 171.953C0.0149103 170.263 -0.00454424 168.561 0.000891318 166.847L0.500889 166.848C0.503583 165.999 0.512412 165.146 0.527473 164.29C0.542499 163.439 0.565389 162.593 0.596044 161.75L0.0963746 161.732C0.157913 160.041 0.250634 158.366 0.373774 156.707L0.872402 156.744C0.996739 155.069 1.1522 153.411 1.33799 151.769L0.841164 151.713C1.03141 150.032 1.25334 148.367 1.50612 146.72L2.00033 146.796C2.25472 145.138 2.54046 143.498 2.85668 141.874L2.36591 141.779C2.68895 140.12 3.04369 138.48 3.4292 136.856L3.91567 136.972C4.303 135.341 4.72151 133.728 5.17027 132.133L4.68896 131.998C5.14558 130.375 5.63339 128.77 6.15141 127.183L6.62673 127.338C7.14664 125.746 7.69711 124.172 8.27715 122.615L7.80864 122.441C8.39626 120.864 9.01409 119.306 9.66111 117.767L10.1221 117.96C10.7707 116.417 11.4489 114.892 12.1554 113.385L11.7027 113.173C12.4157 111.652 13.1576 110.15 13.9272 108.666L14.371 108.897C15.1415 107.411 15.9399 105.945 16.7651 104.496L16.3307 104.249C17.1611 102.791 18.0186 101.352 18.9021 99.9315L19.3267 100.196C20.2096 98.7758 21.1186 97.3744 22.0526 95.991L21.6382 95.7112C22.5763 94.3218 23.5395 92.9507 24.5266 91.5977L24.9306 91.8924C25.9152 90.5428 26.9239 89.2112 27.9554 87.8974L27.5622 87.5886C28.5973 86.2704 29.6553 84.9701 30.7351 83.6875L31.1176 84.0095C32.1929 82.7323 33.2901 81.4726 34.4079 80.2304L34.0362 79.8959C35.1571 78.6504 36.2985 77.4223 37.4596 76.2116L37.8205 76.5577C38.9761 75.3526 40.1512 74.1647 41.3448 72.9938L40.9947 72.6369C42.1905 71.4637 43.4048 70.3076 44.6363 69.1683L44.9759 69.5354C46.2019 68.4012 47.4452 67.2838 48.7046 66.1829L48.3756 65.8064C49.6368 64.704 50.9141 63.6181 52.2065 62.5487L52.5252 62.9339C53.8126 61.8686 55.115 60.8196 56.4313 59.7866L56.1227 59.3933C57.4407 58.359 58.7726 57.3409 60.1173 56.3388L60.416 56.7397C61.7566 55.7407 63.1099 54.7576 64.475 53.7901L64.1859 53.3822C65.5534 52.4131 66.9326 51.4597 68.3223 50.5219L68.602 50.9364C69.9885 50.0009 71.3855 49.0809 72.7922 48.1763L72.5217 47.7557C73.9325 46.8484 75.3528 45.9566 76.7815 45.08L77.043 45.5062C78.4691 44.6313 79.9036 43.7716 81.3456 42.9269L81.0929 42.4955C82.5416 41.6468 83.9978 40.8134 85.4604 39.9949L85.7045 40.4312C87.1655 39.6136 88.6328 38.811 90.1055 38.0232L89.8696 37.5823C91.3512 36.7897 92.8382 36.012 94.3293 35.2491L94.557 35.6943C96.049 34.931 97.5452 34.1825 99.0446 33.4486L98.8248 32.9995C100.335 32.2604 101.848 31.5362 103.363 30.8266L103.575 31.2794C105.095 30.5676 106.617 29.8704 108.14 29.1879L107.936 28.7316C109.47 28.044 111.005 27.3712 112.54 26.7129L112.737 27.1724C114.283 26.5095 115.828 25.8613 117.373 25.2277L117.183 24.7651C118.737 24.1273 120.29 23.5043 121.84 22.8959L122.023 23.3613C123.593 22.745 125.161 22.1437 126.725 21.557L126.549 21.0889C128.121 20.4989 129.69 19.9239 131.253 19.3635L131.422 19.8342C133.014 19.2635 134.6 18.708 136.18 18.1676L136.018 17.6945C137.613 17.1487 139.202 16.6182 140.782 16.1028L140.937 16.5781C142.541 16.0547 144.137 15.5468 145.723 15.0542L145.575 14.5767C147.194 14.0739 148.802 13.587 150.398 13.1157L150.54 13.5953C152.151 13.1196 153.75 12.66 155.335 12.2161L155.201 11.7346C156.845 11.2742 158.474 10.8307 160.086 10.4037L160.214 10.8871C161.852 10.4533 163.473 10.0368 165.075 9.63703L164.954 9.15191C166.596 8.74196 168.219 8.34972 169.82 7.97483L169.934 8.46165C171.602 8.07097 173.245 7.69918 174.863 7.34589L174.756 6.85741C176.425 6.49285 178.067 6.14796 179.677 5.82233L179.776 6.31241C181.442 5.97566 183.075 5.65954 184.673 5.3636L184.581 4.87196C186.279 4.55739 187.938 4.26557 189.552 3.99592L189.635 4.48909C191.345 4.2035 193.007 3.94287 194.616 3.70654L194.543 3.21184C196.269 2.95827 197.935 2.73258 199.536 2.53396L199.597 3.03016C200.424 2.92759 201.233 2.83227 202.024 2.74408L201.968 2.24716L202.024 2.74407C202.855 2.6513 203.693 2.56237 204.537 2.47761L204.487 1.98011C206.151 1.813 207.84 1.66206 209.551 1.52977L209.589 2.02828C211.254 1.89956 212.939 1.78854 214.643 1.69751L214.616 1.19822C216.292 1.10864 217.986 1.03837 219.695 0.989578L219.709 1.48937C221.385 1.44153 223.075 1.4144 224.776 1.41005L224.775 0.910049C226.457 0.905745 228.15 0.923613 229.853 0.965628L229.84 1.46548C231.52 1.50691 233.208 1.5719 234.903 1.66233L234.93 1.16304C236.614 1.25288 238.305 1.36777 240.001 1.50957L239.959 2.00783C241.634 2.1479 243.314 2.3143 244.996 2.50881L245.054 2.01212C246.73 2.20599 248.41 2.42771 250.089 2.67906L250.015 3.17356C251.68 3.42267 253.345 3.70096 255.009 4.01015L255.1 3.51857C256.761 3.82737 258.421 4.16691 260.078 4.53892L259.968 5.02677C261.61 5.39555 263.249 5.79632 264.882 6.23074L265.01 5.74754C266.643 6.18192 268.271 6.64986 269.891 7.15304L269.743 7.63054C271.35 8.1296 272.95 8.6634 274.541 9.2336L274.709 8.76293C276.3 9.33311 277.882 9.93959 279.452 10.584L279.262 11.0466C280.818 11.6846 282.362 12.36 283.894 13.0742L284.105 12.621C285.635 13.3341 287.152 14.0858 288.654 14.8777L288.421 15.32C289.906 16.1025 291.377 16.9243 292.832 17.7871L293.087 17.357C294.537 18.2168 295.971 19.1171 297.388 20.0593L297.111 20.4757C298.507 21.4037 299.885 22.3726 301.245 23.3838L301.544 22.9826C302.895 23.9869 304.227 25.0329 305.54 26.1218L305.221 26.5067C306.507 27.5733 307.774 28.6814 309.02 29.8324L309.359 29.465C310.592 30.6035 311.805 31.7837 312.996 33.0068L312.638 33.3557C313.802 34.5506 314.945 35.7867 316.066 37.0654L316.442 36.7357C317.546 37.9954 318.63 39.296 319.69 40.6388L319.298 40.9487C319.82 41.6093 320.336 42.2802 320.846 42.9614C321.339 43.6191 321.825 44.2841 322.304 44.9566L322.711 44.6666C323.669 46.0109 324.598 47.3845 325.498 48.7874L325.077 49.0575C325.964 50.4384 326.823 51.8478 327.655 53.2857L328.088 53.0354C328.912 54.4615 329.71 55.9154 330.481 57.3971L330.038 57.6279C330.794 59.0819 331.525 60.5629 332.229 62.0708L332.682 61.8592C333.379 63.3498 334.05 64.8665 334.695 66.4091L334.234 66.6021C334.866 68.1129 335.474 69.6489 336.058 71.2101L336.526 71.035C337.101 72.5746 337.653 74.1383 338.181 75.7262L337.707 75.884C338.223 77.4374 338.717 79.0141 339.188 80.6142L339.668 80.473C340.132 82.0485 340.574 83.6465 340.994 85.2668L340.51 85.3923C340.92 86.9768 341.31 88.583 341.678 90.2107L342.166 90.1003C342.529 91.702 342.871 93.3243 343.193 94.9672L342.702 95.0633C343.017 96.6705 343.312 98.2977 343.588 99.9447L344.081 99.8622C344.352 101.483 344.604 103.122 344.838 104.781L344.343 104.85C344.571 106.474 344.782 108.116 344.974 109.777L345.471 109.72C345.66 111.354 345.832 113.006 345.986 114.676L345.488 114.722C345.638 116.353 345.772 118.001 345.889 119.666L346.388 119.631C346.503 121.268 346.602 122.921 346.684 124.59L346.185 124.615C346.266 126.252 346.331 127.905 346.381 129.574L346.881 129.559C346.93 131.203 346.964 132.862 346.983 134.536L346.483 134.542C346.501 136.186 346.505 137.845 346.494 139.519L346.994 139.522C346.983 141.165 346.959 142.821 346.92 144.491L346.42 144.479C346.382 146.118 346.33 147.771 346.265 149.437L346.765 149.456C346.701 151.101 346.623 152.758 346.532 154.429L346.033 154.402C345.944 156.046 345.841 157.704 345.726 159.374L346.225 159.409C346.113 161.046 345.988 162.696 345.85 164.357L345.352 164.316C345.217 165.953 345.07 167.601 344.91 169.261L345.408 169.309C345.251 170.951 345.082 172.604 344.901 174.269L344.404 174.215C344.226 175.848 344.038 177.493 343.838 179.149L344.334 179.209C344.137 180.841 343.929 182.484 343.711 184.137L343.215 184.072C342.999 185.705 342.772 187.35 342.534 189.005L343.029 189.076C342.795 190.705 342.551 192.344 342.296 193.994L341.802 193.918C341.551 195.542 341.291 197.175 341.02 198.819L341.513 198.9C341.245 200.531 340.966 202.171 340.678 203.82L340.185 203.734C339.903 205.352 339.61 206.979 339.309 208.615L339.8 208.706C339.502 210.326 339.193 211.956 338.876 213.594L338.385 213.499C338.071 215.119 337.748 216.749 337.416 218.387L337.906 218.486C337.579 220.097 337.244 221.716 336.9 223.344L336.411 223.24C336.069 224.856 335.719 226.48 335.36 228.112L335.848 228.219C335.495 229.827 335.133 231.442 334.763 233.066L334.275 232.955C334.09 233.766 333.903 234.579 333.714 235.395C333.53 236.185 333.344 236.974 333.153 237.76L333.639 237.878C333.257 239.458 332.862 241.03 332.453 242.593L331.969 242.467C331.559 244.037 331.135 245.598 330.697 247.15L331.179 247.286C330.738 248.851 330.284 250.407 329.816 251.954L329.337 251.809C328.868 253.363 328.385 254.907 327.889 256.441L328.364 256.595C327.864 258.142 327.35 259.68 326.823 261.207L326.35 261.043C325.82 262.578 325.277 264.102 324.721 265.615L325.191 265.787C324.63 267.314 324.055 268.83 323.467 270.334L323.002 270.152C322.411 271.665 321.807 273.165 321.19 274.654L321.652 274.846C321.029 276.349 320.393 277.84 319.744 279.318L319.286 279.117C318.633 280.604 317.967 282.078 317.288 283.539L317.742 283.75C317.056 285.226 316.357 286.688 315.645 288.137L315.196 287.917C314.48 289.374 313.75 290.818 313.008 292.247L313.452 292.478C312.702 293.922 311.938 295.353 311.162 296.768L310.724 296.528C309.943 297.951 309.149 299.36 308.342 300.754L308.775 301.004C307.959 302.413 307.13 303.806 306.288 305.184L305.862 304.923C305.015 306.308 304.155 307.678 303.282 309.03L303.702 309.301C302.819 310.669 301.924 312.02 301.015 313.354L300.602 313.072C299.687 314.414 298.76 315.738 297.82 317.044L298.226 317.336C297.275 318.657 296.31 319.96 295.334 321.244L294.936 320.941C293.953 322.233 292.957 323.505 291.948 324.758L292.337 325.072C291.316 326.34 290.282 327.589 289.235 328.817L288.854 328.492C287.8 329.728 286.734 330.943 285.654 332.136L286.025 332.472C284.933 333.68 283.827 334.866 282.709 336.03L282.349 335.683C281.224 336.854 280.086 338.002 278.937 339.127L279.286 339.484C278.122 340.623 276.945 341.738 275.756 342.828L275.418 342.459C274.223 343.556 273.014 344.628 271.794 345.674L272.119 346.054C270.884 347.113 269.636 348.147 268.376 349.154L268.064 348.763C266.796 349.776 265.516 350.763 264.225 351.721L264.523 352.123C263.215 353.093 261.896 354.036 260.565 354.95L260.282 354.537C259.616 354.995 258.947 355.444 258.275 355.887C257.549 356.365 256.82 356.833 256.09 357.293L256.356 357.716C254.874 358.649 253.384 359.544 251.888 360.401L251.639 359.968C250.126 360.835 248.606 361.663 247.08 362.453L247.31 362.897C245.756 363.701 244.195 364.466 242.629 365.19L242.419 364.736C240.838 365.467 239.25 366.156 237.658 366.805L237.846 367.268C236.227 367.927 234.603 368.544 232.973 369.118L232.807 368.647C231.167 369.225 229.522 369.759 227.872 370.251L228.015 370.73C226.342 371.228 224.664 371.682 222.982 372.092L222.864 371.606C221.178 372.016 219.488 372.382 217.794 372.703L217.887 373.194C216.175 373.518 214.46 373.796 212.741 374.029L212.674 373.533C210.958 373.765 209.239 373.951 207.517 374.091L207.558 374.589C205.825 374.73 204.09 374.825 202.352 374.873L202.339 374.373C201.475 374.397 200.611 374.409 199.746 374.409C198.927 374.408 198.109 374.396 197.29 374.373L197.277 374.873C195.631 374.828 193.986 374.743 192.345 374.616L192.384 374.117C190.751 373.991 189.121 373.825 187.496 373.618L187.433 374.114C185.801 373.906 184.173 373.657 182.551 373.368L182.639 372.876C181.028 372.589 179.423 372.262 177.824 371.896L177.712 372.383C176.11 372.016 174.515 371.608 172.927 371.162L173.063 370.68C172.275 370.459 171.489 370.227 170.706 369.986Z" stroke="#DFDFDF" stroke-dasharray="5 5"/>
<circle cx="320.5" cy="43.4094" r="7.5" fill="#B2C1F3"/>
<circle cx="320.5" cy="43.4094" r="4.5" fill="#B2C1F3" stroke="white" stroke-width="2"/>
<circle cx="166.5" cy="367.409" r="7.5" fill="#B2C1F3"/>
<circle cx="166.5" cy="367.409" r="4.5" fill="#B2C1F3" stroke="white" stroke-width="2"/>
</svg>
