<svg width="8" height="8" viewBox="0 0 8 8" fill="none" xmlns="http://www.w3.org/2000/svg">
<path d="M7.1111 7.28223H4.37606C4.17093 7.28223 4.03418 7.41898 4.03418 7.62411C4.03418 7.82924 4.17093 7.96599 4.37606 7.96599H7.1111C7.31623 7.96599 7.45298 7.82924 7.45298 7.62411C7.45298 7.41898 7.28204 7.28223 7.1111 7.28223Z" fill="white"/>
<path d="M3.76068 1.77783L0.102564 5.43595C0.0341879 5.50433 0 5.5727 0 5.67527L0.034188 7.62399C0.034188 7.79493 0.17094 7.96587 0.376068 7.96587L2.32479 8.00005C2.42735 8.00005 2.49573 7.96587 2.5641 7.89749L6.22222 4.23937L3.76068 1.77783Z" fill="white"/>
<path d="M7.89738 2.08547L5.91447 0.102564C5.77772 -0.034188 5.57259 -0.034188 5.43584 0.102564L4.23926 1.29915L6.7008 3.76068L7.89738 2.5641C8.03413 2.42735 8.03413 2.22222 7.89738 2.08547Z" fill="white"/>
</svg>
