<svg width="16" height="12" viewBox="0 0 16 12" fill="none" xmlns="http://www.w3.org/2000/svg">
<g clip-path="url(#clip0_137_14251)">
<path d="M0 10.7101V3.37006H0.0699463L6.56995 7.70007C6.98481 8.00395 7.48575 8.16779 8 8.16779C8.51425 8.16779 9.01513 8.00395 9.42999 7.70007L15.84 3.42004L16 3.32007V10.4501C16.0146 10.5763 16.0146 10.7038 16 10.8301C15.9306 11.1784 15.7373 11.4898 15.4561 11.7067C15.1748 11.9236 14.8245 12.0314 14.47 12.0101H1.56C1.1493 12.0207 0.750746 11.8699 0.449951 11.5901C0.2166 11.3474 0.0601082 11.0413 0 10.7101Z" fill="white"/>
<path d="M0 1.27996C0 1.18996 0.0499561 1.09994 0.0799561 1.00994C0.181084 0.714896 0.372859 0.459365 0.627869 0.279781C0.882878 0.100197 1.18813 0.00573956 1.5 0.00994468H14.47C14.6921 -0.00039466 14.9138 0.0381348 15.1194 0.122799C15.325 0.207463 15.5095 0.336189 15.66 0.499935C15.8022 0.650578 15.9098 0.830523 15.9752 1.02716C16.0405 1.22379 16.062 1.43235 16.0381 1.63818C16.0143 1.84401 15.9457 2.04211 15.8372 2.21862C15.7287 2.39513 15.5829 2.54581 15.41 2.65997C14.41 3.31997 13.46 3.95997 12.48 4.65997L8.97998 6.98993C8.71513 7.20771 8.38287 7.32678 8.03998 7.32678C7.69708 7.32678 7.36483 7.20771 7.09998 6.98993C5.04998 5.62993 2.99994 4.24995 0.939941 2.88995C0.716752 2.77332 0.521047 2.61042 0.365845 2.41211C0.210642 2.21379 0.0995518 1.9846 0.039978 1.73993L0 1.27996Z" fill="white"/>
</g>
<defs>
<clipPath id="clip0_137_14251">
<rect width="16" height="11.99" fill="white"/>
</clipPath>
</defs>
</svg>
