<svg width="20" height="20" viewBox="0 0 20 20" fill="none" xmlns="http://www.w3.org/2000/svg">
<path d="M12.9991 17.9944L12.3425 17.8928C11.4662 17.7089 10.6298 17.3701 9.87256 16.8923C8.68301 16.1392 7.60659 15.2207 6.67566 14.1644C5.69205 13.1153 4.83671 11.9529 4.12758 10.7018C3.5959 9.7824 3.23816 8.77287 3.07235 7.72381C2.87766 6.55852 3.07855 5.3616 3.64298 4.3237C3.95016 3.76605 4.36455 3.27462 4.86232 2.87768C5.10463 2.69009 5.33128 2.47122 5.57358 2.28363C5.67644 2.18653 5.79803 2.11145 5.93091 2.06296C6.06379 2.01448 6.20517 1.99364 6.34639 2.00168C6.48761 2.00973 6.62567 2.04652 6.75218 2.10979C6.8787 2.17306 6.99097 2.26147 7.08213 2.36963C7.34878 2.63328 7.5872 2.92405 7.79344 3.23722C8.21264 3.79427 8.55689 4.40395 8.81737 5.05062C8.9489 5.35722 8.97886 5.69787 8.90291 6.02274C8.82697 6.34761 8.64908 6.63965 8.39526 6.85618C8.11982 7.11755 7.82738 7.36041 7.51984 7.58312C7.23067 7.75775 7.01783 8.03484 6.92369 8.35926C6.82955 8.68369 6.86104 9.03167 7.01181 9.33397C7.26091 9.98714 7.62048 10.5926 8.07481 11.1239C8.63087 11.848 9.26231 12.5109 9.95853 13.1014C10.3338 13.4407 10.7836 13.687 11.2717 13.8205C11.473 13.8759 11.6857 13.8753 11.8868 13.8188C12.0879 13.7623 12.2697 13.6521 12.4129 13.5001C12.7411 13.1952 13.0616 12.8826 13.4055 12.5934C13.6521 12.3817 13.9585 12.2522 14.2821 12.2228C14.6057 12.1934 14.9304 12.2655 15.2111 12.4292C15.4222 12.5291 15.6215 12.6523 15.8052 12.7966C16.4871 13.2756 17.1022 13.8434 17.6342 14.4849C17.7342 14.5934 17.8107 14.7215 17.8585 14.8611C17.9064 15.0007 17.9246 15.1488 17.9121 15.2958C17.8996 15.4429 17.8566 15.5857 17.7859 15.7153C17.7152 15.8448 17.6182 15.9582 17.5013 16.0482C17.0308 16.5337 16.5063 16.9638 15.938 17.33C15.3357 17.6763 14.6672 17.892 13.9761 17.9632C13.9319 17.9594 13.8875 17.9594 13.8433 17.9632L12.9991 17.9944Z" fill="white"/>
</svg>
