<svg width="20" height="20" viewBox="0 0 20 20" fill="none" xmlns="http://www.w3.org/2000/svg">
<path d="M20 3.6645C19.2466 4.00697 18.4932 4.21244 17.6027 4.34943C18.4247 3.80149 19.1096 3.04806 19.4521 2.08916C18.6301 2.56861 17.7397 2.91108 16.8493 3.11656C16.0959 2.29464 15 1.81519 13.8356 1.81519C11.5753 1.81519 9.65753 3.6645 9.65753 5.99327C9.65753 6.33573 9.72603 6.60971 9.79452 6.95217C6.36986 6.81519 3.28767 5.10286 1.23288 2.6371C0.890411 3.11656 0.684932 3.80149 0.684932 4.55491C0.684932 5.99327 1.43836 7.29464 2.53425 7.97957C1.84931 7.97957 1.23288 7.77409 0.684932 7.43162V7.50012C0.684932 9.48642 2.12329 11.1987 4.0411 11.5412C3.69863 11.6097 3.35616 11.6782 2.94521 11.6782C2.67123 11.6782 2.39726 11.6782 2.19178 11.6097C2.73973 13.2535 4.24657 14.4864 6.09589 14.4864C4.65753 15.5823 2.87671 16.2672 0.958904 16.2672C0.616438 16.2672 0.273973 16.2672 0 16.1987C1.64384 17.5001 3.83562 18.185 6.16438 18.185C13.7671 18.185 17.9452 11.8837 17.9452 6.40423V5.85628C18.7671 5.23984 19.4521 4.55491 20 3.6645Z" fill="white"/>
</svg>
