<svg width="8" height="10" viewBox="0 0 8 10" fill="none" xmlns="http://www.w3.org/2000/svg">
<g opacity="0.8">
<path d="M0.564087 3.07692C0.564087 4.20513 0.564087 5.79487 0.564087 6.5641C0.615369 7.23077 0.666651 8.10256 0.717933 8.71795C0.769215 9.4359 1.3846 10 2.10255 10H5.89742C6.61537 10 7.23075 9.4359 7.28204 8.71795C7.33332 8.10256 7.3846 7.23077 7.43588 6.5641C7.48716 5.79487 7.43588 4.20513 7.43588 3.07692H0.564087Z" fill="#DB3944"/>
<path d="M7.58974 1.53846H6.30769L5.89744 0.769231C5.64103 0.307692 5.17949 0 4.66667 0H3.4359C2.92308 0 2.41026 0.307692 2.20513 0.769231L1.69231 1.53846H0.410257C0.205128 1.53846 0 1.74359 0 1.94872C0 2.15385 0.205128 2.35897 0.410257 2.35897H7.58974C7.79487 2.35897 8 2.20513 8 1.94872C8 1.69231 7.79487 1.53846 7.58974 1.53846ZM2.5641 1.53846L2.82051 1.1282C2.92308 0.923077 3.12821 0.769231 3.38462 0.769231H4.61539C4.8718 0.769231 5.07692 0.871795 5.17949 1.1282L5.4359 1.53846H2.5641Z" fill="#DB3944"/>
</g>
</svg>
